<?xml version="1.0" encoding="utf-8"?>
<!-- Generator: Adobe Illustrator 21.0.0, SVG Export Plug-In . SVG Version: 6.00 Build 0)  -->
<svg version="1.1" id="Layer_1" xmlns="http://www.w3.org/2000/svg" xmlns:xlink="http://www.w3.org/1999/xlink" x="0px" y="0px"
	 viewBox="0 0 2732 2048" style="enable-background:new 0 0 2732 2048;" xml:space="preserve">
<g>
	<path d="M1820.2,814.5c0.7,9.5,1.5,18.9,2.1,28.3c2.4,37,1,73.8-5.8,110.4c-5.1,27.6-13.8,53.9-29.2,77.4
		c-24.7,37.5-59.8,56.2-104.9,55.7c-43.6-0.5-75.1-21.8-97.6-57.8c-17.8-28.6-26.3-60.4-31-93.5c-4.3-29.8-4.8-59.7-2.7-89.7
		c2.6-36.9,10.7-72.4,27.9-105.3c8.9-17.1,20.5-32.4,35.7-44.5c26.5-21,56.8-29.4,90.2-25.5c28.2,3.3,52.6,15.1,71.5,36.9
		c17.7,20.4,28.6,44.3,35.5,70.2c2.7,10.1,4.9,20.4,6.8,30.6c0.6,3.2,2,4.2,4.9,5c23,5.9,46.2,11.5,68.9,18.3
		c45.9,13.7,90.2,31.4,131,57c23.8,15,45.2,32.5,60.7,56.4c19.8,30.6,23.9,63,9.1,96.9c-9.6,21.9-24.4,39.7-42,55.8
		c-15,13.8-31.4,25.5-48.5,36.4c-38.8,24.6-80.7,42.6-123.5,58.7c-40.7,15.3-82.3,27.7-124.7,37.3c-42.1,9.6-84.6,18-127,25.9
		c-25.8,4.8-52,8.1-78.1,11.2c-31.6,3.8-63.2,6.6-94.9,9.8c-2.8,0.3-5.6,0.3-9,0.5c-0.9-29.1-1.9-57.8-2.8-87.2c2.3,0,4,0,5.8,0
		c16,0,32,0.6,48-0.1c41.5-1.9,83.1-3.3,124.5-6.9c41.7-3.7,83.4-9,124.9-15c43-6.2,85.4-15.8,127-28.1
		c43-12.8,85.2-27.6,124.1-50.4c21.2-12.4,40.9-26.7,56.7-46c23.2-28.3,25.5-60.5,5.7-91.5c-14.6-22.9-34.6-40.4-56.8-55.5
		c-50.7-34.5-106.7-57.7-164.5-76.9c-5.4-1.8-10.8-3.3-16.2-4.9C1821.4,814.4,1820.9,814.5,1820.2,814.5z M1770,875.6
		c-0.6,0-1.3-0.1-1.9-0.1c0-6.2,0.1-12.3,0-18.5c-0.6-24-2.7-47.8-9.1-71.1c-4.5-16.6-10-32.8-20.5-46.8
		c-15.8-20.9-36.3-31-62.6-26.1c-18.1,3.4-30.6,15.2-40.8,29.9c-11.3,16.3-17.2,34.8-22,53.7c-6.9,27.3-7.9,55.3-8.4,83.2
		c-0.5,26.7,2.3,53.2,7.8,79.3c4.6,21.8,12.1,42.6,26.2,60.3c9.8,12.4,22.1,21.1,38.1,23.5c23.4,3.5,42.7-4.2,57.7-22.3
		c13.7-16.5,20.9-36.2,25.4-56.8c2.5-11.6,3.6-23.5,4.9-35.3C1766.7,911,1768.2,893.3,1770,875.6z"/>
	<path d="M1243.2,1183.1c1.5-20.8,3-41,4.6-62.5c55.5,37.8,110.1,75,165.4,112.7c-60.5,29-120.2,57.6-180.5,86.6
		c1.7-21.2,3.3-41.6,5-62.9c-5.3-1-10.8-1.9-16.3-2.9c-30.1-5.6-60.3-10.7-90.2-17.1c-42.8-9.2-85.1-20.1-126.8-33.7
		c-42.9-14-85.2-29.6-125.3-50.5c-32.8-17-64.2-36.2-90.8-62.1c-20.3-19.8-36.6-42.2-42.6-70.8c-5.3-25.4-0.6-49,12.8-70.9
		c15.6-25.7,38.2-44.2,63.2-60.1c28.1-17.9,58.4-31,89.5-42.7c41.5-15.6,84.3-26.8,127.6-36.1c12.5-2.7,25.1-5.2,37.6-7.7
		c0.9-0.2,1.9-0.2,2.9,0.3c-14.4,4-28.8,7.8-43.2,12.1c-39,11.5-77.1,25.4-114.3,41.9c-28.7,12.7-56.4,27.2-81.9,45.5
		c-16.7,11.9-32.6,24.8-45.1,41.4c-8.6,11.4-16,23.4-18.9,37.6c-4.3,21,1.9,39.5,14.2,56.4c9.9,13.6,22.4,24.6,36.1,34.3
		c31.8,22.5,66.9,38.2,103.5,51.1c47.8,16.8,96.8,29.2,146.6,38.2c16.2,2.9,32.2,6.4,48.5,8.8c21.6,3.1,43.2,5.5,64.9,8
		c15.4,1.8,30.8,3.2,46.2,4.7C1238.2,1182.8,1240.3,1182.9,1243.2,1183.1z"/>
	<path d="M1467.4,670.1c0,15,0,29.6,0,44.5c-61.1-0.4-113.6,18.3-150.9,69.3c-16,21.8-30.5,61.6-28.8,76.3c2.6-2.8,4.9-5.3,7.2-7.8
		c29-30.8,65.3-42.3,106.4-37.6c49,5.7,83,32.5,98,79.3c17.3,53.8,8.8,104.6-27.7,148.8c-19.8,23.9-46.4,37.5-77.3,41.9
		c-29.2,4.1-57.6,0.9-84.1-12.5c-26.2-13.3-45.4-33.7-58.7-59.9c-14.6-28.7-19.8-59.3-20.8-91.1c-1.3-39,4.9-76.7,19.1-112.8
		c15.5-39.5,39.5-72.7,74.6-97.2c27.4-19.1,57.9-30.4,90.5-36.1C1432.1,672,1449.2,669.7,1467.4,670.1z M1452.9,952.3
		c-1.6-12.2-2.3-24.5-5-36.5c-5.3-23.6-18.6-42.1-40.8-52.5c-39.3-18.5-85.7-5-110.1,31.4c-6.6,9.8-12.1,19.8-12,32.1
		c0.2,23.2,3.4,45.7,13.2,67c9.4,20.4,23.2,36.3,44.7,44.6c31.1,11.9,68.2,5.5,89.7-24.5C1445.8,995.5,1451.1,974.7,1452.9,952.3z"
		/>
	<path d="M978.1,883.9c0-14.1,0-27.4,0-41.4c3.8,0,7.4,0,10.9,0c18.3-0.2,36.7,0.3,54.5-5.3c22.3-7.1,42.1-18.2,50.8-41.3
		c7.5-19.9,5.8-40-7.1-57.5c-10.1-13.7-24.8-20.6-41.6-23.3c-27.2-4.4-52.6,1.7-77,13.1c-7.2,3.4-14.1,7.5-21.5,11.4
		c-1.7-4.5-3.4-9.3-5.2-14.1c-2.5-6.9-4.9-13.8-7.7-20.5c-1.5-3.5-1-5.4,2.4-7.6c14.9-9.5,31.1-15.7,48-20.5c17-4.9,34.4-8,52.1-7.8
		c26.9,0.3,53.2,4.4,76.4,19.3c20.5,13.2,33.7,32.2,38.5,56.1c5.8,28.9,1,56.1-18,79.6c-12.9,15.9-29.4,26.8-48.4,34.2
		c-1.8,0.7-3.6,1.4-5.4,3.2c2.4,0.5,4.9,0.9,7.3,1.6c43.1,12.3,75.4,40.9,81.4,88.8c3.9,31.1-3.9,59.9-23.9,84.7
		c-21.4,26.5-50.1,39.9-82.7,46.2c-17.6,3.4-35.4,4.5-53.2,3.2c-30.7-2.2-60-9.3-87.2-24.4c-3.3-1.9-4.2-3.5-2.7-7.4
		c4.2-11,7.9-22.2,11.8-33.4c0.5-1.4,1.1-2.7,1.7-4.3c16.5,9.3,33.3,16.6,51.5,20.7c26.9,6.1,53.7,7.1,80.2-2.2
		c30.7-10.9,50.9-41.6,48.7-73.9c-2.3-33.6-20.2-55.8-51.1-68.1c-19.5-7.8-39.8-10.4-60.7-9.4C993.6,884.2,986.1,883.9,978.1,883.9z
		"/>
	<path d="M1845.1,626.3c-0.6,19.6-14.4,33.2-33.3,32.8c-18.1-0.4-30.9-14.8-30.4-34.3c0.4-16.2,15.8-30.1,32.9-29.6
		C1832.3,595.7,1845.5,609.1,1845.1,626.3z M1795,627.2c0.2,12.2,7.6,20,18.8,19.8c10.7-0.2,18.1-9,18-21.5
		c-0.1-10.9-8.1-18.8-19.1-18.6C1802.1,607,1794.8,615.4,1795,627.2z"/>
</g>
</svg>
