<?xml version="1.0" encoding="UTF-8"?>
<svg width="95px" height="20px" viewBox="0 0 95 20" version="1.1" xmlns="http://www.w3.org/2000/svg" xmlns:xlink="http://www.w3.org/1999/xlink">
    <!-- Generator: Sketch 48.2 (47327) - http://www.bohemiancoding.com/sketch -->
    <title>logo-adayroi</title>
    <desc>Created with Sketch.</desc>
    <defs></defs>
    <g id="Artboard" stroke="none" stroke-width="1" fill="none" fill-rule="evenodd" transform="translate(-580.000000, -18.000000)">
        <g id="misc-/-logo-adayroi" transform="translate(576.000000, 16.000000)">
            <path d="M76.1355924,15.6058537 L77.345464,4.98390244 C77.3478886,4.94780488 77.3561322,4.91073171 77.3580719,4.87317073 C77.3992899,4.32341463 77.9768278,3.84878049 78.5126627,3.94829268 C79.1382075,4.06731707 79.3874556,4.49853659 79.2676808,5.21804878 C79.2235532,5.47512195 76.7912022,15.6356098 76.7912022,15.6356098 L76.7912022,15.637561 C76.7606523,15.8146341 76.5885063,15.9531707 76.4066619,15.9453659 C76.2262722,15.9380488 76.1040727,15.7853659 76.1355924,15.6078049 L76.1355924,15.6058537 Z M82.9816712,16.5307317 L83.8268841,17.3804878 C83.2958984,17.9136585 82.5631866,18.2439024 81.7528879,18.2439024 C80.1361697,18.2439024 78.8230105,16.9243902 78.8230105,15.2956098 C78.8230105,13.6663415 80.1361697,12.3463415 81.7528879,12.3463415 C82.5631866,12.3463415 83.2958984,12.6770732 83.8268841,13.2121951 L82.9816712,14.06 C82.6684139,13.7434146 82.233927,13.5482927 81.7528879,13.5482927 C80.794689,13.5482927 80.0173647,14.3302439 80.0173647,15.2956098 C80.0173647,16.2614634 80.794689,17.042439 81.7528879,17.042439 C82.233927,17.042439 82.6684139,16.8468293 82.9816712,16.5307317 Z M86.7572464,12.3463415 C88.3754193,12.3463415 89.6880935,13.6663415 89.6880935,15.2956098 C89.6880935,16.9243902 88.3754193,18.2439024 86.7572464,18.2439024 C85.1385885,18.2439024 83.8268841,16.9243902 83.8268841,15.2956098 C83.8268841,13.6663415 85.1385885,12.3463415 86.7572464,12.3463415 Z M86.7572464,17.042439 C87.7169,17.042439 88.4947092,16.2614634 88.4947092,15.2956098 C88.4947092,14.3302439 87.7169,13.5482927 86.7572464,13.5482927 C85.7975927,13.5482927 85.0212383,14.3302439 85.0212383,15.2956098 C85.0212383,16.2614634 85.7975927,17.042439 86.7572464,17.042439 Z M98.7570385,14.78 L98.7570385,18.14 L97.5452273,18.14 L97.5452273,14.7868293 C97.5452273,14.1126829 97.0011488,13.5673171 96.3324462,13.5673171 C95.6622889,13.5673171 95.120635,14.1126829 95.120635,14.7868293 L95.120635,18.14 L93.9063992,18.14 L93.9063992,14.7868293 C93.9063992,14.1126829 93.3632905,13.5673171 92.6955578,13.5673171 C92.0249156,13.5673171 91.481322,14.1126829 91.481322,14.7868293 L91.481322,18.14 L90.2699957,18.14 L90.2699957,12.3463415 L91.481322,12.3463415 L91.481322,12.6765854 C91.8387069,12.4697561 92.2528272,12.3463415 92.6955578,12.3463415 C93.4214807,12.3463415 94.0693318,12.6697561 94.5144869,13.1765854 C94.9572175,12.6697561 95.6060384,12.3463415 96.3324462,12.3463415 C97.6688815,12.3463415 98.7531592,13.4370732 98.7570385,14.78 Z" id=".com" fill="#ddd"></path>
            <path d="M64.4379045,6.73121951 C61.3426699,6.73121951 58.8346717,9.25512195 58.8346717,12.3673171 C58.8346717,15.4780488 61.3426699,18.0004878 64.4379045,18.0004878 C67.5297446,18.0004878 70.0377428,15.4780488 70.0377428,12.3673171 C70.0377428,9.25512195 67.5297446,6.73121951 64.4379045,6.73121951 L64.4379045,6.73121951 Z M64.4379045,15.1839024 C62.8905297,15.1839024 61.6355607,13.922439 61.6355607,12.3673171 C61.6355607,10.8117073 62.8905297,9.5497561 64.4379045,9.5497561 C65.9838245,9.5497561 67.2373387,10.8117073 67.2373387,12.3673171 C67.2373387,13.922439 65.9838245,15.1839024 64.4379045,15.1839024 Z M64.7477674,5.68829268 L64.4975494,5.37268293 L64.2395728,5.70146341 C64.2395728,5.70146341 64.0019628,6.09609756 63.2998008,6.09609756 L61.9211777,6.09609756 L63.4089075,4.50878049 C63.4089075,4.50878049 63.8031462,4.0297561 64.3418906,4.0297561 L64.7783172,4.0297561 C65.2098946,4.0297561 65.6375927,4.52195122 65.6375927,4.52195122 L67.0482205,6.09609756 L65.7229384,6.09609756 C65.0527811,6.09609756 64.7477674,5.68829268 64.7477674,5.68829268 Z M67.3066821,5.7097561 L65.56437,4.0297561 L66.4997777,4.0297561 C67.3299581,4.0297561 67.6761899,4.46829268 67.6761899,4.46829268 L69.2259893,6.09609756 L68.3463472,6.09609756 C67.8017838,6.09609756 67.3066821,5.7097561 67.3066821,5.7097561 Z M35.3626786,5.70585366 C35.3626786,5.70585366 35.1265233,6.1004878 34.4229066,6.1004878 L33.0481628,6.1004878 L34.5324982,4.51121951 C34.5324982,4.51121951 34.926252,4.03219512 35.4654813,4.03219512 L35.9028778,4.03219512 C36.3320306,4.03219512 36.7616684,4.52731707 36.7616684,4.52731707 L38.1727811,6.1004878 L36.8465291,6.1004878 C36.1768567,6.1004878 35.8713581,5.6902439 35.8713581,5.6902439 L35.6216251,5.37560976 L35.3626786,5.70585366 Z M75.2438274,17.1687805 C75.2438274,16.9165854 75.3340222,16.6980488 75.513927,16.515122 C75.6938317,16.3297561 75.9110752,16.2390244 76.1651725,16.2390244 C76.4207245,16.2390244 76.6394227,16.3273171 76.8227219,16.5117073 C77.0040814,16.6946341 77.0942762,16.9121951 77.0942762,17.1687805 C77.0942762,17.4258537 77.0040814,17.6443902 76.8227219,17.8253659 C76.6394227,18.0092683 76.4207245,18.0985366 76.1651725,18.0985366 C75.9110752,18.0985366 75.6938317,18.0068293 75.513927,17.8243902 C75.3340222,17.6380488 75.2438274,17.4204878 75.2438274,17.1687805 Z M72.1073748,6.70731707 C72.8808197,6.70731707 73.5073344,7.33707317 73.5073344,8.11609756 L73.5073344,17.977561 L72.1073748,17.977561 C71.3339299,17.977561 70.7069303,17.3463415 70.7069303,16.5682927 L70.7069303,6.70731707 L72.1073748,6.70731707 Z M72.9011863,3.98536585 C73.2445086,4.03365854 73.5136383,4.31853659 73.5136383,4.67658537 L73.5136383,6.09756098 L72.9011863,6.09756098 L72.9011863,6.09804878 L71.3184125,6.09804878 L71.3184125,6.07707317 C70.9746053,6.02878049 70.7069303,5.74439024 70.7069303,5.38634146 L70.7069303,3.96536585 L72.9011863,3.96536585 L72.9011863,3.98536585 Z M51.5046442,6.73317073 L48.5674931,14.8365854 L48.568463,14.8370732 L46.4193044,20.8414634 C46.2141839,21.4092683 45.6822283,21.7634146 45.113419,21.7682927 C44.9514562,21.7692683 43.1155549,21.7682927 43.1155549,21.7682927 L44.7458508,17.2053659 L40.9630019,6.73317073 C40.9630019,6.73317073 42.8163602,6.73121951 42.9778381,6.73121951 C43.5485871,6.73414634 44.0824823,7.08780488 44.2900274,7.65902439 L46.2340655,13.0434146 L48.1785885,7.65902439 C48.3851638,7.08780488 48.9200289,6.73414634 49.4912628,6.73121951 C49.650801,6.73121951 51.5046442,6.73317073 51.5046442,6.73317073 Z M55.9237062,7.57170732 C56.7742531,7.04731707 57.7644566,6.7297561 58.8346717,6.7297561 L58.8346717,8.84341463 C58.7881195,9.18829268 58.5645721,9.47121951 58.2585885,9.60682927 C56.9885871,9.87560976 56.0337827,11.0078049 56.0337827,12.3639024 L56.0337827,17.977561 L54.6338231,17.977561 C53.8603781,17.977561 53.2338635,17.3463415 53.2338635,16.5682927 L53.2338635,6.70731707 L54.6338231,6.70731707 C55.2147554,6.70731707 55.7137365,7.06341463 55.9237062,7.57170732 Z M28.5883677,3.96585366 L29.401576,3.96585366 L29.401576,5.38634146 C29.401576,5.77756098 29.0844393,6.09609756 28.6955347,6.09609756 L28.6955347,6.09804878 L28.325057,6.09804878 L28.325057,17.977561 L26.9250974,17.977561 C26.3582277,17.977561 25.8767037,17.6346341 25.6560658,17.1478049 C24.8011546,17.6795122 23.8027075,18.0004878 22.7242488,18.0004878 C19.6294992,18.0004878 17.1224708,15.4780488 17.1224708,12.3673171 C17.1224708,9.25512195 19.6294992,6.73121951 22.7242488,6.73121951 C23.7488815,6.73121951 24.6978669,7.02926829 25.524168,7.51317073 L25.524168,6.09804878 L25.4082725,6.09804878 L25.4082725,6.09756098 L24.3496955,6.09756098 L24.3496955,4.67658537 C24.3496955,4.28585366 24.6668322,3.96585366 25.0571915,3.96585366 L25.0571915,3.96536585 L25.524168,3.96536585 L25.524168,2.25658537 L26.9250974,2.25658537 C27.6985424,2.25658537 28.325057,2.88682927 28.325057,3.66439024 L28.325057,3.96536585 L28.5587877,3.96536585 L28.5587877,3.96585366 L28.5883677,3.96585366 Z M22.7242488,15.1839024 C24.269199,15.1839024 25.524168,13.922439 25.524168,12.3673171 C25.524168,10.8117073 24.269199,9.5497561 22.7242488,9.5497561 C21.176874,9.5497561 19.9228749,10.8117073 19.9228749,12.3673171 C19.9228749,13.922439 21.176874,15.1839024 22.7242488,15.1839024 Z M38.934588,6.70731707 C39.707548,6.70731707 40.3340626,7.33707317 40.3340626,8.11609756 L40.3340626,17.977561 L38.934588,17.977561 C38.369658,17.977561 37.8861943,17.6346341 37.6655564,17.1478049 C36.8106451,17.6795122 35.8131678,18.0004878 34.7332544,18.0004878 C31.6399596,18.0004878 29.1324462,15.4780488 29.1324462,12.3673171 C29.1324462,9.25512195 31.6399596,6.73121951 34.7332544,6.73121951 C35.7583721,6.73121951 36.7073575,7.02926829 37.5346284,7.51317073 L37.5346284,6.70731707 L38.934588,6.70731707 Z M34.7332544,15.1839024 C36.2796594,15.1839024 37.5346284,13.922439 37.5346284,12.3673171 C37.5346284,10.8117073 36.2796594,9.5497561 34.7332544,9.5497561 C33.1863646,9.5497561 31.9338202,10.8117073 31.9338202,12.3673171 C31.9338202,13.922439 33.1863646,15.1839024 34.7332544,15.1839024 Z M14.2333266,6.70731707 C15.0082263,6.70731707 15.6347409,7.33707317 15.6347409,8.11609756 L15.6347409,17.977561 L14.2333266,17.977561 C13.6742156,17.977561 13.190267,17.6443902 12.9681743,17.1673171 C12.1132631,17.6946341 11.1094819,18.0004878 10.032478,18.0004878 C6.93869822,18.0004878 4.43021504,15.4780488 4.43021504,12.3673171 C4.43021504,9.25512195 6.93869822,6.73121951 10.032478,6.73121951 C11.0537163,6.73121951 12.0099755,7.00731707 12.8343368,7.48780488 L12.8343368,6.70731707 L14.2333266,6.70731707 Z M11.9740915,14.2917073 L12.0143397,14.2468293 C13.0428518,13.1634146 13.0326685,11.4512195 11.9740915,10.3863415 C10.9024217,9.30829268 9.16592871,9.30829268 8.09183432,10.3863415 C7.0221042,11.4653659 7.0221042,13.2121951 8.09183432,14.2917073 C8.09765334,14.2965854 8.10153269,14.3 8.10541204,14.3053659 L10.0339327,16.2443902 L11.9740915,14.2917073 Z M9.03112137,11.3312195 C9.58635301,10.7746341 10.4829672,10.7746341 11.0362592,11.3312195 C11.5890662,11.8882927 11.5890662,12.7902439 11.0362592,13.3478049 C10.4829672,13.904878 9.58635301,13.904878 9.03112137,13.3478049 C8.47782941,12.7902439 8.47782941,11.8882927 9.03112137,11.3312195 Z" id="adayroi" fill="#ddd"></path>
        </g>
    </g>
</svg>