<?xml version="1.0" encoding="UTF-8"?>
<svg width="32px" height="32px" viewBox="0 0 32 32" version="1.1" xmlns="http://www.w3.org/2000/svg" xmlns:xlink="http://www.w3.org/1999/xlink">
    <!-- Generator: Sketch 49.3 (51167) - http://www.bohemiancoding.com/sketch -->
    <title>vinid-32px</title>
    <desc>Created with Sketch.</desc>
    <defs>
        <rect id="path-1" x="0" y="0" width="28" height="18" rx="2"></rect>
        <polygon id="path-3" points="0.0512788018 0.0633559322 24.8988479 0.0633559322 24.8988479 21 0.0512788018 21"></polygon>
        <polygon id="path-5" points="0.0113939394 0.112666667 15.9809697 0.112666667 15.9809697 12.9088143 0.0113939394 12.9088143"></polygon>
        <polygon id="path-7" points="0 0.0624692308 5.99761111 0.0624692308 5.99761111 1.94008462 0 1.94008462"></polygon>
        <rect id="path-9" x="0" y="0" width="28" height="18" rx="2"></rect>
        <polygon id="path-11" points="0.0512788018 0.0633559322 24.8988479 0.0633559322 24.8988479 21 0.0512788018 21"></polygon>
        <polygon id="path-13" points="0.0113939394 0.112666667 15.9809697 0.112666667 15.9809697 12.9088143 0.0113939394 12.9088143"></polygon>
        <polygon id="path-15" points="0 0.0624692308 5.99761111 0.0624692308 5.99761111 1.94008462 0 1.94008462"></polygon>
    </defs>
    <g id="vinid-32px" stroke="none" stroke-width="1" fill="none" fill-rule="evenodd">
        <g id="Group-2" transform="translate(0.000000, 4.000000)">
            <g id="Group">
                <mask id="mask-2" fill="white">
                    <use xlink:href="#path-1"></use>
                </mask>
                <use id="Rectangle" fill="#A01E25" xlink:href="#path-1"></use>
                <g id="Page-1" mask="url(#mask-2)">
                    <g transform="translate(0.000000, -5.000000)">
                        <g id="Group-3" stroke-width="1" fill="none" transform="translate(3.000000, 2.000000)">
                            <mask id="mask-4" fill="white">
                                <use xlink:href="#path-3"></use>
                            </mask>
                            <g id="Clip-2"></g>
                            <path d="M7.94425115,12.4839661 C7.20980415,13.9076949 7.77144009,15.5167458 8.59943548,17.496678 C9.36326037,19.3229661 9.29217742,20.5798814 7.96579493,20.7297288 C6.84978111,20.8558475 4.74010369,20.0920169 4.29367512,19.7064237 C5.20093318,19.6842373 5.27524194,19.3431356 5.27524194,19.3431356 C5.87051843,18.6016102 3.74632488,16.8071186 2.00381336,16.2360847 C4.78330645,16.2286102 6.66740783,18.9377288 6.66740783,18.9377288 C5.42892857,16.7279831 5.27524194,15.8678136 5.34413594,14.5276102 C5.48192396,11.845661 9.60761521,10.9860847 9.60761521,10.9860847 C9.60761521,10.9860847 8.56107143,11.2881525 7.94425115,12.4839661 Z M24.198053,0.0633559322 C24.198053,0.0633559322 23.4972465,2.42140678 21.6539286,5.23433898 C19.9836521,7.78305085 18.0217857,9.09015254 14.875818,9.70330508 C11.9348041,10.2764746 8.56832949,10.9144237 7.28180876,11.6461017 C5.99528802,12.377661 4.22881336,13.6630508 5.55369816,17.3162203 C4.11360599,16.2434407 2.91832949,15.6750169 0.0512788018,15.9906102 C2.27743088,16.3770339 4.50945853,17.7527119 5.04252304,18.7944068 C5.09044931,18.8880169 5.64736175,19.7583898 2.9903341,19.335661 C2.9903341,19.335661 6.55220046,21.4687627 8.29943548,20.9052034 C10.0440207,20.3424746 9.00991935,18.0874068 8.3091129,16.3572203 C8.3091129,16.3572203 6.75531106,13.1384068 8.76786866,11.5645932 C9.76464286,10.7852203 12.5851498,10.3486102 15.0295046,10.0147458 C17.8520853,9.62915254 20.0122235,8.65022034 22.0859562,5.65445763 C23.9257028,2.99694915 24.8988594,0.350118644 24.8988594,0.350118644 L24.198053,0.0633559322 Z" id="Fill-1" fill="#FFFFFF" mask="url(#mask-4)"></path>
                        </g>
                        <path d="M25.40289,2 C25.40289,2 24.6541793,4.36585654 23.0889069,7.00967437 C22.119289,8.64771118 20.2372673,10.3071024 17.1921519,11.0996933 C14.6661068,11.7573148 10.8474245,12.1123171 9,14 C11.2580006,12.446673 14.4852832,12.2235724 17.1734537,11.5814063 C20.4251447,10.8047428 22.0923054,9.48076923 23.4695883,7.28763568 C25.1262242,4.64959887 26,2 26,2 L25.40289,2 Z" id="Fill-4" fill="#FFFFFF"></path>
                        <g id="Group-8" stroke-width="1" fill="none" transform="translate(11.000000, 0.000000)">
                            <mask id="mask-6" fill="white">
                                <use xlink:href="#path-5"></use>
                            </mask>
                            <g id="Clip-7"></g>
                            <path d="M15.2825455,0.112604762 C15.2825455,0.112604762 14.7127273,2.76621429 13.328,5.46736667 C11.8253333,8.39855714 9.61078788,9.82187143 6.48957576,10.6885381 C4.064,11.3620619 2.57709091,11.2529857 0.0113939394,12.9088143 C2.63018182,11.6345667 3.56715152,11.8183 6.5350303,11.0609571 C9.93684848,10.1928048 12.0147879,8.6657381 13.2067879,6.74792857 C14.7375758,4.2848619 15.9809697,0.291014286 15.9809697,0.291014286 L15.2825455,0.112604762 Z" id="Fill-6" fill="#FFFFFF" mask="url(#mask-6)"></path>
                        </g>
                        <path d="M22.5780539,0 C22.5780539,0 22.2158684,2.07615534 21.3209506,4.15329886 C20.3864055,6.32289162 18.7110844,7.6119108 16.1811121,8.47656379 C14.6711181,8.99261065 13.6386764,8.83922395 12,10 C13.6245085,9.17652097 14.6231818,9.30004282 16.2876373,8.8334047 C18.6608046,8.16814344 20.4751409,6.70827981 21.3742132,5.03167649 C22.3862021,3.14459194 23,0.169417087 23,0.169417087 L22.5780539,0 Z" id="Fill-9" fill="#FFFFFF"></path>
                        <g id="Group-13" stroke-width="1" fill="none" transform="translate(0.000000, 19.000000)">
                            <mask id="mask-8" fill="white">
                                <use xlink:href="#path-7"></use>
                            </mask>
                            <g id="Clip-12"></g>
                            <path d="M5.99761111,1.94008462 C5.17027778,1.78277692 4.55561111,1.45116154 3.98005556,1.10877692 C3.23116667,0.663315385 2.5735,0.312238462 1.5265,0.249392308 C1.25538889,0.233161538 1.02761111,0.225238462 0.829833333,0.225238462 C0.569611111,0.225238462 0.407277778,0.239007692 0.264166667,0.251238462 C0.198277778,0.256853846 0.135055556,0.262161538 0.0676111111,0.265623077 L-5.55555556e-05,0.125161538 C0.1835,0.102776923 0.578277778,0.0624692308 1.03838889,0.0624692308 C1.3995,0.0624692308 1.7315,0.0870076923 2.02516667,0.135161538 C3.11661111,0.314546154 3.69827778,0.685007692 4.31405556,1.07716154 C4.78427778,1.3767 5.26661111,1.68393077 5.99761111,1.94008462" id="Fill-11" fill="#FFFFFF" mask="url(#mask-8)"></path>
                        </g>
                        <path d="M5,22 C4.25640596,21.8738289 3.71976458,21.4920776 3.21111563,21.1047752 C2.5134579,20.573492 2.07586669,20.2694556 1.25403737,20.2286321 C1.04038567,20.2179926 0.86118621,20.2153327 0.706031533,20.2205368 C0.502189152,20.2274757 0.372873651,20.2264348 0.261023518,20.2435506 C0.204799388,20.2522242 0.146421992,20.2072374 0.0879249707,20.2130198 L0,20.0132971 C0.155752805,20.0011541 0.481374261,20.0154944 0.862502093,20.0025419 C1.14828815,19.9928275 1.41206307,20.0109841 1.64652966,20.0565491 C2.51776443,20.225394 2.9922004,20.6187101 3.4946288,21.0350399 C3.90745747,21.3771243 4.33177022,21.7288074 5,22" id="Fill-14" fill="#FFFFFF"></path>
                    </g>
                </g>
                <g id="Page-1" mask="url(#mask-2)" fill="#FEFEFE">
                    <g transform="translate(2.000000, 2.000000)">
                        <path d="M3.99973006,1.37524971e-07 C2.89698256,-0.000405445994 1.99946036,0.896339715 2.00000185,2.00155481 C1.99851275,3.0993342 2.89698256,3.99702572 4.00013617,4 C5.10166531,3.99797208 6.00054125,3.10082134 5.99999976,2.00141961 C5.9987814,0.900260356 5.10288367,0.00121688808 3.99973006,1.37524971e-07 Z M2.764994,3.14259644 L2.69473548,3.28833612 L2.64573049,3.13975736 L2.48856258,3.11812623 L2.6147301,3.02565319 L2.58467732,2.8704499 L2.71030336,2.96184138 L2.85109116,2.88369896 L2.80384602,3.03308889 L2.91999595,3.14408358 L2.764994,3.14259644 Z M3.35521977,3.41501337 L3.34087024,3.56872952 L3.24394326,3.4462433 L3.09124265,3.48423296 L3.17720443,3.35052559 L3.09422085,3.21479031 L3.24448475,3.25832294 L3.35021097,3.13908138 L3.35792722,3.29590701 L3.50385919,3.35728532 L3.35521977,3.41501337 Z M4.13104175,3.65674115 L3.99945931,3.57075744 L3.86259733,3.65092778 L3.90645814,3.49815799 L3.78841299,3.39649172 L3.94341494,3.384865 L4.0050096,3.24520907 L4.05902338,3.39108394 L4.21740965,3.40365703 L4.09746928,3.50167305 L4.13104175,3.65674115 Z M4.74089658,3.45895159 L4.64491721,3.58251936 L4.62962007,3.42569374 L4.48450035,3.36728971 L4.63029694,3.30726335 L4.64044991,3.15043772 L4.74143807,3.27116642 L4.89481555,3.22952651 L4.81250884,3.36242271 L4.89765838,3.49815799 L4.74089658,3.45895159 Z M4.34127584,0.713151159 C3.83362753,1.42251673 5.08731579,2.61385073 4.39989229,2.90397814 C4.15283679,3.0007774 3.54812612,2.80920679 3.15432641,2.59614024 C4.12806355,2.67658098 3.22932299,1.88569311 2.48206468,1.71183298 C3.30472568,1.6324738 3.76797168,2.17798364 3.77826002,2.19136789 C3.76946078,2.17135911 2.82753627,0.573630428 5.02626262,0.338932765 L5.02707486,0.341095877 C4.67321014,0.400851849 4.47570111,0.531720131 4.34127584,0.713151159 Z M5.35955065,3.13840541 L5.30716135,3.29171598 L5.24312997,3.14773383 L5.08095326,3.14746344 L5.19615558,3.04120056 L5.14512001,2.88951232 L5.28766765,2.96522125 L5.41640726,2.87017951 L5.38703135,3.02470683 L5.51536484,3.1215061 L5.35955065,3.13840541 Z" id="Fill-1"></path>
                        <path d="M0,4.00146052 C0.142956522,4.32460064 0.2,4.63842994 0.32,4.98895482 C0.365217391,5.12003651 0.608,5.91328161 0.613043478,5.99616613 L1.32504348,6 C1.38243478,5.70333181 1.55913043,5.2934733 1.6453913,4.98256504 C1.7346087,4.66709265 1.86521739,4.25139206 2,4 L1.60208696,4.00164309 L1.60052174,4.14477408 C1.60278261,4.36567777 1.23704348,5.26718393 1.17947826,5.56366956 L1.15634783,5.56348699 C1.14973913,5.47749886 0.988521739,4.97197627 0.954434783,4.85257873 C0.911826087,4.71528982 0.758782609,4.26362392 0.759304348,4.13144683 L0.75773913,4.10168873 C0.75773913,4.05476951 0.767478261,4.04691921 0.770086957,4.00273848 L0,4.00146052 Z" id="Fill-3"></path>
                        <path d="M7.03628353,5.13904762 L7.03537644,5.87809524 C7.03628353,5.93061224 7.01904885,5.96721088 7,5.99986395 L7.42024103,6 C7.39860049,5.95537415 7.38201374,5.92421769 7.38434625,5.85945578 L7.38512375,5.6385034 L7.7881301,5.63918367 C7.90022029,5.63768707 7.99740832,5.5847619 8,5.46761905 L7.99740832,5.17877551 C7.99701957,5.05877551 7.88039394,5 7.77050667,5 L7.00012958,5.00081633 C7.01088506,5.05061224 7.03291434,5.05319728 7.03628353,5.13904762 M7.59453155,5.47714286 L7.38356874,5.47918367 L7.38421666,5.16829932 L7.5852015,5.16884354 C7.62900091,5.17047619 7.6493456,5.19197279 7.64973435,5.24027211 L7.64986394,5.35972789 C7.64960477,5.41197279 7.64027472,5.48027211 7.59453155,5.47714286" id="Fill-5"></path>
                        <path d="M3.00222887,4.22847526 L3.00000666,4.77627512 C2.99922235,4.92647395 3.06771863,4.9973148 3.20575692,4.99447575 L3.54640825,4.99528691 C3.65660359,4.99555729 3.63176716,4.94580647 3.68327008,4.92566279 L3.68431583,4.9650038 C3.68496942,5.01962155 3.93921609,4.99352941 4,4.99528691 C3.97777793,4.9648686 3.96352965,4.94039877 3.96248391,4.88551063 L3.96039242,4.51859829 C3.96117673,4.46289899 3.98013085,4.45221879 3.98928112,4.40909239 L3.41778165,4.40733489 L3.41542873,4.58849279 C3.43843511,4.57659585 3.45778139,4.5667268 3.49137594,4.56916027 L3.6111137,4.56929546 L3.61242088,4.78627936 C3.61150586,4.81831998 3.57725772,4.83521903 3.54797687,4.83670615 L3.42653977,4.8357598 C3.37229176,4.83467826 3.35229189,4.79520206 3.35333764,4.738962 L3.35124615,4.24834855 C3.35216118,4.21306332 3.37778192,4.17007212 3.40680134,4.16831462 L3.83255013,4.16872019 C3.87620997,4.16899058 3.90143856,4.18183386 3.9328109,4.18994541 C3.93307234,4.14316882 3.92758218,4.00243346 3.89019681,4.00324462 L3.23216198,4 C3.08758778,4.00310943 3.00000666,4.06746104 3.00222887,4.22847526" id="Fill-7"></path>
                        <path d="M6,5.00285557 C6.23430648,5.25672941 5.77847388,6.00012967 6.45758677,5.99904183 L7.55544418,5.99999369 C7.68274652,6.00080957 7.83235184,5.92234936 7.87821075,5.86401413 C7.95113394,5.78174649 7.92557324,5.69295184 7.92682621,5.57968087 L7.92782859,5.27019139 C7.9273274,5.2228705 7.91930836,5.15787227 7.92632502,5.11095932 C7.93434407,5.05072038 7.97844882,5.04405738 8,5.00176773 L7.55343942,5.00190371 C7.57874953,5.05167223 7.62510964,5.05561564 7.62761559,5.1410108 L7.62510964,5.7790269 C7.62661321,5.81397365 7.54968049,5.84130554 7.48452575,5.83926585 L7.02618719,5.83953781 L6.79413607,5.8302912 C6.77032953,5.80907839 6.74151109,5.7969762 6.73900514,5.75781409 L6.73900514,5.16983847 C6.7410099,5.07628453 6.78336048,5.06105482 6.81568726,5 L6,5.00285557 Z" id="Fill-9"></path>
                        <path d="M4,4.00244366 C4.03915292,4.04439316 4.07165723,4.07778985 4.06968727,4.14241108 L4.07387343,4.83939723 C4.06697858,4.90727668 4.05072642,4.95845778 4.00073873,4.99864241 L4.80300419,5 C4.7623738,4.95682867 4.73134696,4.92193864 4.73380941,4.8579962 L4.73282443,4.58131958 L4.90913568,4.5809123 C4.96281704,4.58064078 5.0588525,4.74843877 5.08569318,4.78577247 C5.1319872,4.84767852 5.21078552,4.94270975 5.23467126,5 L6,4.99850665 L5.63875893,4.58118382 C5.82196503,4.58118382 5.89953213,4.53081727 5.8987934,4.43062721 L5.89805467,4.21015477 C5.90076336,4.068694 5.6985964,4.00217214 5.44200936,4 L4,4.00244366 Z M4.72913076,4.16929134 L5.15217927,4.17119196 C5.19083969,4.171735 5.23910367,4.19698615 5.23417877,4.22128699 L5.23836493,4.35025794 C5.2376262,4.37822427 5.22950012,4.38080369 5.22186654,4.39953842 C5.18074366,4.40510453 5.17901995,4.40972034 5.13371091,4.40904154 L4.73011574,4.40836275 L4.72913076,4.16929134 Z" id="Fill-11"></path>
                        <path d="M6.00002692,5.74075585 C5.99833558,5.89192496 6.07639749,5.99891245 6.21873037,6 L6.80666667,5.99864057 C6.90541498,5.99986406 6.99947959,5.88553562 7,5.76916803 L6.99921938,5.33020663 C7.00039031,5.13852637 6.94236429,5.00203915 6.77205922,5 L6.28352176,5.00135943 C6.08472409,4.99796085 5.99755496,5.08428494 6.00080754,5.29812398 L6.00002692,5.74075585 Z M6.3463616,5.22947254 C6.34584119,5.18868951 6.39645132,5.16992931 6.43847465,5.16816204 L6.55790938,5.1702012 C6.61502468,5.17006525 6.64937192,5.19045677 6.64950202,5.24959217 L6.65197398,5.75842849 C6.65028264,5.79554105 6.63506057,5.80628059 6.62322118,5.82966286 L6.50313594,5.84189777 L6.49480933,5.83890701 L6.37342306,5.82544861 C6.36054285,5.80804785 6.34818304,5.79717238 6.34753253,5.75829255 L6.3463616,5.22947254 Z" id="Fill-13"></path>
                        <path d="M2,4 C2.04676923,4.04206242 2.08123077,4.07530529 2.08984615,4.14192673 L2.08369231,4.88833107 C2.08707692,4.94287653 2.04676923,4.95590231 2.01661538,4.9972863 L3,5 C2.96338462,4.96770692 2.91323077,4.91438263 2.91046154,4.87042062 L2.90984615,4.13052917 C2.90953846,4.06770692 2.97323077,4.05088195 2.99230769,4.00013569 L2,4 Z" id="Fill-15"></path>
                        <path d="M2,5.00040833 C2.0270673,5.02191371 2.08567172,5.09228256 2.08368513,5.13039336 L2.08517507,5.85041514 C2.08467842,5.9290867 2.04072511,5.94786988 2.0166377,5.99904723 L2.43531165,5.9972778 C2.29550534,5.84565129 2.37000248,5.42874643 2.37049913,5.19967334 C2.5026074,5.28501429 3.00347653,5.99986389 3.10454433,5.99768613 L3.91780482,6 L3.91432828,5.14999319 C3.91283834,5.0941881 3.96175813,5.03239417 4,5.00040833 L3.5599702,5 C3.59448721,5.0709133 3.63695058,5.0573023 3.63372237,5.17000136 C3.63049416,5.24023411 3.63645394,5.31196407 3.63372237,5.38001906 L3.63347405,5.78930176 L2.95877825,5.00040833 L2,5.00040833 Z" id="Fill-17"></path>
                    </g>
                </g>
            </g>
        </g>
        <g id="Group-2-Copy" transform="translate(4.000000, 9.000000)">
            <g id="Group">
                <mask id="mask-10" fill="white">
                    <use xlink:href="#path-9"></use>
                </mask>
                <use id="Rectangle" fill="#222C45" xlink:href="#path-9"></use>
                <g id="Page-1" mask="url(#mask-10)">
                    <g transform="translate(0.000000, -5.000000)">
                        <g id="Group-3" stroke-width="1" fill="none" transform="translate(3.000000, 2.000000)">
                            <mask id="mask-12" fill="white">
                                <use xlink:href="#path-11"></use>
                            </mask>
                            <g id="Clip-2"></g>
                            <path d="M7.94425115,12.4839661 C7.20980415,13.9076949 7.77144009,15.5167458 8.59943548,17.496678 C9.36326037,19.3229661 9.29217742,20.5798814 7.96579493,20.7297288 C6.84978111,20.8558475 4.74010369,20.0920169 4.29367512,19.7064237 C5.20093318,19.6842373 5.27524194,19.3431356 5.27524194,19.3431356 C5.87051843,18.6016102 3.74632488,16.8071186 2.00381336,16.2360847 C4.78330645,16.2286102 6.66740783,18.9377288 6.66740783,18.9377288 C5.42892857,16.7279831 5.27524194,15.8678136 5.34413594,14.5276102 C5.48192396,11.845661 9.60761521,10.9860847 9.60761521,10.9860847 C9.60761521,10.9860847 8.56107143,11.2881525 7.94425115,12.4839661 Z M24.198053,0.0633559322 C24.198053,0.0633559322 23.4972465,2.42140678 21.6539286,5.23433898 C19.9836521,7.78305085 18.0217857,9.09015254 14.875818,9.70330508 C11.9348041,10.2764746 8.56832949,10.9144237 7.28180876,11.6461017 C5.99528802,12.377661 4.22881336,13.6630508 5.55369816,17.3162203 C4.11360599,16.2434407 2.91832949,15.6750169 0.0512788018,15.9906102 C2.27743088,16.3770339 4.50945853,17.7527119 5.04252304,18.7944068 C5.09044931,18.8880169 5.64736175,19.7583898 2.9903341,19.335661 C2.9903341,19.335661 6.55220046,21.4687627 8.29943548,20.9052034 C10.0440207,20.3424746 9.00991935,18.0874068 8.3091129,16.3572203 C8.3091129,16.3572203 6.75531106,13.1384068 8.76786866,11.5645932 C9.76464286,10.7852203 12.5851498,10.3486102 15.0295046,10.0147458 C17.8520853,9.62915254 20.0122235,8.65022034 22.0859562,5.65445763 C23.9257028,2.99694915 24.8988594,0.350118644 24.8988594,0.350118644 L24.198053,0.0633559322 Z" id="Fill-1" fill="#FFFFFF" mask="url(#mask-12)"></path>
                        </g>
                        <path d="M25.40289,2 C25.40289,2 24.6541793,4.36585654 23.0889069,7.00967437 C22.119289,8.64771118 20.2372673,10.3071024 17.1921519,11.0996933 C14.6661068,11.7573148 10.8474245,12.1123171 9,14 C11.2580006,12.446673 14.4852832,12.2235724 17.1734537,11.5814063 C20.4251447,10.8047428 22.0923054,9.48076923 23.4695883,7.28763568 C25.1262242,4.64959887 26,2 26,2 L25.40289,2 Z" id="Fill-4" fill="#FFFFFF"></path>
                        <g id="Group-8" stroke-width="1" fill="none" transform="translate(11.000000, 0.000000)">
                            <mask id="mask-14" fill="white">
                                <use xlink:href="#path-13"></use>
                            </mask>
                            <g id="Clip-7"></g>
                            <path d="M15.2825455,0.112604762 C15.2825455,0.112604762 14.7127273,2.76621429 13.328,5.46736667 C11.8253333,8.39855714 9.61078788,9.82187143 6.48957576,10.6885381 C4.064,11.3620619 2.57709091,11.2529857 0.0113939394,12.9088143 C2.63018182,11.6345667 3.56715152,11.8183 6.5350303,11.0609571 C9.93684848,10.1928048 12.0147879,8.6657381 13.2067879,6.74792857 C14.7375758,4.2848619 15.9809697,0.291014286 15.9809697,0.291014286 L15.2825455,0.112604762 Z" id="Fill-6" fill="#FFFFFF" mask="url(#mask-14)"></path>
                        </g>
                        <path d="M22.5780539,0 C22.5780539,0 22.2158684,2.07615534 21.3209506,4.15329886 C20.3864055,6.32289162 18.7110844,7.6119108 16.1811121,8.47656379 C14.6711181,8.99261065 13.6386764,8.83922395 12,10 C13.6245085,9.17652097 14.6231818,9.30004282 16.2876373,8.8334047 C18.6608046,8.16814344 20.4751409,6.70827981 21.3742132,5.03167649 C22.3862021,3.14459194 23,0.169417087 23,0.169417087 L22.5780539,0 Z" id="Fill-9" fill="#FFFFFF"></path>
                        <g id="Group-13" stroke-width="1" fill="none" transform="translate(0.000000, 19.000000)">
                            <mask id="mask-16" fill="white">
                                <use xlink:href="#path-15"></use>
                            </mask>
                            <g id="Clip-12"></g>
                            <path d="M5.99761111,1.94008462 C5.17027778,1.78277692 4.55561111,1.45116154 3.98005556,1.10877692 C3.23116667,0.663315385 2.5735,0.312238462 1.5265,0.249392308 C1.25538889,0.233161538 1.02761111,0.225238462 0.829833333,0.225238462 C0.569611111,0.225238462 0.407277778,0.239007692 0.264166667,0.251238462 C0.198277778,0.256853846 0.135055556,0.262161538 0.0676111111,0.265623077 L-5.55555556e-05,0.125161538 C0.1835,0.102776923 0.578277778,0.0624692308 1.03838889,0.0624692308 C1.3995,0.0624692308 1.7315,0.0870076923 2.02516667,0.135161538 C3.11661111,0.314546154 3.69827778,0.685007692 4.31405556,1.07716154 C4.78427778,1.3767 5.26661111,1.68393077 5.99761111,1.94008462" id="Fill-11" fill="#FFFFFF" mask="url(#mask-16)"></path>
                        </g>
                        <path d="M5,22 C4.25640596,21.8738289 3.71976458,21.4920776 3.21111563,21.1047752 C2.5134579,20.573492 2.07586669,20.2694556 1.25403737,20.2286321 C1.04038567,20.2179926 0.86118621,20.2153327 0.706031533,20.2205368 C0.502189152,20.2274757 0.372873651,20.2264348 0.261023518,20.2435506 C0.204799388,20.2522242 0.146421992,20.2072374 0.0879249707,20.2130198 L0,20.0132971 C0.155752805,20.0011541 0.481374261,20.0154944 0.862502093,20.0025419 C1.14828815,19.9928275 1.41206307,20.0109841 1.64652966,20.0565491 C2.51776443,20.225394 2.9922004,20.6187101 3.4946288,21.0350399 C3.90745747,21.3771243 4.33177022,21.7288074 5,22" id="Fill-14" fill="#FFFFFF"></path>
                    </g>
                </g>
                <g id="Page-1" mask="url(#mask-10)" fill="#FEFEFE">
                    <g transform="translate(2.000000, 2.000000)">
                        <path d="M3.99973006,1.37524971e-07 C2.89698256,-0.000405445994 1.99946036,0.896339715 2.00000185,2.00155481 C1.99851275,3.0993342 2.89698256,3.99702572 4.00013617,4 C5.10166531,3.99797208 6.00054125,3.10082134 5.99999976,2.00141961 C5.9987814,0.900260356 5.10288367,0.00121688808 3.99973006,1.37524971e-07 Z M2.764994,3.14259644 L2.69473548,3.28833612 L2.64573049,3.13975736 L2.48856258,3.11812623 L2.6147301,3.02565319 L2.58467732,2.8704499 L2.71030336,2.96184138 L2.85109116,2.88369896 L2.80384602,3.03308889 L2.91999595,3.14408358 L2.764994,3.14259644 Z M3.35521977,3.41501337 L3.34087024,3.56872952 L3.24394326,3.4462433 L3.09124265,3.48423296 L3.17720443,3.35052559 L3.09422085,3.21479031 L3.24448475,3.25832294 L3.35021097,3.13908138 L3.35792722,3.29590701 L3.50385919,3.35728532 L3.35521977,3.41501337 Z M4.13104175,3.65674115 L3.99945931,3.57075744 L3.86259733,3.65092778 L3.90645814,3.49815799 L3.78841299,3.39649172 L3.94341494,3.384865 L4.0050096,3.24520907 L4.05902338,3.39108394 L4.21740965,3.40365703 L4.09746928,3.50167305 L4.13104175,3.65674115 Z M4.74089658,3.45895159 L4.64491721,3.58251936 L4.62962007,3.42569374 L4.48450035,3.36728971 L4.63029694,3.30726335 L4.64044991,3.15043772 L4.74143807,3.27116642 L4.89481555,3.22952651 L4.81250884,3.36242271 L4.89765838,3.49815799 L4.74089658,3.45895159 Z M4.34127584,0.713151159 C3.83362753,1.42251673 5.08731579,2.61385073 4.39989229,2.90397814 C4.15283679,3.0007774 3.54812612,2.80920679 3.15432641,2.59614024 C4.12806355,2.67658098 3.22932299,1.88569311 2.48206468,1.71183298 C3.30472568,1.6324738 3.76797168,2.17798364 3.77826002,2.19136789 C3.76946078,2.17135911 2.82753627,0.573630428 5.02626262,0.338932765 L5.02707486,0.341095877 C4.67321014,0.400851849 4.47570111,0.531720131 4.34127584,0.713151159 Z M5.35955065,3.13840541 L5.30716135,3.29171598 L5.24312997,3.14773383 L5.08095326,3.14746344 L5.19615558,3.04120056 L5.14512001,2.88951232 L5.28766765,2.96522125 L5.41640726,2.87017951 L5.38703135,3.02470683 L5.51536484,3.1215061 L5.35955065,3.13840541 Z" id="Fill-1"></path>
                        <path d="M0,4.00146052 C0.142956522,4.32460064 0.2,4.63842994 0.32,4.98895482 C0.365217391,5.12003651 0.608,5.91328161 0.613043478,5.99616613 L1.32504348,6 C1.38243478,5.70333181 1.55913043,5.2934733 1.6453913,4.98256504 C1.7346087,4.66709265 1.86521739,4.25139206 2,4 L1.60208696,4.00164309 L1.60052174,4.14477408 C1.60278261,4.36567777 1.23704348,5.26718393 1.17947826,5.56366956 L1.15634783,5.56348699 C1.14973913,5.47749886 0.988521739,4.97197627 0.954434783,4.85257873 C0.911826087,4.71528982 0.758782609,4.26362392 0.759304348,4.13144683 L0.75773913,4.10168873 C0.75773913,4.05476951 0.767478261,4.04691921 0.770086957,4.00273848 L0,4.00146052 Z" id="Fill-3"></path>
                        <path d="M7.03628353,5.13904762 L7.03537644,5.87809524 C7.03628353,5.93061224 7.01904885,5.96721088 7,5.99986395 L7.42024103,6 C7.39860049,5.95537415 7.38201374,5.92421769 7.38434625,5.85945578 L7.38512375,5.6385034 L7.7881301,5.63918367 C7.90022029,5.63768707 7.99740832,5.5847619 8,5.46761905 L7.99740832,5.17877551 C7.99701957,5.05877551 7.88039394,5 7.77050667,5 L7.00012958,5.00081633 C7.01088506,5.05061224 7.03291434,5.05319728 7.03628353,5.13904762 M7.59453155,5.47714286 L7.38356874,5.47918367 L7.38421666,5.16829932 L7.5852015,5.16884354 C7.62900091,5.17047619 7.6493456,5.19197279 7.64973435,5.24027211 L7.64986394,5.35972789 C7.64960477,5.41197279 7.64027472,5.48027211 7.59453155,5.47714286" id="Fill-5"></path>
                        <path d="M3.00222887,4.22847526 L3.00000666,4.77627512 C2.99922235,4.92647395 3.06771863,4.9973148 3.20575692,4.99447575 L3.54640825,4.99528691 C3.65660359,4.99555729 3.63176716,4.94580647 3.68327008,4.92566279 L3.68431583,4.9650038 C3.68496942,5.01962155 3.93921609,4.99352941 4,4.99528691 C3.97777793,4.9648686 3.96352965,4.94039877 3.96248391,4.88551063 L3.96039242,4.51859829 C3.96117673,4.46289899 3.98013085,4.45221879 3.98928112,4.40909239 L3.41778165,4.40733489 L3.41542873,4.58849279 C3.43843511,4.57659585 3.45778139,4.5667268 3.49137594,4.56916027 L3.6111137,4.56929546 L3.61242088,4.78627936 C3.61150586,4.81831998 3.57725772,4.83521903 3.54797687,4.83670615 L3.42653977,4.8357598 C3.37229176,4.83467826 3.35229189,4.79520206 3.35333764,4.738962 L3.35124615,4.24834855 C3.35216118,4.21306332 3.37778192,4.17007212 3.40680134,4.16831462 L3.83255013,4.16872019 C3.87620997,4.16899058 3.90143856,4.18183386 3.9328109,4.18994541 C3.93307234,4.14316882 3.92758218,4.00243346 3.89019681,4.00324462 L3.23216198,4 C3.08758778,4.00310943 3.00000666,4.06746104 3.00222887,4.22847526" id="Fill-7"></path>
                        <path d="M6,5.00285557 C6.23430648,5.25672941 5.77847388,6.00012967 6.45758677,5.99904183 L7.55544418,5.99999369 C7.68274652,6.00080957 7.83235184,5.92234936 7.87821075,5.86401413 C7.95113394,5.78174649 7.92557324,5.69295184 7.92682621,5.57968087 L7.92782859,5.27019139 C7.9273274,5.2228705 7.91930836,5.15787227 7.92632502,5.11095932 C7.93434407,5.05072038 7.97844882,5.04405738 8,5.00176773 L7.55343942,5.00190371 C7.57874953,5.05167223 7.62510964,5.05561564 7.62761559,5.1410108 L7.62510964,5.7790269 C7.62661321,5.81397365 7.54968049,5.84130554 7.48452575,5.83926585 L7.02618719,5.83953781 L6.79413607,5.8302912 C6.77032953,5.80907839 6.74151109,5.7969762 6.73900514,5.75781409 L6.73900514,5.16983847 C6.7410099,5.07628453 6.78336048,5.06105482 6.81568726,5 L6,5.00285557 Z" id="Fill-9"></path>
                        <path d="M4,4.00244366 C4.03915292,4.04439316 4.07165723,4.07778985 4.06968727,4.14241108 L4.07387343,4.83939723 C4.06697858,4.90727668 4.05072642,4.95845778 4.00073873,4.99864241 L4.80300419,5 C4.7623738,4.95682867 4.73134696,4.92193864 4.73380941,4.8579962 L4.73282443,4.58131958 L4.90913568,4.5809123 C4.96281704,4.58064078 5.0588525,4.74843877 5.08569318,4.78577247 C5.1319872,4.84767852 5.21078552,4.94270975 5.23467126,5 L6,4.99850665 L5.63875893,4.58118382 C5.82196503,4.58118382 5.89953213,4.53081727 5.8987934,4.43062721 L5.89805467,4.21015477 C5.90076336,4.068694 5.6985964,4.00217214 5.44200936,4 L4,4.00244366 Z M4.72913076,4.16929134 L5.15217927,4.17119196 C5.19083969,4.171735 5.23910367,4.19698615 5.23417877,4.22128699 L5.23836493,4.35025794 C5.2376262,4.37822427 5.22950012,4.38080369 5.22186654,4.39953842 C5.18074366,4.40510453 5.17901995,4.40972034 5.13371091,4.40904154 L4.73011574,4.40836275 L4.72913076,4.16929134 Z" id="Fill-11"></path>
                        <path d="M6.00002692,5.74075585 C5.99833558,5.89192496 6.07639749,5.99891245 6.21873037,6 L6.80666667,5.99864057 C6.90541498,5.99986406 6.99947959,5.88553562 7,5.76916803 L6.99921938,5.33020663 C7.00039031,5.13852637 6.94236429,5.00203915 6.77205922,5 L6.28352176,5.00135943 C6.08472409,4.99796085 5.99755496,5.08428494 6.00080754,5.29812398 L6.00002692,5.74075585 Z M6.3463616,5.22947254 C6.34584119,5.18868951 6.39645132,5.16992931 6.43847465,5.16816204 L6.55790938,5.1702012 C6.61502468,5.17006525 6.64937192,5.19045677 6.64950202,5.24959217 L6.65197398,5.75842849 C6.65028264,5.79554105 6.63506057,5.80628059 6.62322118,5.82966286 L6.50313594,5.84189777 L6.49480933,5.83890701 L6.37342306,5.82544861 C6.36054285,5.80804785 6.34818304,5.79717238 6.34753253,5.75829255 L6.3463616,5.22947254 Z" id="Fill-13"></path>
                        <path d="M2,4 C2.04676923,4.04206242 2.08123077,4.07530529 2.08984615,4.14192673 L2.08369231,4.88833107 C2.08707692,4.94287653 2.04676923,4.95590231 2.01661538,4.9972863 L3,5 C2.96338462,4.96770692 2.91323077,4.91438263 2.91046154,4.87042062 L2.90984615,4.13052917 C2.90953846,4.06770692 2.97323077,4.05088195 2.99230769,4.00013569 L2,4 Z" id="Fill-15"></path>
                        <path d="M2,5.00040833 C2.0270673,5.02191371 2.08567172,5.09228256 2.08368513,5.13039336 L2.08517507,5.85041514 C2.08467842,5.9290867 2.04072511,5.94786988 2.0166377,5.99904723 L2.43531165,5.9972778 C2.29550534,5.84565129 2.37000248,5.42874643 2.37049913,5.19967334 C2.5026074,5.28501429 3.00347653,5.99986389 3.10454433,5.99768613 L3.91780482,6 L3.91432828,5.14999319 C3.91283834,5.0941881 3.96175813,5.03239417 4,5.00040833 L3.5599702,5 C3.59448721,5.0709133 3.63695058,5.0573023 3.63372237,5.17000136 C3.63049416,5.24023411 3.63645394,5.31196407 3.63372237,5.38001906 L3.63347405,5.78930176 L2.95877825,5.00040833 L2,5.00040833 Z" id="Fill-17"></path>
                    </g>
                </g>
            </g>
        </g>
    </g>
</svg>