<?xml version="1.0" standalone="no"?>
<!DOCTYPE svg PUBLIC "-//W3C//DTD SVG 1.1//EN" "http://www.w3.org/Graphics/SVG/1.1/DTD/svg11.dtd" >
<svg xmlns="http://www.w3.org/2000/svg">
<metadata>Generated by IcoMoon</metadata>
<defs>
<font id="icomoon" horiz-adv-x="1024">
<font-face units-per-em="1024" ascent="960" descent="-64" />
<missing-glyph horiz-adv-x="1024" />
<glyph unicode="&#x20;" horiz-adv-x="512" d="" />
<glyph unicode="&#xe900;" glyph-name="google-calendar" d="M170.667 832h682.667c47.13 0 85.333-38.205 85.333-85.333v-512l-170.667-170.667h-597.333c-47.128 0-85.333 38.204-85.333 85.333v597.333c0 47.128 38.205 85.333 85.333 85.333zM397.333 541.333c-72.5 0-85.333-58.667-85.333-80h54.667c0 4.335 5 33.335 30.667 33.335 29.833 0 29.333-34.334 29.333-38.669 0-38.332-16.5-42.667-29.333-42.667h-30.667v-46.665h30.667c8.5 0 33.335-4.002 33.335-46.669 0-8.499-3.503-42.667-33.335-42.667-25.667 0-30.667 34.334-30.667 38.665h-60c0-25.664 18.167-85.333 90.667-85.333 42.667 0 93.333 25.335 93.333 89.335 0 51.166-29.833 67.665-42.667 72 4.335 0 38.665 21.333 38.665 64 0 12.834-3.998 85.333-89.331 85.333zM696 541.333l-112-46.665v-50.671l60.002 21.333v-230.665h55.996v306.667h-3.998zM682.667 661.333c23.565 0 42.667 19.103 42.667 42.667s-19.102 42.667-42.667 42.667c-23.565 0-42.667-19.103-42.667-42.667s19.102-42.667 42.667-42.667zM341.333 661.333c23.564 0 42.667 19.103 42.667 42.667s-19.103 42.667-42.667 42.667c-23.564 0-42.667-19.103-42.667-42.667s19.103-42.667 42.667-42.667z" />
<glyph unicode="&#xe901;" glyph-name="heart-16px" d="M512 26.502l-16.75 10.246c-17.5 10.752-431.25 266.253-431.25 539.251 0 12.25 1.25 23.75 3.5 34.75 15.5 124.75 124.25 221.25 252.5 221.25 74.75 0 143.75-32.25 192-87.75 48.25 55.5 117.25 87.75 192 87.75 128 0 236.25-95.75 252.749-223.25 2.253-10.25 3.251-21 3.251-32.75 0-272.998-413.75-528.499-431.25-539.251l-16.75-10.246z" />
<glyph unicode="&#xe902;" glyph-name="shop" d="M140 874.667l-9.333-29.333-85.333-256-2.667-6.667v-6.667c0-37.5 16.667-71.167 42.667-94.667v-374.667h85.333v341.333h298.667v-341.333h85.333v341.333h298.667v-341.333h85.333v374.667c26 23.5 42.667 57.167 42.667 94.667v6.667l-2.667 6.667-85.333 256-9.333 29.333h-744zM201.333 789.333h621.333l72-216c-1.5-22.5-18.333-40-41.333-40-24 0-42.667 18.667-42.667 42.667h-85.333c0-24-18.667-42.667-42.667-42.667s-42.667 18.667-42.667 42.667h-85.333c0-24-18.667-42.667-42.667-42.667s-42.667 18.667-42.667 42.667h-85.333c0-24-18.667-42.667-42.667-42.667s-42.667 18.667-42.667 42.667h-85.333c0-24-18.667-42.667-42.667-42.667-23 0-39.833 17.5-41.333 40l72 216zM384 234.667c-23.564 0-42.667 19.103-42.667 42.667s19.103 42.667 42.667 42.667c23.564 0 42.667-19.103 42.667-42.667s-19.103-42.667-42.667-42.667zM640 234.667c-23.564 0-42.667 19.103-42.667 42.667s19.103 42.667 42.667 42.667c23.564 0 42.667-19.103 42.667-42.667s-19.103-42.667-42.667-42.667zM85.333 106.667h853.333c0-47.128-38.205-85.333-85.333-85.333h-682.667c-47.128 0-85.333 38.205-85.333 85.333z" />
<glyph unicode="&#xe903;" glyph-name="size" d="M900.566 322.96l-344.953 165.284c72.35 16.893 127.736 67.902 127.736 144.085 0 84.795-68.192 157.003-149.025 157.003-89.481-4.306-149.025-72.208-149.025-131.499h85.157c0 12.752 21.289 42.398 63.868 42.398 34.096 0 63.868-29.645 63.868-72.043 0-29.645-38.254-55.15-85.157-55.15h-42.579v-84.795l-349.111-165.284c-34.096-38.257-46.903-89.101-25.614-135.805 21.289-50.844 68.192-80.489 119.253-80.489h596.1c51.061 0 97.964 29.645 119.253 80.489 16.965 46.704 8.482 97.548-29.772 135.805zM849.339 216.967c0-4.306-12.641-25.505-38.254-25.505h-596.1c-25.614 0-38.254 21.199-38.254 25.505-4.324 4.14-8.649 25.339 8.482 42.398l327.822 144.085 332.146-144.085c12.807-17.058 8.482-33.951 4.158-42.398z" />
<glyph unicode="&#xe904;" glyph-name="sort" d="M426.793 831.276c23.494 0 42.54-19.083 42.54-42.54v-256.253c0-23.494-19.083-42.54-42.54-42.54h-256.253c-23.494 0-42.54 19.083-42.54 42.54v256.253c0 23.494 19.083 42.54 42.54 42.54h256.253zM384 745.943h-170.667v-170.667h170.667v170.667zM128 362.793c0 23.494 19.083 42.54 42.54 42.54h256.253c23.494 0 42.54-19.083 42.54-42.54v-256.253c0-23.494-19.083-42.54-42.54-42.54h-256.253c-23.494 0-42.54 19.083-42.54 42.54v256.253zM213.333 320v-170.667h170.667v170.667h-170.667zM811.449 789.296v-580.522l47.714 47.714c16.733 16.733 43.69 16.907 60.468 0.129 16.662-16.662 16.564-43.776-0.129-60.468l-120.422-120.422c-8.438-8.438-19.348-12.58-30.267-12.573-10.934-0.075-21.834 4.076-30.201 12.444-0.086 0.086-120.551 120.551-120.551 120.551-16.733 16.733-16.907 43.69-0.129 60.468 16.662 16.662 43.776 16.564 60.468-0.129l47.714-47.714v580.522c0 23.585 18.938 42.704 42.667 42.704 23.564 0 42.667-18.971 42.667-42.704z" />
<glyph unicode="&#xe905;" glyph-name="sorter" d="M376.297 141.879c22.953 0 41.732 18.779 41.732 41.732v734.483c0 15.998-9.041 30.604-22.953 37.559s-31.299 5.565-43.819-4.173l-272.65-204.487c-18.779-13.911-22.258-39.645-8.346-58.425s39.645-22.258 58.425-8.346l205.879 154.408v-651.019c0-22.953 18.779-41.732 41.732-41.732zM647.555 746.993c-22.953 0-41.732-18.779-41.732-41.732v-727.529c0-15.998 9.041-29.907 22.953-37.559 6.26-2.781 12.52-4.173 18.779-4.173 9.041 0 17.388 2.781 25.039 8.346l272.65 201.008c18.779 13.911 22.258 39.645 9.041 58.425-13.911 18.779-39.645 22.258-58.425 9.041l-206.573-152.322v644.759c0 22.955-18.779 41.734-41.732 41.734z" />
<glyph unicode="&#xe906;" glyph-name="star" d="M368.64 622.080l-307.2-30.72c-20.48 0-30.72-30.72-15.36-46.080l230.4-199.68-66.56-302.080c-5.12-20.48 20.48-40.96 35.84-25.6l266.24 158.72 266.24-158.72c20.48-10.24 40.96 5.12 35.84 25.6l-66.56 302.080 230.4 199.68c15.36 15.36 10.24 40.96-15.36 46.080l-307.2 25.6-117.76 286.72c-10.24 20.48-35.84 20.48-46.080 0l-122.88-281.6z" />
<glyph unicode="&#xe907;" glyph-name="star-outline" d="M512 826.88l97.28-230.4 10.24-30.72 30.72-5.12 245.76-20.48-184.32-158.72-25.6-20.48 5.12-30.72 56.32-240.64-215.040 128-20.48 20.48-25.6-15.36-215.040-128 56.32 240.64 5.12 30.72-25.6 20.48-184.32 158.72 250.88 25.6 30.72 5.12 10.24 25.6 97.28 225.28zM512 919.040c-10.24 0-20.48-5.12-25.6-15.36l-117.76-281.6-307.2-30.72c-20.48 0-30.72-30.72-15.36-46.080l230.4-199.68-66.56-302.080c-5.12-15.36 10.24-30.72 25.6-30.72 5.12 0 10.24 0 15.36 5.12l266.24 158.72 266.24-158.72c5.12 0 10.24-5.12 15.36-5.12 15.36 0 30.72 15.36 25.6 30.72l-76.8 302.080 230.4 199.68c15.36 15.36 10.24 40.96-15.36 46.080l-307.2 25.6-117.76 286.72c-5.12 10.24-15.36 15.36-25.6 15.36v0z" />
<glyph unicode="&#xe908;" glyph-name="success" d="M512 21.333c-235.641 0-426.667 191.025-426.667 426.667s191.025 426.667 426.667 426.667c235.641 0 426.667-191.025 426.667-426.667s-191.025-426.667-426.667-426.667zM512 106.667c188.513 0 341.333 152.82 341.333 341.333s-152.82 341.333-341.333 341.333c-188.513 0-341.333-152.82-341.333-341.333s152.82-341.333 341.333-341.333zM439.202 264.652c-16.683-16.683-43.648-16.683-60.331 0l-110.379 110.421c-16.64 16.64-16.64 43.563 0 60.203 16.597 16.597 43.52 16.597 60.16 0.043l50.219-50.005c16.683-16.64 43.648-16.64 60.288 0.043l213.892 220.5c16.64 16.683 43.691 16.64 60.331-0.128 16.64-16.811 16.64-43.648 0.043-60.245l-274.222-280.831z" />
<glyph unicode="&#xe909;" glyph-name="trash" d="M298.667 106.651c0-0.043 426.734 0.015 426.734 0.015-0.083 0-0.074 460.673-0.069 597.333h-426.665v-597.349zM810.667 106.651c0-47.12-38.275-85.318-85.266-85.318h-426.802c-47.091 0-85.266 38.118-85.266 85.318v597.349c-23.568 0.020-42.667 18.951-42.667 42.667 0 23.564 18.971 42.667 42.704 42.667h213.296c0 47.128 38.205 85.333 85.333 85.333s85.333-38.205 85.333-85.333h213.296c23.585 0 42.704-18.938 42.704-42.667 0-23.552-18.951-42.647-42.667-42.667v-597.349zM554.667 576.105c0 23.506 18.938 42.562 42.667 42.562 23.564 0 42.667-19.043 42.667-42.562v-341.543c0-23.506-18.938-42.562-42.667-42.562-23.564 0-42.667 19.043-42.667 42.562v341.543zM384 576.105c0 23.506 18.938 42.562 42.667 42.562 23.564 0 42.667-19.043 42.667-42.562v-341.543c0-23.506-18.938-42.562-42.667-42.562-23.564 0-42.667 19.043-42.667 42.562v341.543z" />
<glyph unicode="&#xe90a;" glyph-name="truck" d="M298.667 64c-70.692 0-128 57.308-128 128s57.308 128 128 128c55.732 0 103.145-35.618 120.717-85.333h71.283v469.229l-405.333 0.104c-23.564 0-42.667 19.103-42.667 42.667s19.103 42.667 42.667 42.667h426.614c34.851 0 64.053-27.133 64.053-62.812v-65.188h213.46c23.494 0 47.749-18.233 54.226-40.902l49.266-172.431h45.696c23.574 0 42.685-19.137 42.685-42.792v-213.083c0-23.633-19.235-42.792-42.685-42.792h-49.932c-17.572-49.715-64.985-85.333-120.717-85.333s-103.145 35.618-120.717 85.333h-227.9c-17.572-49.715-64.985-85.333-120.717-85.333zM768 320c55.732 0 103.145-35.618 120.717-85.333h7.283v128.284l-320-0.323 0.214-127.961h71.070c17.572 49.715 64.985 85.333 120.717 85.333zM804.545 448l-36.316 128h-192.229v-128h228.545zM170.667 405.333c0 23.564 19.062 42.667 42.726 42.667h191.882c23.597 0 42.726-18.938 42.726-42.667 0-23.564-19.062-42.667-42.726-42.667h-191.882c-23.597 0-42.726 18.938-42.726 42.667zM106.667 576c0 23.564 19.083 42.667 42.54 42.667h256.253c23.494 0 42.54-18.938 42.54-42.667 0-23.564-19.083-42.667-42.54-42.667h-256.253c-23.494 0-42.54 18.938-42.54 42.667zM768 149.333c23.564 0 42.667 19.103 42.667 42.667s-19.103 42.667-42.667 42.667c-23.564 0-42.667-19.103-42.667-42.667s19.103-42.667 42.667-42.667zM298.667 149.333c23.564 0 42.667 19.103 42.667 42.667s-19.103 42.667-42.667 42.667c-23.564 0-42.667-19.103-42.667-42.667s19.103-42.667 42.667-42.667z" />
<glyph unicode="&#xe90b;" glyph-name="uncheckbox" d="M170.667 874.667h682.667c47.13 0 85.333-38.205 85.333-85.333v-682.667c0-47.13-38.204-85.333-85.333-85.333h-682.667c-47.128 0-85.333 38.204-85.333 85.333v682.667c0 47.128 38.205 85.333 85.333 85.333zM378.871 264.653c16.683-16.683 43.648-16.683 60.331 0l316.89 323.497c16.597 16.597 16.597 43.435-0.043 60.245-16.64 16.768-43.691 16.811-60.331 0.128l-256.559-263.167c-16.64-16.683-43.605-16.683-60.288-0.043l-50.219 50.005c-16.64 16.555-43.563 16.555-60.16-0.043-16.64-16.64-16.64-43.563 0-60.203l110.379-110.421z" />
<glyph unicode="&#xe90c;" glyph-name="Union" d="M795.875 320h88.173c44.077 0 78.835 13.36 103.254 39.658 8.227 9.16 15.126 19.54 20.531 30.826 5.418 11.315 9.533 23.553 12.253 36.37 2.586 12.682 3.914 25.837 3.914 39.103 0 22.548-4 43.572-11.888 62.487-7.837 18.968-19.834 35.266-35.702 48.45-9.965 8.517-20.525 15.048-31.453 19.429-10.982 4.533-22.48 7.658-34.179 9.247-11.805 1.612-25.062 2.43-39.418 2.43l-75.053-0.199c-19.574-1.268-29.088-12.232-29.088-33.554v-220.478c0-21.047 9.366-32.099 28.656-33.77zM859.235 585.598c15.904 0 30.288-3.347 42.781-9.966 12.339-6.607 22.765-15.807 30.957-27.368 8.022-11.35 14.106-24.604 18.093-39.36 4.109-14.837 6.186-30.744 6.186-47.252 0-16.1-2.019-31.515-5.997-45.844-4.003-14.242-10.090-27.076-18.106-38.116-7.952-11.163-18.125-19.961-30.23-26.158-11.936-6.18-25.882-9.317-41.418-9.317-9.834 0-16.762 1.332-21.133 4.083-4.81 2.932-7.766 7.372-8.813 13.167-1.062 5.31-1.574 13.441-1.574 24.856v163.674c0 10.293 0.448 17.56 1.379 22.116 0.912 5.322 3.632 9.352 8.15 12.063 4.134 2.308 10.589 3.423 19.725 3.423zM703.482 320c-21.498 0-31.482 13.868-31.482 43.63v200.786c0 29.728 9.984 43.584 31.482 43.584 21.344 0 31.28-13.856 31.28-43.584v-200.786c0-29.763-9.936-43.63-31.28-43.63zM334.778 611.601c0 0-109.841-306.618-120.806-329.572-8.804-18.416-22.572-26.029-43.444-26.029-19.172 0-31.015 8.925-39.484 21.712-15.205 23.014-120.295 276.883-129.735 312.211-5.365 20.104 5.623 45.421 35.814 49.533 26.001 3.561 46.083-10.594 55.002-35.211 18.716-51.603 100.997-242.162 100.997-242.162s57.997 159.071 98.628 262.238c4.684 11.924 16.484 17.171 27.268 13.811 20.055-6.254 17.072-23.053 15.76-26.53zM579.098 319.565c19.718 0 28.902 9.138 28.902 28.696l-0.39 88.177c0 25.701-5.341 44.069-15.907 54.547-13.251 13.21-31.443 19.898-54.032 19.898-22.691 0-41.424-7.473-55.68-22.151l-4.237-4.385-1.744 5.881c-4.118 13.883-13.158 20.655-27.69 20.655-19.715 0-28.87-9.198-28.87-28.934v-133.676c0-19.569 9.155-28.707 28.87-28.707 19.693 0 28.87 9.138 28.87 28.707l0.010 91.198c0.538 12.77 2.595 21.851 6.259 27.732 7.302 11.813 18.608 17.811 33.587 17.811 14.234 0 23.501-4.768 27.552-14.217 3.606-8.552 5.45-20.526 5.45-35.539l0.17-86.986c0-19.569 9.194-28.707 28.88-28.707zM358.227 319.565c19.594 0 28.72 9.204 28.72 28.963v133.259c0 19.737-9.126 28.934-28.72 28.934-19.738 0-28.909-9.197-28.909-28.934v-133.259c0-19.759 9.171-28.963 28.909-28.963zM358.080 522.84c25.779 0 28.755 12.998 28.755 22.758 0 9.765-2.976 22.764-28.755 22.764-25.984 0-28.976-12.998-28.976-22.764 0-9.76 2.992-22.758 28.976-22.758z" />
<glyph unicode="&#xe90d;" glyph-name="vingroup" d="M512 21.333c235.641 0 426.667 191.025 426.667 426.667s-191.025 426.667-426.667 426.667c-235.641 0-426.667-191.025-426.667-426.667s191.025-426.667 426.667-426.667zM610.216 645.4c-103.689-144.816 151.507-387.904 11.797-447.368-50.686-20.363-173.504 19.094-253.178 62.834 197.919-16.542 15.317 144.652-136.707 180.452 167.136 15.942 261.584-95.148 263.432-97.72-1.957 4.093-193.149 330.248 253.593 378.613 0-0.218 0.054-0.389 0.054-0.553-72.213-12.286-112.251-38.856-138.99-76.259z" />
<glyph unicode="&#xe90e;" glyph-name="vinid" d="M558.942 662.983c0 0-155.402-442.92-170.911-476.062-12.444-26.603-31.908-37.587-61.456-37.587-27.096 0-43.862 12.889-55.847 31.365-21.517 33.206-170.206 399.936-183.54 450.983-7.602 29.048 7.939 65.587 50.636 71.524 36.782 5.175 65.226-15.27 77.824-50.857 26.483-74.539 142.866-349.777 142.866-349.777s82.084 229.777 139.555 378.793c6.621 17.238 23.326 24.825 38.559 19.968 28.383-9.079 24.153-33.333 22.314-38.349zM904.597 241.143c27.893 0 40.889 13.206 40.889 41.46l-0.552 127.365c0 37.111-7.571 63.651-22.529 78.793-18.728 19.048-44.475 28.73-76.414 28.73-32.092 0-58.636-10.794-78.774-32l-6.008-6.317-2.452 8.508c-5.824 20.032-18.636 29.809-39.172 29.809-27.923 0-40.858-13.27-40.858-41.809v-193.079c0-28.254 12.935-41.46 40.858-41.46 27.862 0 40.827 13.206 40.827 41.46l0.031 131.746c0.736 18.444 3.678 31.555 8.828 40.032 10.329 17.079 26.329 25.746 47.54 25.746 20.107 0 33.226-6.889 38.958-20.508 5.119-12.381 7.724-29.682 7.724-51.365l0.245-125.65c0-28.254 12.996-41.46 40.858-41.46zM592.107 241.143c27.739 0 40.644 13.302 40.644 41.841v192.476c0 28.508-12.904 41.809-40.644 41.809-27.893 0-40.889-13.302-40.889-41.809v-192.476c0-28.54 12.996-41.841 40.889-41.841zM591.892 534.761c36.475 0 40.674 18.762 40.674 32.889 0 14.095-4.199 32.889-40.674 32.889-36.751 0-40.981-18.794-40.981-32.889 0-14.127 4.23-32.889 40.981-32.889z" />
<glyph unicode="&#xe90f;" glyph-name="VinID-Logo" d="M795.875 320h88.173c44.077 0 78.835 13.36 103.254 39.658 8.227 9.16 15.126 19.54 20.531 30.826 5.418 11.315 9.533 23.553 12.253 36.37 2.586 12.682 3.914 25.837 3.914 39.103 0 22.548-4 43.572-11.888 62.487-7.837 18.968-19.834 35.266-35.702 48.45-9.965 8.517-20.525 15.048-31.453 19.429-10.982 4.533-22.48 7.658-34.179 9.247-11.805 1.612-25.062 2.43-39.418 2.43l-75.053-0.199c-19.574-1.268-29.088-12.232-29.088-33.554v-220.478c0-21.047 9.366-32.099 28.656-33.77zM859.235 585.598c15.904 0 30.288-3.347 42.781-9.966 12.339-6.607 22.765-15.807 30.957-27.368 8.022-11.35 14.106-24.604 18.093-39.36 4.109-14.837 6.186-30.744 6.186-47.252 0-16.1-2.019-31.515-5.997-45.844-4.003-14.242-10.090-27.076-18.106-38.116-7.952-11.163-18.125-19.961-30.23-26.158-11.936-6.18-25.882-9.317-41.418-9.317-9.834 0-16.762 1.332-21.133 4.083-4.81 2.932-7.766 7.372-8.813 13.167-1.062 5.31-1.574 13.441-1.574 24.856v163.674c0 10.293 0.448 17.56 1.379 22.116 0.912 5.322 3.632 9.352 8.15 12.063 4.134 2.308 10.589 3.423 19.725 3.423zM703.482 320c-21.498 0-31.482 13.868-31.482 43.63v200.786c0 29.728 9.984 43.584 31.482 43.584 21.344 0 31.28-13.856 31.28-43.584v-200.786c0-29.763-9.936-43.63-31.28-43.63zM334.778 611.601c0 0-109.841-306.618-120.806-329.572-8.804-18.416-22.572-26.029-43.444-26.029-19.172 0-31.015 8.925-39.484 21.712-15.205 23.014-120.295 276.883-129.735 312.211-5.365 20.104 5.623 45.421 35.814 49.533 26.001 3.561 46.083-10.594 55.002-35.211 18.716-51.603 100.997-242.162 100.997-242.162s57.997 159.071 98.628 262.238c4.684 11.924 16.484 17.171 27.268 13.811 20.055-6.254 17.072-23.053 15.76-26.53zM579.098 319.565c19.718 0 28.902 9.138 28.902 28.696l-0.39 88.177c0 25.701-5.341 44.069-15.907 54.547-13.251 13.21-31.443 19.898-54.032 19.898-22.691 0-41.424-7.473-55.68-22.151l-4.237-4.385-1.744 5.881c-4.118 13.883-13.158 20.655-27.69 20.655-19.715 0-28.87-9.198-28.87-28.934v-133.676c0-19.569 9.155-28.707 28.87-28.707 19.693 0 28.87 9.138 28.87 28.707l0.010 91.198c0.538 12.77 2.595 21.851 6.259 27.732 7.302 11.813 18.608 17.811 33.587 17.811 14.234 0 23.501-4.768 27.552-14.217 3.606-8.552 5.45-20.526 5.45-35.539l0.17-86.986c0-19.569 9.194-28.707 28.88-28.707zM358.227 319.565c19.594 0 28.72 9.204 28.72 28.963v133.259c0 19.737-9.126 28.934-28.72 28.934-19.738 0-28.909-9.197-28.909-28.934v-133.259c0-19.759 9.171-28.963 28.909-28.963zM358.080 522.84c25.779 0 28.755 12.998 28.755 22.758 0 9.765-2.976 22.764-28.755 22.764-25.984 0-28.976-12.998-28.976-22.764 0-9.76 2.992-22.758 28.976-22.758z" />
<glyph unicode="&#xe910;" glyph-name="VinID-Logo2" d="M795.875 320h88.173c44.077 0 78.835 13.36 103.254 39.658 8.227 9.16 15.126 19.54 20.531 30.826 5.418 11.315 9.533 23.553 12.253 36.37 2.586 12.682 3.914 25.837 3.914 39.103 0 22.548-4 43.572-11.888 62.487-7.837 18.968-19.834 35.266-35.702 48.45-9.965 8.517-20.525 15.048-31.453 19.429-10.982 4.533-22.48 7.658-34.179 9.247-11.805 1.612-25.062 2.43-39.418 2.43l-75.053-0.199c-19.574-1.268-29.088-12.232-29.088-33.554v-220.478c0-21.047 9.366-32.099 28.656-33.77zM859.235 585.598c15.904 0 30.288-3.347 42.781-9.966 12.339-6.607 22.765-15.807 30.957-27.368 8.022-11.35 14.106-24.604 18.093-39.36 4.109-14.837 6.186-30.744 6.186-47.252 0-16.1-2.019-31.515-5.997-45.844-4.003-14.242-10.090-27.076-18.106-38.116-7.952-11.163-18.125-19.961-30.23-26.158-11.936-6.18-25.882-9.317-41.418-9.317-9.834 0-16.762 1.332-21.133 4.083-4.81 2.932-7.766 7.372-8.813 13.167-1.062 5.31-1.574 13.441-1.574 24.856v163.674c0 10.293 0.448 17.56 1.379 22.116 0.912 5.322 3.632 9.352 8.15 12.063 4.134 2.308 10.589 3.423 19.725 3.423zM703.482 320c-21.498 0-31.482 13.868-31.482 43.63v200.786c0 29.728 9.984 43.584 31.482 43.584 21.344 0 31.28-13.856 31.28-43.584v-200.786c0-29.763-9.936-43.63-31.28-43.63zM334.778 611.601c0 0-109.841-306.618-120.806-329.572-8.804-18.416-22.572-26.029-43.444-26.029-19.172 0-31.015 8.925-39.484 21.712-15.205 23.014-120.295 276.883-129.735 312.211-5.365 20.104 5.623 45.421 35.814 49.533 26.001 3.561 46.083-10.594 55.002-35.211 18.716-51.603 100.997-242.162 100.997-242.162s57.997 159.071 98.628 262.238c4.684 11.924 16.484 17.171 27.268 13.811 20.055-6.254 17.072-23.053 15.76-26.53zM579.098 319.565c19.718 0 28.902 9.138 28.902 28.696l-0.39 88.177c0 25.701-5.341 44.069-15.907 54.547-13.251 13.21-31.443 19.898-54.032 19.898-22.691 0-41.424-7.473-55.68-22.151l-4.237-4.385-1.744 5.881c-4.118 13.883-13.158 20.655-27.69 20.655-19.715 0-28.87-9.198-28.87-28.934v-133.676c0-19.569 9.155-28.707 28.87-28.707 19.693 0 28.87 9.138 28.87 28.707l0.010 91.198c0.538 12.77 2.595 21.851 6.259 27.732 7.302 11.813 18.608 17.811 33.587 17.811 14.234 0 23.501-4.768 27.552-14.217 3.606-8.552 5.45-20.526 5.45-35.539l0.17-86.986c0-19.569 9.194-28.707 28.88-28.707zM358.227 319.565c19.594 0 28.72 9.204 28.72 28.963v133.259c0 19.737-9.126 28.934-28.72 28.934-19.738 0-28.909-9.197-28.909-28.934v-133.259c0-19.759 9.171-28.963 28.909-28.963zM358.080 522.84c25.779 0 28.755 12.998 28.755 22.758 0 9.765-2.976 22.764-28.755 22.764-25.984 0-28.976-12.998-28.976-22.764 0-9.76 2.992-22.758 28.976-22.758z" />
<glyph unicode="&#xe911;" glyph-name="warning-2" d="M512 896c-249.6 0-448-198.4-448-448s198.4-448 448-448 448 198.4 448 448-198.4 448-448 448zM576 192h-128v128h128v-128zM576 384h-128v320h128v-320z" />
<glyph unicode="&#xe912;" glyph-name="warrning" d="M512 874.667c-235.167 0-426.667-191.5-426.667-426.667s191.5-426.667 426.667-426.667c235.167 0 426.667 191.5 426.667 426.667s-191.5 426.667-426.667 426.667zM512 789.333c189 0 341.333-152.333 341.333-341.333s-152.333-341.333-341.333-341.333c-189 0-341.333 152.333-341.333 341.333s152.333 341.333 341.333 341.333zM512 661.333v0c23.564 0 42.667-19.103 42.667-42.667v-213.333c0-23.564-19.103-42.667-42.667-42.667v0c-23.564 0-42.667 19.103-42.667 42.667v213.333c0 23.564 19.103 42.667 42.667 42.667zM512 320v0c23.564 0 42.667-19.103 42.667-42.667v0c0-23.564-19.103-42.667-42.667-42.667v0c-23.564 0-42.667 19.103-42.667 42.667v0c0 23.564 19.103 42.667 42.667 42.667z" />
<glyph unicode="&#xe913;" glyph-name="wheel2-16px" d="M864 832h-172.8c-25.6 76.8-96 128-179.2 128s-153.6-51.2-179.2-128h-172.8c-19.2 0-32-12.8-32-32s12.8-32 32-32h160c0-64 25.6-115.2 70.4-153.6-115.2-44.8-198.4-160-198.4-294.4v-160c0-51.2 44.8-96 96-96h160v-64c0-38.4 25.6-64 64-64s64 25.6 64 64v64h160c51.2 0 96 44.8 96 96v160c0 134.4-83.2 249.6-198.4 294.4 44.8 38.4 70.4 89.6 70.4 153.6h160c19.2 0 32 12.8 32 32s-12.8 32-32 32zM512 832c38.4 0 64-25.6 64-64s-25.6-64-64-64c-38.4 0-64 25.6-64 64s25.6 64 64 64zM576 320c0-38.4 6.4-64-64-64s-64 25.6-64 64c0 38.4-6.4 64 64 64s64-25.6 64-64z" />
<glyph unicode="&#xe914;" glyph-name="phone-16px" d="M288 896h448c52.751 0 96-43.25 96-96v-704c0-52.751-43.249-96-96-96h-448c-52.75 0-96 43.249-96 96v704c0 52.75 43.25 96 96 96zM448 102.4v-12.8c0-14.136 11.462-25.6 25.6-25.6h76.8c14.136 0 25.6 11.464 25.6 25.6v12.8c0 14.136-11.464 25.6-25.6 25.6h-76.8c-14.138 0-25.6-11.464-25.6-25.6zM704 768h-384v-576h384v576z" />
<glyph unicode="&#xe915;" glyph-name="account" d="M790.551 63.907c-6.54-4.724-13.196-9.356-19.921-13.731-3.095-2.001-6.167-4.003-9.263-6.004-8.82-5.446-17.734-10.543-26.903-15.453-2.001-1.001-4.003-2.001-6.004-3.072-21.015-10.729-42.729-20.015-65.001-27.462-0.721-0.279-1.559-0.559-2.374-0.815-11.636-3.91-23.459-7.284-35.444-10.287h-0.093c-12.102-3.002-24.273-5.446-36.538-7.54-0.372 0-0.745-0.093-1.001-0.186-11.543-1.815-23.273-3.165-34.909-4.259-2.095-0.186-4.189-0.279-6.284-0.465-11.543-0.815-23.18-1.35-34.816-1.35-11.823 0-23.552 0.535-35.281 1.443-2.001 0.093-4.073 0.279-6.074 0.465-11.823 1.001-23.552 2.444-35.188 4.259l-1.536 0.279c-24.646 4.189-48.826 10.17-72.471 18.083-0.721 0.279-1.443 0.559-2.164 0.815-11.729 3.91-23.273 8.378-34.653 13.289-0.093 0-0.186 0-0.256 0.093-10.729 4.631-21.295 9.728-31.744 15.174-1.35 0.721-2.723 1.373-4.096 2.095-9.542 5.097-18.804 10.543-27.997 16.268-2.723 1.722-5.446 3.444-8.076 5.283-8.471 5.446-16.826 11.264-24.925 17.361-0.815 0.628-1.629 1.257-2.444 1.908l1.722 1.001 147.27 80.268c25.274 13.824 41.007 40.355 41.007 69.19v67.072l-4.282 5.19c-0.442 0.465-40.634 49.361-55.901 115.735l-1.629 7.354-6.377 4.096c-8.983 5.818-14.359 15.453-14.359 25.903v66.001c0 8.634 3.724 16.733 10.356 22.831l6.191 5.539v103.633l-0.186 2.444c0 0.465-5.539 45.289 25.996 81.199 26.927 30.72 73.1 46.266 137.1 46.266 63.814 0 109.824-15.453 136.727-45.917 31.535-35.537 26.368-81.175 26.368-81.548l-0.186-106.17 6.191-5.539c6.633-6.004 10.356-14.103 10.356-22.737v-66.001c0-13.265-9.1-25.367-21.993-29.37l-9.286-2.816-3.002-9.263c-10.985-34.095-26.624-65.629-46.452-93.649-4.911-6.889-9.635-12.986-13.731-17.711l-4.538-5.19v-68.911c0-29.999 16.64-56.995 43.45-70.447l157.649-78.825c1.001-0.442 2.001-1.001 3.002-1.536-2.001-1.466-4.003-2.816-6.004-4.282zM37.283 448c0 261.818 212.899 474.717 474.717 474.717s474.717-212.899 474.717-474.717c0-141.079-61.905-267.916-159.907-354.909-5.446 3.724-10.892 7.191-16.64 10.007l-157.626 78.801c-14.080 7.098-22.9 21.271-22.9 37.097v55.087c3.631 4.468 7.54 9.565 11.45 15.197 20.457 28.812 36.817 60.905 48.733 95.348 23.622 11.194 38.819 34.746 38.819 61.277v66.001c0 16.105-5.911 31.721-16.454 44.102v86.9c0.908 9.635 4.352 64.186-35.095 109.172-34.281 39.098-89.833 59.020-165.097 59.020s-130.816-19.921-165.097-59.020c-39.447-44.986-36.003-99.537-35.095-109.172v-86.9c-10.543-12.288-16.454-27.997-16.454-44.102v-66.001c0-20.55 9.193-39.633 24.925-52.55 15.081-59.089 46.080-103.82 57.623-118.9v-53.9c0-15.197-8.355-29.184-21.62-36.468l-147.293-80.268c-4.631-2.537-9.356-5.539-13.987-8.913-96.721 86.993-157.719 212.992-157.719 353.094zM1024 448c0 282.275-229.725 512-512 512s-512-229.725-512-512c0-149.085 64.093-283.555 166.191-377.181l-0.465-0.465 16.547-13.987c1.094-0.908 2.281-1.629 3.375-2.56 8.797-7.261 17.99-14.173 27.252-20.899 3.002-2.188 6.004-4.352 9.1-6.54 10.007-6.819 20.177-13.359 30.627-19.456 2.281-1.373 4.561-2.63 6.819-4.003 11.38-6.447 23.11-12.637 35.002-18.176 0.908-0.465 1.745-0.815 2.653-1.28 38.912-17.99 80.454-31.279 123.811-39.191 1.187-0.163 2.281-0.349 3.444-0.535 13.452-2.374 27.089-4.189 40.913-5.446 1.629-0.186 3.375-0.279 5.004-0.465 13.731-1.094 27.648-1.815 41.728-1.815 13.917 0 27.718 0.721 41.356 1.815 1.745 0.186 3.468 0.279 5.19 0.372 13.731 1.257 27.183 3.095 40.541 5.353 1.187 0.186 2.374 0.465 3.561 0.652 42.705 7.633 83.619 20.62 121.996 38.26 1.443 0.628 2.909 1.28 4.259 1.908 11.543 5.446 22.737 11.264 33.745 17.455 2.723 1.559 5.446 3.095 8.169 4.724 10.007 5.911 19.921 12.009 29.463 18.641 3.444 2.281 6.819 4.817 10.17 7.284 8.192 5.818 16.268 11.892 23.994 18.269 1.745 1.35 3.654 2.63 5.376 4.003l16.989 14.266-0.535 0.442c103.005 93.649 167.727 228.655 167.727 378.554z" />
<glyph unicode="&#xe916;" glyph-name="account-info" d="M512 944c-274 0-496-222-496-496s222-496 496-496 496 222 496 496-222 496-496 496zM512 752c97.2 0 176-78.8 176-176s-78.8-176-176-176-176 78.8-176 176 78.8 176 176 176zM512 64c-117.4 0-222.6 53.2-293 136.4 37.6 70.8 111.2 119.6 197 119.6 4.8 0 9.6-0.8 14.2-2.2 26-8.4 53.2-13.8 81.8-13.8s56 5.4 81.8 13.8c4.6 1.4 9.4 2.2 14.2 2.2 85.8 0 159.4-48.8 197-119.6-70.4-83.2-175.6-136.4-293-136.4z" />
<glyph unicode="&#xe917;" glyph-name="account-web" d="M85.333 448c0 235.167 191.5 426.667 426.667 426.667s426.667-191.5 426.667-426.667c0-235.166-191.501-426.667-426.667-426.667s-426.667 191.501-426.667 426.667zM853.333 448c0 189-152.333 341.333-341.333 341.333s-341.333-152.333-341.333-341.333c0-189.001 152.333-341.333 341.333-341.333s341.333 152.333 341.333 341.333zM512 730.667c-77.833 0-128-62.333-128-138.667v-59.998l13.333-10.667c20.5-42.667 63.334-73.335 114.667-73.335 51.831 0 96 31.002 116.002 74.667l11.998 10.667v58.667c0 50.667-19.166 101-82.667 113.333l-13.333 25.333h-32zM277.333 258.667c33.167 42.167 104.167 104 232 104s197.5-61.833 230.669-104c-54.835-66.999-137.502-109.333-230.669-109.333s-177.167 42.334-232 109.333z" />
<glyph unicode="&#xe918;" glyph-name="adayroi" d="M630.451 350.865l-119.902-116.199-119.902 112.567c-65.753 61.73-65.753 163.404 0 225.135s174.051 61.73 239.804 0c69.62-61.73 69.62-159.773 0-221.504zM769.896 789.333h-83.437v-45.511c-56.889 30.341-113.778 45.511-174.459 45.511-185.837 0-341.333-155.496-341.333-341.333s155.496-341.333 341.333-341.333c64.474 0 125.156 18.963 178.252 53.096 15.17-26.548 26.548-53.096 60.681-53.096h102.4v599.23c0 45.511-37.926 83.437-83.437 83.437zM512 533.333c-47.127 0-85.333-38.206-85.333-85.333s38.206-85.333 85.333-85.333c47.127 0 85.333 38.206 85.333 85.333s-38.206 85.333-85.333 85.333z" />
<glyph unicode="&#xe919;" glyph-name="add" d="M554.667 490.667h298.667c23.564 0 42.667-19.103 42.667-42.667s-19.103-42.667-42.667-42.667h-298.667v-298.667c0-23.564-19.103-42.667-42.667-42.667s-42.667 19.103-42.667 42.667v298.667h-298.667c-23.564 0-42.667 19.103-42.667 42.667s19.103 42.667 42.667 42.667h298.667v298.667c0 23.564 19.103 42.667 42.667 42.667s42.667-19.103 42.667-42.667v-298.667z" />
<glyph unicode="&#xe91a;" glyph-name="airplane" d="M337.067 405.333h82.775c11.772 0 19.413-9.466 17.112-20.921l-52.957-263.592 146.215 265.845c5.67 10.31 19.719 18.668 31.484 18.668h248.972c23.56 0 42.667 19.109 42.667 42.667 0 23.484-19.164 42.667-42.667 42.667h-248.972c-11.718 0-25.727 8.223-31.474 18.703l-146.073 266.343 52.817-264.085c2.315-11.576-5.363-20.96-16.955-20.96h-208.004l-41.339 23.065 0.050-131.992 41.288 23.593h125.061zM337.067 320h-102.4l-75.104-42.917c-40.996-23.426-74.229-4.177-74.229 42.9v256.033c0 47.119 33.142 66.379 74.229 42.9l75.104-42.917h102.4l-51.396 256.979c-4.605 23.023 10.576 41.687 34.455 41.687h63.747c23.634 0 51.992-16.726 63.412-37.49l143.647-261.177h219.733c70.695 0 128-57.451 128-128 0-70.692-57.318-128-128-128h-219.733l-143.647-261.177c-11.42-20.764-39.778-37.49-63.412-37.49h-63.747c-23.88 0-39.060 18.664-34.455 41.687l51.396 256.979z" />
<glyph unicode="&#xe91b;" glyph-name="all-department" d="M170.667 704h682.667c23.564 0 42.667-19.103 42.667-42.667s-19.103-42.667-42.667-42.667h-682.667c-23.564 0-42.667 19.103-42.667 42.667s19.103 42.667 42.667 42.667zM170.667 490.667h682.667c23.564 0 42.667-19.103 42.667-42.667s-19.103-42.667-42.667-42.667h-682.667c-23.564 0-42.667 19.103-42.667 42.667s19.103 42.667 42.667 42.667zM170.667 277.333h682.667c23.564 0 42.667-19.103 42.667-42.667s-19.103-42.667-42.667-42.667h-682.667c-23.564 0-42.667 19.103-42.667 42.667s19.103 42.667 42.667 42.667z" />
<glyph unicode="&#xe91c;" glyph-name="arrow" d="M615.42 676.435c13.897-14.37 13.901-37.171 0.009-51.545l-169.033-174.885c-1.079-1.118-1.079-2.893 0-4.011l169.033-174.882c13.892-14.379 13.888-37.175-0.009-51.546-14.579-15.074-38.741-15.070-53.312 0.009l-218.484 226.057c-1.278 1.318-1.278 3.418 0 4.74l218.484 226.053c14.571 15.077 38.733 15.081 53.312 0.010z" />
<glyph unicode="&#xe91d;" glyph-name="arrow-left" d="M759.467 908.8v0c0 0 0 0 0 0-34.133 25.6-76.8 25.6-102.4 0l-392.533-401.067c-34.133-34.133-34.133-85.333 0-119.467l384-401.067c0 0 0 0 0 0 25.6-25.6 76.8-25.6 102.4 0v0c25.6 25.6 25.6 76.8 0 110.933l-281.6 290.133c-34.133 34.133-34.133 85.333 0 119.467l281.6 290.133c34.133 34.133 34.133 76.8 8.533 110.933z" />
<glyph unicode="&#xe91e;" glyph-name="arrow-left-light" d="M740.704 953.467l-490.823-485.141c-11.919-11.615-11.919-29.037 0-40.652l490.823-485.141c8.917-8.711 26.751-8.711 35.668 0 8.917 11.615 8.917 29.037 0 37.748l-455.156 447.392c-11.889 11.615-11.889 29.037 0 40.652l455.156 447.392c8.917 11.615 8.917 26.133 0 37.748-11.889 8.711-26.751 8.711-35.668 0z" />
<glyph unicode="&#xe91f;" glyph-name="arrow-right" d="M264.533 797.867l281.6-290.133c34.133-34.133 34.133-85.333 0-119.467l-281.6-290.133c-25.6-25.6-25.6-76.8 0-110.933v0c25.6-25.6 76.8-25.6 102.4 0 0 0 0 0 0 0l384 401.067c34.133 34.133 34.133 85.333 0 119.467l-384 401.067c-25.6 25.6-68.267 25.6-102.4 0 0 0 0 0 0 0v0c-25.6-34.133-25.6-76.8 0-110.933z" />
<glyph unicode="&#xe920;" glyph-name="arrow-right-light" d="M283.296 953.467l490.823-485.141c11.919-11.615 11.919-29.037 0-40.652l-490.823-485.141c-8.917-8.711-26.751-8.711-35.668 0-8.917 11.615-8.917 29.037 0 37.748l455.156 447.392c11.889 11.615 11.889 29.037 0 40.652l-455.156 447.392c-8.917 11.615-8.917 26.133 0 37.748 11.889 8.711 26.751 8.711 35.668 0z" />
<glyph unicode="&#xe921;" glyph-name="back" d="M810.79 490.667h-476.715l208.299 208.299c16.683 16.64 16.64 43.691-0.085 60.288l-0.213 0.213c-16.597 16.512-43.477 16.469-60.075-0.128l-281.259-281.259c-16.64-16.64-16.64-43.52 0-60.16l281.173-281.173c16.597-16.64 43.563-16.64 60.16 0 16.64 16.64 16.64 43.563 0.043 60.16l-208.043 208.427h476.715c23.509 0 42.539 19.029 42.539 42.539v0.213c0 23.509-19.029 42.581-42.539 42.581z" />
<glyph unicode="&#xe922;" glyph-name="bill" d="M170.667 832c-46.667 0-85.333-38.667-85.333-85.333v-597.333c0-46.667 38.667-85.333 85.333-85.333h682.667c46.667 0 85.333 38.667 85.333 85.333v597.333c0 46.667-38.667 85.333-85.333 85.333h-682.667zM170.667 746.667h682.667v-597.333h-682.667v597.333zM298.667 661.333h426.667c23.564 0 42.667-19.103 42.667-42.667v0c0-23.564-19.103-42.667-42.667-42.667h-426.667c-23.564 0-42.667 19.103-42.667 42.667v0c0 23.564 19.103 42.667 42.667 42.667zM298.667 490.667v0c23.564 0 42.667-19.103 42.667-42.667v0c0-23.564-19.103-42.667-42.667-42.667v0c-23.564 0-42.667 19.103-42.667 42.667v0c0 23.564 19.103 42.667 42.667 42.667zM426.667 490.667h298.667c23.564 0 42.667-19.103 42.667-42.667v0c0-23.564-19.103-42.667-42.667-42.667h-298.667c-23.564 0-42.667 19.103-42.667 42.667v0c0 23.564 19.103 42.667 42.667 42.667zM298.667 320v0c23.564 0 42.667-19.103 42.667-42.667v0c0-23.564-19.103-42.667-42.667-42.667v0c-23.564 0-42.667 19.103-42.667 42.667v0c0 23.564 19.103 42.667 42.667 42.667zM426.667 320h298.667c23.564 0 42.667-19.103 42.667-42.667v0c0-23.564-19.103-42.667-42.667-42.667h-298.667c-23.564 0-42.667 19.103-42.667 42.667v0c0 23.564 19.103 42.667 42.667 42.667z" />
<glyph unicode="&#xe923;" glyph-name="building" d="M277.344 426.656c12.8 0 21.312 8.544 21.312 21.344v42.656c0 12.8-8.512 21.344-21.312 21.344s-21.344-8.544-21.344-21.344v-42.656c0-12.8 8.544-21.344 21.344-21.344zM106.656 426.656c12.8 0 21.344 8.544 21.344 21.344v42.656c0 12.8-8.544 21.344-21.344 21.344s-21.312-8.544-21.312-21.344v-42.656c0-12.8 8.512-21.344 21.312-21.344zM277.344 298.656c12.8 0 21.312 8.544 21.312 21.344v42.656c0 12.8-8.512 21.344-21.312 21.344s-21.344-8.544-21.344-21.344v-42.656c0-12.8 8.544-21.344 21.344-21.344zM192 298.656c12.8 0 21.344 8.544 21.344 21.344v42.656c0 12.8-8.544 21.344-21.344 21.344s-21.344-8.544-21.344-21.344v-42.656c0-12.8 8.544-21.344 21.344-21.344zM192 426.656c12.8 0 21.344 8.544 21.344 21.344v42.656c0 12.8-8.544 21.344-21.344 21.344s-21.344-8.544-21.344-21.344v-42.656c0-12.8 8.544-21.344 21.344-21.344zM106.656 298.656c12.8 0 21.344 8.544 21.344 21.344v42.656c0 12.8-8.544 21.344-21.344 21.344s-21.312-8.544-21.312-21.344v-42.656c0-12.8 8.512-21.344 21.312-21.344zM661.344 213.344h85.312c12.8 0 21.344 8.512 21.344 21.312v85.344c0 12.8-8.544 21.344-21.344 21.344h-85.312c-12.8 0-21.344-8.544-21.344-21.344v-85.344c0-12.8 8.544-21.312 21.344-21.312zM682.656 298.656h42.688v-42.656h-42.688v42.656zM661.344 384h85.312c12.8 0 21.344 8.544 21.344 21.344v85.312c0 12.8-8.544 21.344-21.344 21.344h-85.312c-12.8 0-21.344-8.544-21.344-21.344v-85.312c0-12.8 8.544-21.344 21.344-21.344zM682.656 469.344h42.688v-42.688h-42.688v42.688zM661.344 554.656h85.312c12.8 0 21.344 8.544 21.344 21.344v85.344c0 12.8-8.544 21.312-21.344 21.312h-85.312c-12.8 0-21.344-8.512-21.344-21.312v-85.344c0-12.8 8.544-21.344 21.344-21.344zM682.656 640h42.688v-42.656h-42.688v42.656zM661.344 725.344h85.312c12.8 0 21.344 8.512 21.344 21.312v85.344c0 12.8-8.544 21.344-21.344 21.344h-85.312c-12.8 0-21.344-8.544-21.344-21.344v-85.344c0-12.8 8.544-21.312 21.344-21.312zM682.656 810.656h42.688v-42.656h-42.688v42.656zM661.344 42.656h85.312c12.8 0 21.344 8.544 21.344 21.344v85.344c0 12.8-8.544 21.312-21.344 21.312h-85.312c-12.8 0-21.344-8.512-21.344-21.312v-85.344c0-12.8 8.544-21.344 21.344-21.344zM682.656 128h42.688v-42.656h-42.688v42.656zM1002.656 938.656h-426.656c-12.8 0-21.344-8.512-21.344-21.312v-426.688h-170.656v85.344c0 12.8-8.544 21.344-21.344 21.344h-341.312c-12.8 0-21.344-8.544-21.344-21.344v-597.344c0-12.8 8.544-21.312 21.344-21.312h341.312c12.8 0 21.344 8.512 21.344 21.312v320h170.656v-320c0-12.8 8.544-21.312 21.344-21.312h426.656c12.8 0 21.344 8.512 21.344 21.312v938.688c0 12.8-8.544 21.312-21.344 21.312zM256 0h-128v213.344h128v-213.344zM341.344 0h-42.688v234.656c0 12.8-8.512 21.344-21.312 21.344h-170.688c-12.8 0-21.312-8.544-21.312-21.344v-234.656h-42.688v554.656h298.688v-554.656zM554.656 341.344h-170.656v106.656h170.656v-106.656zM981.344 0h-384v896h384v-896zM832 554.656h85.344c12.8 0 21.312 8.544 21.312 21.344v85.344c0 12.8-8.512 21.312-21.312 21.312h-85.344c-12.8 0-21.344-8.512-21.344-21.312v-85.344c0-12.8 8.544-21.344 21.344-21.344zM853.344 640h42.656v-42.656h-42.656v42.656zM832 725.344h85.344c12.8 0 21.312 8.512 21.312 21.312v85.344c0 12.8-8.512 21.344-21.312 21.344h-85.344c-12.8 0-21.344-8.544-21.344-21.344v-85.344c0-12.8 8.544-21.312 21.344-21.312zM853.344 810.656h42.656v-42.656h-42.656v42.656zM832 42.656h85.344c12.8 0 21.312 8.544 21.312 21.344v85.344c0 12.8-8.512 21.312-21.312 21.312h-85.344c-12.8 0-21.344-8.512-21.344-21.312v-85.344c0-12.8 8.544-21.344 21.344-21.344zM853.344 128h42.656v-42.656h-42.656v42.656zM832 384h85.344c12.8 0 21.312 8.544 21.312 21.344v85.312c0 12.8-8.512 21.344-21.312 21.344h-85.344c-12.8 0-21.344-8.544-21.344-21.344v-85.312c0-12.8 8.544-21.344 21.344-21.344zM853.344 469.344h42.656v-42.688h-42.656v42.688zM832 213.344h85.344c12.8 0 21.312 8.512 21.312 21.312v85.344c0 12.8-8.512 21.344-21.312 21.344h-85.344c-12.8 0-21.344-8.544-21.344-21.344v-85.344c0-12.8 8.544-21.312 21.344-21.312zM853.344 298.656h42.656v-42.656h-42.656v42.656z" />
<glyph unicode="&#xe924;" glyph-name="calendar" d="M938.667 661.329v-511.991c0-70.678-57.171-128.005-127.79-128.005h-597.752c-70.595 0-127.79 57.35-127.79 128.005v511.991c0 70.678 57.171 128.005 127.79 128.005l0.21 42.675c0 23.56 18.938 42.658 42.667 42.658 23.564 0 42.667-18.932 42.667-42.658v-42.675h85.333v42.675c0 23.56 18.938 42.658 42.667 42.658 23.564 0 42.667-18.932 42.667-42.658v-42.675h85.333v42.675c0 23.56 18.938 42.658 42.667 42.658 23.564 0 42.667-18.932 42.667-42.658v-42.675h85.333v42.675c0 23.56 18.938 42.658 42.667 42.658 23.564 0 42.667-18.932 42.667-42.658v-42.675c70.804 0 128-57.35 128-128.005zM170.667 490.667v-341.329c0-23.577 19.042-42.671 42.457-42.671h597.752c23.439 0 42.457 19.070 42.457 42.671v341.329h-682.667zM853.333 661.329c0 23.577-19.042 42.671-42.457 42.671-0.21-23.568-19.148-42.667-42.876-42.667-23.564 0-42.667 18.932-42.667 42.658l-85.333 0.008c0-23.568-18.938-42.667-42.667-42.667-23.564 0-42.667 18.932-42.667 42.658l-85.333 0.008c0-23.568-18.938-42.667-42.667-42.667-23.564 0-42.667 18.932-42.667 42.658l-85.333 0.008c0-23.568-18.938-42.667-42.667-42.667-23.564 0-42.667 18.932-42.667 42.658-23.649 0.008-42.667-19.061-42.667-42.663v-85.329h682.667v85.329z" />
<glyph unicode="&#xe925;" glyph-name="calendar-setting" d="M715.057 354.296l1.854 9.21c4.898 24.328 26.272 41.827 51.088 41.827s46.189-17.5 51.085-41.828l1.853-9.208c26.295-8.571 49.783-23.355 68.733-42.617l4.803 2.773c20.407 11.782 46.502 4.79 58.284-15.617s4.79-46.502-15.617-58.284l-4.7-2.713c4.057-14.586 6.226-29.959 6.226-45.839 0-15.773-2.14-31.047-6.145-45.547l4.619-2.667c20.407-11.782 27.399-37.877 15.617-58.284s-37.877-27.399-58.284-15.617l-4.591 2.65c-19.019-19.402-42.633-34.281-69.081-42.878l-1.817-9.144c-4.835-24.326-26.182-41.848-50.984-41.848s-46.148 17.523-50.981 41.849l-1.816 9.141c-26.448 8.596-50.063 23.475-69.082 42.875l-4.584-2.646c-20.407-11.782-46.502-4.79-58.284 15.617s-4.79 46.502 15.617 58.284l4.609 2.661c-4.006 14.501-6.147 29.777-6.147 45.552 0 15.882 2.169 31.256 6.228 45.844l-4.691 2.708c-20.407 11.782-27.399 37.877-15.617 58.284s37.877 27.399 58.284 15.617l4.796-2.769c18.948 19.259 42.433 34.041 68.724 42.612zM938.667 410.617c-25.291 19.772-54.101 35.251-85.333 45.34v34.709h-682.667v-341.329c0-23.577 19.042-42.671 42.457-42.671h290.919c10.089-31.232 25.568-60.042 45.34-85.333h-336.259c-70.595 0-127.79 57.35-127.79 128.005v511.991c0 70.678 57.171 128.005 127.79 128.005l0.21 42.675c0 23.56 18.938 42.658 42.667 42.658 23.564 0 42.667-18.932 42.667-42.658v-42.675h85.333v42.675c0 23.56 18.938 42.658 42.667 42.658 23.564 0 42.667-18.932 42.667-42.658v-42.675h85.333v42.675c0 23.56 18.938 42.658 42.667 42.658 23.564 0 42.667-18.932 42.667-42.658v-42.675h85.333v42.675c0 23.56 18.938 42.658 42.667 42.658 23.564 0 42.667-18.932 42.667-42.658v-42.675c70.804 0 128-57.35 128-128.005v-250.712zM853.333 661.329c0 23.577-19.042 42.671-42.457 42.671-0.21-23.568-19.148-42.667-42.876-42.667-23.564 0-42.667 18.932-42.667 42.658l-85.333 0.008c0-23.568-18.938-42.667-42.667-42.667-23.564 0-42.667 18.932-42.667 42.658l-85.333 0.008c0-23.568-18.938-42.667-42.667-42.667-23.564 0-42.667 18.932-42.667 42.658l-85.333 0.008c0-23.568-18.938-42.667-42.667-42.667-23.564 0-42.667 18.932-42.667 42.658-23.649 0.008-42.667-19.061-42.667-42.663v-85.329h682.667v85.329zM768 106.667c47.128 0 85.333 38.205 85.333 85.333s-38.205 85.333-85.333 85.333c-47.128 0-85.333-38.205-85.333-85.333s38.205-85.333 85.333-85.333z" />
<glyph unicode="&#xe926;" glyph-name="call-16px" d="M646.406 0c-102.401 0-204.801 38.4-281.601 115.2l-185.6 185.6c-153.6 153.6-153.6 403.2 0 556.8 51.2 51.2 134.4 51.2 185.6 0l102.4-89.6c25.6-25.6 38.4-57.6 38.4-89.6s-12.8-70.4-38.4-96l-51.2-51.2 185.6-185.6 44.801 44.8c51.2 51.2 134.4 51.2 185.6 0l89.6-89.6c25.6-25.6 38.4-57.6 38.4-89.6s-12.8-70.4-38.4-89.6c-70.4-83.2-166.4-121.6-275.2-121.6zM281.606 768c-102.4-102.4-102.4-268.8 0-371.2l185.6-185.6c51.2-51.2 115.2-76.8 185.601-76.8s134.4 25.6 185.6 76.8l-89.6 96-51.2-51.2c-51.2-51.2-134.401-51.2-185.601 0l-185.6 185.6c-51.2 51.2-51.2 134.4 0 185.6l44.8 44.8-89.6 96z" />
<glyph unicode="&#xe927;" glyph-name="camera" d="M860.8 666h-135l-80.8 81.6c0 0-0.4 0.4-0.6 0.4l-0.4 0.4c-12 12-28.2 19.6-46.6 19.6h-168c-19.6 0-37-8.4-49.2-21.8v-0.2l-79-80h-138c-37.2 0-67.2-29.2-67.2-66.4v-404.2c0-37.2 30-67.4 67.2-67.4h697.6c37 0 67.2 30.2 67.2 67.4v404.2c0 37.2-30.2 66.4-67.2 66.4zM512 229c-101.8 0-184.8 83.2-184.8 185.2 0 102.2 83 185.2 184.8 185.2 102 0 184.8-83 184.8-185.2 0-102-82.8-185.2-184.8-185.2zM848.2 559c-15.4 0-28 12.6-28 28.2s12.6 28.2 28 28.2c15.4 0 28-12.6 28-28.2s-12.6-28.2-28-28.2zM512 554.2c-77.2 0-139.6-62.6-139.6-140 0-77.2 62.4-140 139.6-140 77 0 139.6 62.6 139.6 140s-62.6 140-139.6 140z" />
<glyph unicode="&#xe928;" glyph-name="card" d="M128 789.333h768c47.128 0 85.333-38.205 85.333-85.333v-512c0-47.128-38.205-85.333-85.333-85.333h-768c-47.128 0-85.333 38.205-85.333 85.333v512c0 47.128 38.205 85.333 85.333 85.333zM170.667 704c-23.564 0-42.667-19.103-42.667-42.667v-426.667c0-23.564 19.103-42.667 42.667-42.667h682.667c23.564 0 42.667 19.103 42.667 42.667v426.667c0 23.564-19.103 42.667-42.667 42.667h-682.667zM42.667 618.667h938.667v-170.667h-938.667v170.667zM256 362.667h341.333c23.564 0 42.667-19.103 42.667-42.667s-19.103-42.667-42.667-42.667h-341.333c-23.564 0-42.667 19.103-42.667 42.667s19.103 42.667 42.667 42.667z" />
<glyph unicode="&#xe929;" glyph-name="cart" d="M868.51 450.897c-9.045-27.221-34.517-45.568-63.189-45.568h-443.136l12.672-42.667h393.173c23.509 0 42.667-19.115 42.667-42.667 0-23.595-19.157-42.667-42.667-42.667h-383.957c-58.24 0-80.768 27.563-85.333 42.667l-128.043 426.709h-128.043c-23.552 0-42.624 19.072-42.624 42.667 0 23.509 19.072 42.624 42.624 42.624h155.52c49.877 0 57.856-85.333 57.856-85.333l597.333 0.043c47.061 0 85.291-38.187 85.333-85.248l-70.187-210.56zM336.585 490.662h455.211l14.251 42.667h-482.261l12.8-42.667zM285.385 661.329l12.8-42.667h536.277l14.208 42.667h-563.285zM384.030 234.662c47.147 0 85.333-38.187 85.333-85.333s-38.187-85.333-85.333-85.333c-47.147 0-85.333 38.187-85.333 85.333s38.187 85.333 85.333 85.333zM725.363 234.662c47.104 0 85.333-38.187 85.333-85.333s-38.229-85.333-85.333-85.333c-47.189 0-85.333 38.187-85.333 85.333s38.144 85.333 85.333 85.333z" />
<glyph unicode="&#xe92a;" glyph-name="cart-full" d="M911.147 365.568c-9.045-27.221-34.517-45.568-63.189-45.568h-443.136l12.672-42.667h393.173c23.509 0 42.667-19.115 42.667-42.667 0-23.595-19.157-42.667-42.667-42.667h-383.957c-58.24 0-80.768 27.563-85.333 42.667l-128.043 426.709h-128.043c-23.552 0-42.624 19.072-42.624 42.667 0 23.509 19.072 42.624 42.624 42.624h155.52c49.877 0 57.856-85.333 57.856-85.333l597.333 0.043c47.061 0 85.291-38.187 85.333-85.248l-70.187-210.56zM426.667 149.333c47.147 0 85.333-38.187 85.333-85.333s-38.187-85.333-85.333-85.333c-47.147 0-85.333 38.187-85.333 85.333s38.187 85.333 85.333 85.333zM768 149.333c47.104 0 85.333-38.187 85.333-85.333s-38.229-85.333-85.333-85.333c-47.189 0-85.333 38.187-85.333 85.333s38.144 85.333 85.333 85.333zM746.637 832l149.333-42.667v-85.333h-85.333l-64 128zM324.267 789.333l315.703 85.333 85.333-170.667h-375.437l-25.6 85.333z" />
<glyph unicode="&#xe92b;" glyph-name="chat-16px" d="M896 320c0-38.4-25.6-64-64-64h-64c-38.4 0-64-25.6-64-64v-32l-128 76.8-25.6 19.2h-358.4c-38.4 0-64 25.6-64 64v448c0 38.4 25.6 64 64 64h640c38.4 0 64-25.6 64-64v-448zM896 960h-768c-70.4 0-128-57.6-128-128v-576c0-70.4 57.6-128 128-128h384l217.6-172.8c44.8-32 102.4-6.4 102.4 51.2v121.6h64c70.4 0 128 57.6 128 128v576c0 70.4-57.6 128-128 128z" />
<glyph unicode="&#xe92c;" glyph-name="check" d="M439.202 221.986c-16.683-16.683-43.648-16.683-60.331 0l-153.045 153.088c-16.64 16.64-16.64 43.563 0 60.203 16.597 16.597 43.52 16.597 60.16 0.043l92.885-92.672c16.683-16.64 43.648-16.64 60.288 0.043l299.225 305.834c16.64 16.683 43.691 16.64 60.331-0.128 16.64-16.811 16.64-43.648 0.043-60.245l-359.556-366.164z" />
<glyph unicode="&#xe92d;" glyph-name="check-2" d="M512 896c-249.6 0-448-198.4-448-448s198.4-448 448-448 448 198.4 448 448-198.4 448-448 448zM416 179.2l-172.8 172.8 64 76.8 108.8-96 288 326.4 76.8-51.2-364.8-428.8z" />
<glyph unicode="&#xe92e;" glyph-name="check-box" d="M972.8 908.8v-921.6h-921.6v921.6h921.6zM972.8 960h-921.6c-30.72 0-51.2-20.48-51.2-51.2v-921.6c0-30.72 20.48-51.2 51.2-51.2h921.6c30.72 0 51.2 20.48 51.2 51.2v921.6c0 30.72-20.48 51.2-51.2 51.2v0z" />
<glyph unicode="&#xe92f;" glyph-name="checkbox-active" d="M972.8 960h-921.6c-30.72 0-51.2-20.48-51.2-51.2v-921.6c0-30.72 20.48-51.2 51.2-51.2h921.6c30.72 0 51.2 20.48 51.2 51.2v921.6c0 30.72-20.48 51.2-51.2 51.2zM803.84 616.96l-378.88-389.12c-20.48-20.48-51.2-20.48-71.68 0l-133.12 133.12c-20.48 20.48-20.48 51.2 0 71.68s51.2 20.48 71.68 0l61.44-61.44c20.48-20.48 51.2-20.48 71.68 0l307.2 317.44c20.48 20.48 51.2 20.48 71.68 0s20.48-51.2 0-71.68z" />
<glyph unicode="&#xe930;" glyph-name="check-indeterminate" d="M725.333 874.667c119.467 0 213.333-93.867 213.333-213.333v-426.667c0-119.467-93.867-213.333-213.333-213.333h-426.667c-119.467 0-213.333 93.867-213.333 213.333v426.667c0 119.467 93.867 213.333 213.333 213.333h426.667zM341.333 490.667c-23.564 0-42.667-19.103-42.667-42.667s19.103-42.667 42.667-42.667h341.333c23.564 0 42.667 19.103 42.667 42.667s-19.103 42.667-42.667 42.667h-341.333z" />
<glyph unicode="&#xe931;" glyph-name="circle-down" d="M512 21.333c-235.641 0-426.667 191.025-426.667 426.667s191.025 426.667 426.667 426.667c235.641 0 426.667-191.025 426.667-426.667s-191.025-426.667-426.667-426.667zM512 106.667c188.513 0 341.333 152.82 341.333 341.333s-152.82 341.333-341.333 341.333c-188.513 0-341.333-152.82-341.333-341.333s152.82-341.333 341.333-341.333zM629.333 533.333l53.333-51.502-170.667-161.832-170.667 161.832 53.333 51.502 117.333-110.373 117.333 110.373z" />
<glyph unicode="&#xe932;" glyph-name="clock-16px" d="M480 896c-228.8 0-416-187.2-416-416s187.2-416 416-416c228.8 0 416 187.2 416 416s-187.2 416-416 416zM448 736c0 17.673 14.327 32 32 32s32-14.327 32-32v-224h160c17.67 0 32-14.327 32-32s-14.33-32-32-32h-192c-17.673 0-32 14.327-32 32v256z" />
<glyph unicode="&#xe933;" glyph-name="contact-book" d="M219.429 39.957h656.92v834.688h-656.92v-834.688zM919.693-45.376h-743.608c-23.969 0-43.344 19.072-43.344 42.667v920.021c0 23.595 19.375 42.667 43.344 42.667h743.608c23.969 0 43.344-19.072 43.344-42.667v-920.021c0-23.595-19.375-42.667-43.344-42.667v0zM251.937 702.831h-151.704c-23.969 0-43.344 19.072-43.344 42.667s19.375 42.667 43.344 42.667h151.704c23.969 0 43.344-19.072 43.344-42.667s-19.375-42.667-43.344-42.667zM251.937 512.375h-151.704c-23.969 0-43.344 19.072-43.344 42.667s19.375 42.667 43.344 42.667h151.704c23.969 0 43.344-19.072 43.344-42.667s-19.375-42.667-43.344-42.667zM251.937 321.873h-151.704c-23.969 0-43.344 19.072-43.344 42.667s19.375 42.667 43.344 42.667h151.704c23.969 0 43.344-19.072 43.344-42.667s-19.375-42.667-43.344-42.667zM251.937 131.375h-151.704c-23.969 0-43.344 19.072-43.344 42.667s19.375 42.667 43.344 42.667h151.704c23.969 0 43.344-19.072 43.344-42.667s-19.375-42.667-43.344-42.667zM563.514 453.005c-62.719 0-113.864 54.955-113.864 122.496 0 67.584 51.146 122.581 113.864 122.581 62.632 0 113.604-54.997 113.604-122.581 0-67.541-50.972-122.496-113.604-122.496zM698.951 216.542h-271.073c-22.756 0-41.654 17.365-43.257 39.723l-5.981 86.144c-2.904 42.923 28.087 88.747 70.694 104.363 74.118 26.027 154.564 25.813 227.686 0.085 43.127-15.616 74.248-61.483 71.127-104.619l-5.938-85.973c-1.604-22.357-20.458-39.723-43.257-39.723v0z" />
<glyph unicode="&#xe934;" glyph-name="copy" d="M554.667 789.333h-341.333v-512c0-23.564-19.103-42.667-42.667-42.667s-42.667 19.103-42.667 42.667v512c0 47 38.333 85.333 85.333 85.333h384c23.564 0 42.667-19.103 42.667-42.667s-19.103-42.667-42.667-42.667h-42.667zM384 704c-47 0-85.333-38.333-85.333-85.333v-512c0-47 38.333-85.333 85.333-85.333h426.667c47 0 85.333 38.333 85.333 85.333v512c0 47-38.333 85.333-85.333 85.333h-426.667zM384 618.667h426.667v-512h-426.667v512z" />
<glyph unicode="&#xe935;" glyph-name="credit-card" d="M553.758 690.091c-30.545-8.122-56.367-12.482-81.335-16.698-44.181-7.461-82.339-13.911-134.039-38.758l-5.418 9.041c56.828 38.167 99.504 47.112 144.692 56.583 21.274 4.453 43.264 9.065 67.622 16.956 60.070 19.469 109.141 43.034 148.992 72.117h-566.272c-47.128 0-85.333-38.206-85.333-85.333v-410.509c97.805 2.539 147.553-22.263 205.753-63.693-62.688 165.188 20.895 223.305 81.768 256.388 58.714 31.91 209.012 59.878 344.475 85.084l14.844 2.763c128.393 23.917 215.104 71.169 287.232 157.667-5.585 16.279-15.953 30.333-29.427 40.487-69.585-96.164-154.044-147.312-292.471-179.114-33.489-7.695-67.878-13.958-104.277-20.584-103.095-18.765-209.703-38.172-290.215-91.453l-6.747 8.559c70.336 69.131 196.815 94.537 308.419 116.951l0.043 0.008c32.631 6.552 63.458 12.742 91.183 19.69 144.013 36.060 222.929 107.782 263.433 160.568-6.622 1.648-13.547 2.521-20.676 2.521h-36.915c-60.066-71.464-149.734-121.417-272.503-152.083-43.162-10.776-76.71-17.203-106.317-22.87-61.137-11.706-105.315-20.164-183.474-57.38l-5.209 9.443c83.698 52.864 141.707 64.862 208.873 78.753l0.38 0.078c25.323 5.242 51.52 10.667 80.994 18.677 100.937 27.43 174.775 66.875 230.955 125.383h-68.757c-50.351-44.888-115.887-79.466-190.268-99.242zM42.667 192v84.868c85.061-25.796 160.733-75.008 181.561-113.903l0.3-0.538c3.555-6.246 24.146-42.419-97.395-23.94 0 0 26.437-15.13 63.506-31.821h-61.868l-36.052 18.065c-14.334 7.185-26.665 15.006-37.778 23.155-7.79 12.873-12.273 27.968-12.273 44.113zM94.488 113.498l22.554-6.131c-7.908 1.011-15.477 3.106-22.554 6.131zM384.262 260.335c22.566-52.753 48.501-113.382 36.359-153.668h475.379c47.13 0 85.333 38.204 85.333 85.333v504.893c-83.593-89.201-173.175-122.399-284.557-136.94-115.657-15.096-249.114-34.842-296.28-70.084-95.221-71.164-21.707-216.704-21.707-216.704 1.725-4.070 3.493-8.201 5.283-12.382l0.189-0.448zM554.667 362.667h341.333v-42.667h-341.333v42.667zM810.667 277.333v-42.667h-256v42.667h256z" />
<glyph unicode="&#xe936;" glyph-name="decrease" d="M280 392c-13.2 0-24 10.8-24 24v64c0 13.2 10.8 24 24 24h464c13.2 0 24-10.8 24-24v-64c0-13.2-10.8-24-24-24h-464zM960 800v-704c0-53-43-96-96-96h-704c-53 0-96 43-96 96v704c0 53 43 96 96 96h704c53 0 96-43 96-96zM864 108v680c0 6.6-5.4 12-12 12h-680c-6.6 0-12-5.4-12-12v-680c0-6.6 5.4-12 12-12h680c6.6 0 12 5.4 12 12z" />
<glyph unicode="&#xe937;" glyph-name="direction" d="M554.667 66.344v-44.828c0-23.665-18.938-42.849-42.667-42.849-23.564 0-42.667 19.242-42.667 42.849v44.828c-177.989 19.676-319.314 161.001-338.99 338.99h-44.828c-23.665 0-42.849 18.938-42.849 42.667 0 23.564 19.242 42.667 42.849 42.667h44.828c19.676 177.989 161.001 319.314 338.99 338.99v44.828c0 23.665 18.938 42.849 42.667 42.849 23.564 0 42.667-19.242 42.667-42.849v-44.828c177.989-19.676 319.314-161.001 338.99-338.99h44.828c23.665 0 42.849-18.938 42.849-42.667 0-23.564-19.242-42.667-42.849-42.667h-44.828c-19.676-177.989-161.001-319.314-338.99-338.99zM768.182 405.333c-23.665 0-42.849 18.938-42.849 42.667 0 23.564 19.242 42.667 42.849 42.667h39.46c-18.71 130.803-122.173 234.266-252.975 252.975v-39.46c0-23.665-18.938-42.849-42.667-42.849-23.564 0-42.667 19.242-42.667 42.849v39.46c-130.803-18.71-234.266-122.173-252.975-252.975h39.46c23.665 0 42.849-18.938 42.849-42.667 0-23.564-19.242-42.667-42.849-42.667h-39.46c18.71-130.803 122.173-234.266 252.975-252.975v39.46c0 23.665 18.938 42.849 42.667 42.849 23.564 0 42.667-19.242 42.667-42.849v-39.46c130.803 18.71 234.266 122.173 252.975 252.975h-39.46zM512 384c-35.346 0-64 28.654-64 64s28.654 64 64 64c35.346 0 64-28.654 64-64s-28.654-64-64-64z" />
<glyph unicode="&#xe938;" glyph-name="down" d="M740.382 579.227c-14.366 13.898-37.167 13.902-51.541 0.009l-174.886-169.030c-1.118-1.079-2.893-1.079-4.011 0l-174.884 169.030c-14.374 13.894-37.175 13.889-51.545-0.009-15.071-14.577-15.067-38.74 0.010-53.314l226.057-218.479c1.318-1.28 3.418-1.28 4.74 0l226.052 218.479c15.078 14.573 15.083 38.737 0.009 53.314z" />
<glyph unicode="&#xe939;" glyph-name="dropdown-16px" d="M768 576h-512l256-256 256 256z" />
<glyph unicode="&#xe93a;" glyph-name="email" d="M170.667 789.333h682.667c47.128 0 85.333-38.205 85.333-85.333v-512c0-47.128-38.205-85.333-85.333-85.333h-682.667c-47.128 0-85.333 38.205-85.333 85.333v512c0 47.128 38.205 85.333 85.333 85.333zM213.333 704c-23.564 0-42.667-19.103-42.667-42.667v-426.667c0-23.564 19.103-42.667 42.667-42.667h597.333c23.564 0 42.667 19.103 42.667 42.667v426.667c0 23.564-19.103 42.667-42.667 42.667h-597.333zM213.333 678.667v-85.333l298.667-188 298.667 188v85.333l-298.667-188-298.667 188z" />
<glyph unicode="&#xe93b;" glyph-name="error" d="M512 387.669l-88.38-88.38c-16.597-16.597-43.733-16.597-60.331 0s-16.597 43.733 0 60.331l88.38 88.38-88.388 88.388c-16.555 16.555-16.555 43.733 0 60.331 16.597 16.555 43.776 16.555 60.331 0l88.388-88.388 88.388 88.388c16.555 16.555 43.733 16.555 60.331 0 16.555-16.597 16.555-43.776 0-60.331l-88.388-88.388 88.38-88.38c16.597-16.597 16.597-43.733 0-60.331s-43.733-16.597-60.331 0l-88.38 88.38zM512 21.333c-235.641 0-426.667 191.025-426.667 426.667s191.025 426.667 426.667 426.667c235.641 0 426.667-191.025 426.667-426.667s-191.025-426.667-426.667-426.667zM512 106.667c188.513 0 341.333 152.82 341.333 341.333s-152.82 341.333-341.333 341.333c-188.513 0-341.333-152.82-341.333-341.333s152.82-341.333 341.333-341.333z" />
<glyph unicode="&#xe93c;" glyph-name="exit" d="M512 387.669l-259.046-259.046c-16.597-16.597-43.733-16.597-60.331 0s-16.597 43.733 0 60.331l259.046 259.046-259.055 259.055c-16.555 16.555-16.555 43.733 0 60.331 16.597 16.555 43.776 16.555 60.331 0l259.055-259.055 259.055 259.055c16.555 16.555 43.733 16.555 60.331 0 16.555-16.597 16.555-43.776 0-60.331l-259.055-259.055 259.046-259.046c16.597-16.597 16.597-43.733 0-60.331s-43.733-16.597-60.331 0l-259.046 259.046z" />
<glyph unicode="&#xe93d;" glyph-name="exit-tiny" d="M512 387.669l-88.38-88.38c-16.597-16.597-43.733-16.597-60.331 0s-16.597 43.733 0 60.331l88.38 88.38-88.388 88.388c-16.555 16.555-16.555 43.733 0 60.331 16.597 16.555 43.776 16.555 60.331 0l88.388-88.388 88.388 88.388c16.555 16.555 43.733 16.555 60.331 0 16.555-16.597 16.555-43.776 0-60.331l-88.388-88.388 88.38-88.38c16.597-16.597 16.597-43.733 0-60.331s-43.733-16.597-60.331 0l-88.38 88.38z" />
<glyph unicode="&#xe93e;" glyph-name="facebook" d="M853.333 874.667h-682.667c-47 0-85.333-38.333-85.333-85.333v-682.667c0-47 38.333-85.333 85.333-85.333h682.667c47 0 85.333 38.333 85.333 85.333v682.667c0 47-38.333 85.333-85.333 85.333zM785 644.333h-59.667c-38.333 0-42.667-12.833-42.667-42.667v-55.5h89.667l-4.333-98.167h-81v-298.667h-136.667v298.667h-51.167v102.333h51.167v64c0 85.333 34.167 132.333 132.333 132.333h102.333z" />
<glyph unicode="&#xe93f;" glyph-name="filter" d="M1020.158 888.982c-6.776 14.608-21.418 23.954-37.522 23.954h-941.272c-16.102 0-30.744-9.344-37.522-23.954s-4.46-31.822 5.938-44.12l366.729-433.657v-292.649c0-15.666 8.852-29.99 22.866-36.998l188.254-94.126c5.838-2.92 12.176-4.366 18.498-4.366 7.564 0 15.104 2.072 21.748 6.178 12.194 7.538 19.618 20.852 19.618 35.188v386.773l366.729 433.657c10.398 12.298 12.712 29.512 5.936 44.12zM574.541 453.061c-6.314-7.468-9.778-16.932-9.778-26.71v-334.993l-105.526 52.762v282.229c0 9.78-3.466 19.242-9.78 26.71l-318.939 377.149h762.965l-318.943-377.147z" />
<glyph unicode="&#xe940;" glyph-name="filter-24px" d="M341.333 618.667c0-55.732-35.619-103.147-85.333-120.717v-391.287c0-23.565-18.938-42.662-42.667-42.662-23.564 0-42.667 18.982-42.667 42.662v391.287c-49.715 17.57-85.333 64.985-85.333 120.717s35.619 103.145 85.333 120.716v49.957c0 23.561 18.938 42.66 42.667 42.66 23.564 0 42.667-18.985 42.667-42.66v-49.957c49.715-17.571 85.333-64.984 85.333-120.716zM554.667 156.617c49.715 17.57 85.333 64.986 85.333 120.717s-35.618 103.147-85.333 120.717v391.29c0 23.676-19.102 42.66-42.667 42.66-23.727 0-42.667-19.1-42.667-42.66v-391.29c-49.715-17.57-85.333-64.986-85.333-120.717s35.619-103.147 85.333-120.717v-49.954c0-23.68 19.102-42.662 42.667-42.662 23.727 0 42.667 19.098 42.667 42.662v49.954zM853.333 412.617c49.715 17.57 85.333 64.986 85.333 120.717s-35.618 103.145-85.333 120.716v135.29c0 23.676-19.102 42.66-42.667 42.66-23.727 0-42.667-19.1-42.667-42.66v-135.29c-49.715-17.571-85.333-64.984-85.333-120.716s35.618-103.147 85.333-120.717v-305.954c0-23.68 19.102-42.662 42.667-42.662 23.727 0 42.667 19.098 42.667 42.662v305.954zM256 618.667c0 23.564-19.103 42.667-42.667 42.667s-42.667-19.103-42.667-42.667c0-23.564 19.103-42.667 42.667-42.667s42.667 19.103 42.667 42.667zM512 234.667c-23.565 0-42.667 19.102-42.667 42.667s19.102 42.667 42.667 42.667c23.565 0 42.667-19.102 42.667-42.667s-19.102-42.667-42.667-42.667zM853.333 533.333c0-23.565-19.102-42.667-42.667-42.667s-42.667 19.102-42.667 42.667c0 23.564 19.102 42.667 42.667 42.667s42.667-19.103 42.667-42.667z" />
<glyph unicode="&#xe941;" glyph-name="flash" d="M609.333 874.667l-353.333-469.333h213.333l-73.333-384 372 469.333h-213.333z" />
<glyph unicode="&#xe942;" glyph-name="full-screen" d="M128 789.333v-213.589c0-23.424 18.987-42.411 42.411-42.411h0.512c23.424 0 42.411 18.987 42.411 42.411v110.933l123.349-123.349c16.555-16.555 43.435-16.555 59.989 0s16.555 43.435 0 59.989l-123.349 123.349h110.933c23.424 0 42.411 18.987 42.411 42.411v0.512c0 23.424-18.987 42.411-42.411 42.411h-213.589c-23.552 0-42.667-19.115-42.667-42.667zM597.333 789.589v-0.512c0-23.424 18.987-42.411 42.411-42.411h110.933l-123.349-123.349c-16.597-16.555-16.597-43.435 0-59.989s43.435-16.555 59.989 0l123.349 123.349v-110.933c0-23.424 18.987-42.411 42.411-42.411h0.512c23.424 0 42.411 18.987 42.411 42.411v213.589c0 23.552-19.072 42.667-42.667 42.667h-213.589c-23.424 0-42.411-18.987-42.411-42.411zM336.683 332.672l-123.349-123.349v110.933c0 23.424-18.987 42.411-42.411 42.411h-0.512c-23.424 0-42.411-18.987-42.411-42.411v-213.589c0-23.595 19.115-42.667 42.667-42.667h213.589c23.424 0 42.411 18.987 42.411 42.411v0.512c0 23.424-18.987 42.411-42.411 42.411h-110.933l123.349 123.349c16.555 16.555 16.555 43.392 0 59.989s-43.435 16.597-59.989 0zM627.328 332.672c-16.597-16.597-16.597-43.435 0-59.989l123.349-123.349h-110.933c-23.424 0-42.411-18.987-42.411-42.411v-0.512c0-23.424 18.987-42.411 42.411-42.411h213.589c23.595 0 42.667 19.072 42.667 42.667v213.589c0 23.424-18.987 42.411-42.411 42.411h-0.512c-23.424 0-42.411-18.987-42.411-42.411v-110.933l-123.349 123.349c-16.555 16.597-43.392 16.597-59.989 0z" />
<glyph unicode="&#xe943;" glyph-name="gift" d="M343.394 831.983c-43.136 0.597-81.877-22.4-106.24-57.984-29.483-43.093-27.563-79.829-15.829-112.683h-93.312c-23.595 0-42.667-19.072-42.667-42.667v-170.667c0-23.552 19.072-42.667 42.667-42.667v-341.333c0-23.552 19.072-42.667 42.667-42.667h682.667c23.552 0 42.667 19.115 42.667 42.667v341.333c23.552 0 42.667 19.115 42.667 42.667v170.667c0 23.595-19.115 42.667-42.667 42.667h-93.355c11.776 32.853 13.653 69.589-15.829 112.683-24.363 35.584-63.104 58.581-106.24 57.984-73.515-1.024-123.563-57.088-156.587-103.979-4.523-6.315-8.021-12.501-11.989-18.688-4.011 6.187-7.509 12.373-12.032 18.688-33.024 46.891-83.029 102.955-156.587 103.979zM341.346 746.65c26.667 0 61.312-28.629 87.979-66.645 6.528-9.344 5.504-9.813 10.667-18.688h-98.645c-24.192 0-42.667 18.517-42.667 42.667 0 24.192 18.475 42.667 42.667 42.667zM682.679 746.65c24.149 0 42.667-18.475 42.667-42.667 0-24.149-18.517-42.667-42.667-42.667h-98.688c5.163 8.875 4.181 9.344 10.667 18.688 26.667 38.016 61.355 66.645 88.021 66.645zM170.679 575.983h682.667v-85.333h-298.667v42.667h-85.333v-42.667h-298.667v85.333zM213.346 405.316h597.333v-298.667h-256v213.333c0 23.595-19.115 42.667-42.667 42.667-23.595 0-42.667-19.072-42.667-42.667v-213.333h-256v298.667z" />
<glyph unicode="&#xe944;" glyph-name="gift-2" d="M170.667 789.333c-46.933 0-85.333-38.4-85.333-85.333v-213.333h87c4.693-33.707 21.763-63.573 46.083-85.333h-133.083v-213.333c0-46.933 38.4-85.333 85.333-85.333h256v213.333c0.853 5.12 14.507 20.067 42.667 35 26.453-14.080 41.387-29.443 42.667-35.417v-212.917h341.333c46.933 0 85.333 38.4 85.333 85.333v213.333h-218.417c24.32 21.76 41.39 51.627 46.083 85.333h172.333v213.333c0 46.933-38.4 85.333-85.333 85.333h-341.333v-158.75c-14.933-8.96-29.013-20.43-42.667-34.083-13.653 13.653-27.733 25.123-42.667 34.083v158.75h-256zM327.25 618.667c62.72 0 110.937-45.687 142.083-87.5 31.147 41.813 79.363 87.5 142.083 87.5s113.917-47.787 113.917-106.667c0-58.88-51.197-106.667-113.917-106.667h-2.583c18.347-23.040 31.167-51.2 31.167-85.333h-85.333c0 38.4-55.883 69.533-85.75 82.333-31.573-14.080-84.917-44.787-84.917-82.333h-85.333c0 34.133 12.82 62.293 31.167 85.333h-2.583c-62.72 0-113.917 47.787-113.917 106.667s51.197 106.667 113.917 106.667zM327.25 533.333c-15.36 0-28.583-9.813-28.583-21.333s13.223-21.333 28.583-21.333h64.833c-19.2 23.040-42.647 42.667-64.833 42.667zM611.417 533.333c-22.613 0-46.050-19.627-65.25-42.667h65.25c15.36 0 28.583 9.813 28.583 21.333s-13.223 21.333-28.583 21.333z" />
<glyph unicode="&#xe945;" glyph-name="gift-16px" d="M768 576h-192v-192h256c35.328 0 64 28.672 64 64v64c0 35.328-28.672 64-64 64h-64zM832 320h-256v-256h192c35.328 0 64 28.672 64 64v192zM448 384v192h-256c-35.199 0-64-28.801-64-64v-64c0-35.199 28.801-64 64-64h256zM192 320v-192c0-35.2 28.801-64 64-64h192v256h-256zM288.256 640c34.561 0 71.488 4.096 101.504 11.263 0 0 33.345 4.737 49.281 23.041 17.599-20.801 43.584-34.305 72.959-34.305 29.377 0 55.297 13.504 72.897 34.305 0 0 23.809-17.088 49.343-23.041 30.016-7.103 67.008-11.263 101.568-11.263 20.544 0 39.296 1.473 55.68 4.225 41.856 7.168 70.528 21.055 87.808 42.496 15.488 19.264 20.288 43.008 14.144 70.527-10.752 48.191-47.744 74.752-104.064 74.752-11.904 0-25.024-1.217-38.976-3.584-35.328-6.080-80.576-23.809-120.959-47.553-10.369-6.016-18.625-11.584-26.049-16.895-12.031 39.295-48.191 68.031-91.393 68.031-43.263 0-79.359-28.737-91.391-68.031-7.424 5.311-15.681 10.879-25.984 16.895-40.449 23.744-85.697 41.473-121.024 47.553-13.953 2.367-27.009 3.584-38.912 3.584-56.385 0-93.313-26.561-104.064-74.752-6.145-27.519-1.409-51.263 14.080-70.527 17.279-21.441 46.015-35.328 87.807-42.496 16.385-2.752 35.201-4.225 55.744-4.225z" />
<glyph unicode="&#xe946;" glyph-name="giftcode" d="M85.363 106.667c-23.581 0-42.696 18.971-42.696 42.704v597.259c0 23.585 19.092 42.704 42.696 42.704h128.026c11.751 0 24.040-9.17 28.507-20.25 0 0 7.389-43.75 56.771-43.75s56.931 44.101 56.931 44.101c3.904 10.99 16.786 19.899 28.364 19.899h554.675c23.581 0 42.696-18.971 42.696-42.704v-597.259c0-23.585-19.092-42.704-42.696-42.704h-554.675c-11.761 0-24.295 8.899-29.047 19.899 0 0-9.497 44.101-56.247 44.101s-56.247-44.101-56.247-44.101c-4.282-10.99-17.272-19.899-29.030-19.899h-128.026zM256 256.045c0 23.54 18.938 42.622 42.667 42.622 23.564 0 42.667-19.163 42.667-42.622v-6.229c32.834-9.772 60.936-30.533 80.040-58.017 15.676 0.164 474.656 0.164 474.656 0.164v512c0 0-457.906 0.073-474.649 0.248-19.104-27.489-47.209-48.254-80.047-58.027v-6.229c0-23.54-18.938-42.622-42.667-42.622-23.564 0-42.667 19.163-42.667 42.622v6.229c-32.74 9.744-60.774 30.413-79.875 57.78-20.288 0.036-48.095-0.002-48.095-0.002v-512c0 0 31.121 0 48.093 0.070 19.101 27.368 47.136 48.039 79.877 57.783v6.229zM256 512c0 23.564 18.938 42.667 42.667 42.667 23.564 0 42.667-18.938 42.667-42.667 0-23.564-18.938-42.667-42.667-42.667-23.564 0-42.667 18.938-42.667 42.667zM256 384c0 23.564 18.938 42.667 42.667 42.667 23.564 0 42.667-18.938 42.667-42.667 0-23.564-18.938-42.667-42.667-42.667-23.564 0-42.667 18.938-42.667 42.667zM554.667 490.667c23.595 0 42.667 19.072 42.667 42.667s-19.072 42.667-42.667 42.667c-23.595 0-42.667-19.072-42.667-42.667s19.072-42.667 42.667-42.667zM554.667 320c11.776 0 22.443 4.779 30.165 12.501l170.667 170.667c7.723 7.723 12.501 18.389 12.501 30.165 0 23.595-19.072 42.667-42.667 42.667-11.776 0-22.443-4.779-30.165-12.501l-170.667-170.667c-7.723-7.723-12.501-18.389-12.501-30.165 0-23.595 19.072-42.667 42.667-42.667zM725.333 405.333c-23.595 0-42.667-19.072-42.667-42.667s19.072-42.667 42.667-42.667c23.595 0 42.667 19.072 42.667 42.667s-19.072 42.667-42.667 42.667z" />
<glyph unicode="&#xe947;" glyph-name="google" d="M535.333 523.167v-163h232.167c-30.333-98.833-112.833-169.5-232.167-169.5-142.167 0-257.5 115.167-257.5 257.333s115.333 257.333 257.5 257.333c63.833 0 122.167-23.333 167.167-62l120.167 120.167c-75.833 69-176.667 111.167-287.333 111.167-235.833 0-426.833-191-426.833-426.667s191-426.667 426.833-426.667c358.167 0 437.167 335 402.167 501.167z" />
<glyph unicode="&#xe948;" glyph-name="group" d="M341.333 405.308c-99.413 0-298.667-49.92-298.667-149.333v-64c0-23.552 19.115-42.667 42.667-42.667h512c23.595 0 42.667 19.115 42.667 42.667v64c0 99.413-199.253 149.333-298.667 149.333zM682.667 405.308c-12.416 0-26.411-0.768-41.387-2.347 49.493-35.712 84.053-83.669 84.053-146.987v-64c0-15.061-3.072-29.269-7.893-42.667h221.227c23.595 0 42.667 19.115 42.667 42.667v64c0 99.413-199.253 149.333-298.667 149.333zM341.333 746.641c-70.699 0-128-57.259-128-128 0-70.656 57.301-128 128-128s128 57.344 128 128c0 70.741-57.301 128-128 128zM682.667 746.641c-70.699 0-128-57.259-128-128 0-70.656 57.301-128 128-128s128 57.344 128 128c0 70.741-57.301 128-128 128zM806.827 299.665c45.099-13.995 80.427-32.512 89.173-46.549v-18.475h-85.333v21.333c0 13.355-1.024 28.075-3.84 43.691zM341.333 319.974c91.051 0 197.205-41.045 213.333-66.859v-18.475h-426.667v18.475c16.128 25.813 122.283 66.859 213.333 66.859zM341.333 661.308c23.509 0 42.667-19.115 42.667-42.667 0-23.509-19.157-42.667-42.667-42.667s-42.667 19.157-42.667 42.667c0 23.552 19.157 42.667 42.667 42.667zM682.667 661.308c23.552 0 42.667-19.115 42.667-42.667 0-23.509-19.115-42.667-42.667-42.667s-42.667 19.157-42.667 42.667c0 23.552 19.115 42.667 42.667 42.667z" />
<glyph unicode="&#xe949;" glyph-name="group-16px" d="M696.032 128h287.968c22.118 0 40 17.92 40 40v140c0 93.2-226.797 140-320 140-23.578 0-55.699-2.995-90.539-8.977 10.098-5.868 19.74-12.228 28.689-19.12 29.99-23.093 61.85-60.069 61.85-111.903v-140c0-14.17-2.835-27.68-7.968-40zM424 128c-22.080 0-40 17.92-40 40v140c0 47.269 58.339 82.602 128 105.948 69.661-23.346 128-58.679 128-105.948v-140c0-22.080-17.88-40-40-40h-176zM0 308v-140c0-22.080 17.92-40 40-40h560c22.12 0 40 17.92 40 40v140c0 93.2-226.8 140-320 140s-320-46.8-320-140zM448 640c0-70.692-57.308-128-128-128s-128 57.308-128 128c0 70.692 57.308 128 128 128s128-57.308 128-128zM832 640c0-70.692-57.308-128-128-128s-128 57.308-128 128c0 70.692 57.308 128 128 128s128-57.308 128-128z" />
<glyph unicode="&#xe94a;" glyph-name="help" d="M512 874.667c-234.667 0-426.667-192-426.667-426.667s192-426.667 426.667-426.667c234.667 0 426.667 192 426.667 426.667s-192 426.667-426.667 426.667zM512 789.333c187.667 0 341.333-153.667 341.333-341.333s-153.667-341.333-341.333-341.333c-187.667 0-341.333 153.667-341.333 341.333s153.667 341.333 341.333 341.333zM508 661.333c-140.833 0-124-128-124-128h85.333c0 59.667 29.833 64 42.667 64 34.167 0 42.667-39 42.667-56 0-89.667-85.333-67.667-85.333-178.667h85.333c0 72.5 85.333 76.333 85.333 178.667 0 38.333-21 120-132 120zM469.333 320v-85.333h85.333v85.333h-85.333z" />
<glyph unicode="&#xe94b;" glyph-name="home" d="M213.371 64l127.963-0.025v298.797c0 23.506 19.083 42.562 42.54 42.562h256.253c23.494 0 42.54-19.043 42.54-42.562v-298.884l128-0.076v451.763l-298.667 298.405-298.669-298.407c-0.009-80.7 0.039-451.572 0.039-451.572zM115.503 417.83c-16.662-16.662-43.677-16.662-60.34 0s-16.662 43.677 0 60.34l426.667 426.667c16.662 16.662 43.677 16.662 60.34 0l426.667-426.667c16.662-16.662 16.662-43.677 0-60.34s-43.677-16.662-60.34 0l-12.497 12.486v-366.505c0-47.103-38.152-85.145-85.371-85.145h-597.259c-47.106 0-85.371 38.039-85.371 85.145v366.505l-12.497-12.486zM597.333 63.914v256.153l-170.667-0.066v-256.044l170.667-0.043z" />
<glyph unicode="&#xe94c;" glyph-name="hot" d="M469.333 533.333h128v-213.333h-128v213.333zM981.333 661.333h-938.667c-25.6 0-42.667-17.067-42.667-42.667v-384c0-25.6 17.067-42.667 42.667-42.667h938.667c25.6 0 42.667 17.067 42.667 42.667v384c0 25.6-17.067 42.667-42.667 42.667zM384 298.667c0-12.8-8.533-21.333-21.333-21.333s-21.333 8.533-21.333 21.333v106.667h-128v-106.667c0-12.8-8.533-21.333-21.333-21.333s-21.333 8.533-21.333 21.333v256c0 12.8 8.533 21.333 21.333 21.333s21.333-8.533 21.333-21.333v-106.667h128v106.667c0 12.8 8.533 21.333 21.333 21.333s21.333-8.533 21.333-21.333v-256zM640 320c0-25.6-17.067-42.667-42.667-42.667h-128c-25.6 0-42.667 17.067-42.667 42.667v213.333c0 25.6 17.067 42.667 42.667 42.667h128c25.6 0 42.667-17.067 42.667-42.667v-213.333zM874.667 533.333h-64v-234.667c0-12.8-8.533-21.333-21.333-21.333s-21.333 8.533-21.333 21.333v234.667h-64c-12.8 0-21.333 8.533-21.333 21.333s8.533 21.333 21.333 21.333h170.667c12.8 0 21.333-8.533 21.333-21.333s-8.533-21.333-21.333-21.333z" />
<glyph unicode="&#xe94d;" glyph-name="increase" d="M768 480v-64c0-13.2-10.8-24-24-24h-176v-176c0-13.2-10.8-24-24-24h-64c-13.2 0-24 10.8-24 24v176h-176c-13.2 0-24 10.8-24 24v64c0 13.2 10.8 24 24 24h176v176c0 13.2 10.8 24 24 24h64c13.2 0 24-10.8 24-24v-176h176c13.2 0 24-10.8 24-24zM960 800v-704c0-53-43-96-96-96h-704c-53 0-96 43-96 96v704c0 53 43 96 96 96h704c53 0 96-43 96-96zM864 108v680c0 6.6-5.4 12-12 12h-680c-6.6 0-12-5.4-12-12v-680c0-6.6 5.4-12 12-12h680c6.6 0 12 5.4 12 12z" />
<glyph unicode="&#xe94e;" glyph-name="increase-24px" d="M512 661.333c-23.565 0-42.667-19.103-42.667-42.667v-128h-128c-23.564 0-42.667-19.102-42.667-42.667s19.103-42.667 42.667-42.667h128v-128c0-23.565 19.102-42.667 42.667-42.667s42.667 19.102 42.667 42.667v128h128c23.565 0 42.667 19.102 42.667 42.667s-19.102 42.667-42.667 42.667h-128v128c0 23.564-19.102 42.667-42.667 42.667z" />
<glyph unicode="&#xe94f;" glyph-name="info" d="M554.667 234.667h-85.333v213.333c-23.564 0-42.667 19.103-42.667 42.667s19.103 42.667 42.667 42.667h85.333v-213.333c23.564 0 42.667-19.103 42.667-42.667s-19.103-42.667-42.667-42.667zM512 21.333c-235.641 0-426.667 191.025-426.667 426.667s191.025 426.667 426.667 426.667c235.641 0 426.667-191.025 426.667-426.667s-191.025-426.667-426.667-426.667zM512 106.667c188.513 0 341.333 152.82 341.333 341.333s-152.82 341.333-341.333 341.333c-188.513 0-341.333-152.82-341.333-341.333s152.82-341.333 341.333-341.333zM512 661.333c23.564 0 42.667-19.103 42.667-42.667s-19.103-42.667-42.667-42.667c-23.564 0-42.667 19.103-42.667 42.667s19.103 42.667 42.667 42.667z" />
<glyph unicode="&#xe950;" glyph-name="install" d="M256 832c-6-1.667-128-110.5-128-170.667 0-28.667 10-45 28-68 28.167-32.167 61.333-50.333 84-62.667 6-3.167 10.333-6.333 16-9.333v-372c0-47 38.333-85.333 85.333-85.333s85.333 38.333 85.333 85.333v372c5.667 3.167 10 6 16 9.333 1.333 0.5 59.667 30 86.667 65.333 16.833 22.167 25.333 38 25.333 65.333 0 60.167-122 169-128 170.667v-128c0 0-38-24.833-85.333-25.333-47.333 0.5-85.333 25.333-85.333 25.333v128zM682.667 832l-42.667-128 42.667-42.667v-213.333h-42.667c-23.5 0-42.667-19.167-42.667-42.667s19.167-42.667 42.667-42.667v-213.333c0-47 38.333-85.333 85.333-85.333s85.333 38.333 85.333 85.333v213.333c23.5 0 42.667 19.167 42.667 42.667s-19.167 42.667-42.667 42.667h-42.667v213.333l42.667 42.667-42.667 128h-85.333z" />
<glyph unicode="&#xe951;" glyph-name="location" d="M702.264 175.175c-69.034-81.932-156.037-153.841-190.264-153.841s-121.23 71.909-190.264 153.841c-93.689 111.194-151.070 233.511-151.070 358.159 0 188.513 152.82 341.333 341.333 341.333s341.333-152.82 341.333-341.333c0-124.648-57.38-246.965-151.070-358.159zM483.176 134.221c12.658-10.462 28.824-22.194 28.824-22.194s17.979 13.23 28.824 22.194c31.473 26.012 65.294 59.279 96.182 95.938 81.897 97.199 130.994 201.856 130.994 303.175 0 141.385-114.615 256-256 256s-256-114.615-256-256c0-101.318 49.096-205.975 130.994-303.175 30.888-36.659 64.71-69.925 96.182-95.938zM384 533.333c0 70.692 57.308 128 128 128s128-57.308 128-128c0-70.692-57.308-128-128-128s-128 57.308-128 128zM554.667 533.333c0 23.564-19.103 42.667-42.667 42.667s-42.667-19.103-42.667-42.667c0-23.564 19.103-42.667 42.667-42.667s42.667 19.103 42.667 42.667z" />
<glyph unicode="&#xe952;" glyph-name="location-2" d="M512 896c176.25 0 320-143.75 320-320 0-49.5-20.25-103.75-48.25-161-28-57.5-64.5-117.5-101-172.25-73.25-109.75-146-199-146-199l-24.75-30.5-24.75 30.5c0 0-72.75 89.25-145.75 199-36.75 54.75-73.25 114.75-101.25 172.25-28 57.25-48.25 111.5-48.25 161 0 176.25 143.75 320 320 320zM512 704c-70.5 0-128-57.5-128-128s57.5-128 128-128c70.5 0 128 57.5 128 128s-57.5 128-128 128z" />
<glyph unicode="&#xe953;" glyph-name="logout" d="M554.667 832c-182.333 0-335.667-127.833-374.667-298.667h88c36.833 123.167 151.667 213.333 286.667 213.333 164.667 0 298.667-134 298.667-298.667s-134-298.667-298.667-298.667c-135 0-249.833 90.167-286.667 213.333h-88c39-170.833 192.333-298.667 374.667-298.667 211.667 0 384 172.333 384 384s-172.333 384-384 384zM426.667 618.667v-128h-341.333v-85.333h341.333v-128l213.333 170.667-213.333 170.667z" />
<glyph unicode="&#xe954;" glyph-name="marker" d="M704 174.933c-72.533-81.067-157.867-153.6-192-153.6s-119.467 72.533-192 153.6c-93.867 110.933-149.333 234.667-149.333 358.4 0 187.733 153.6 341.333 341.333 341.333s341.333-153.6 341.333-341.333c0-123.733-55.467-247.467-149.333-358.4z" />
<glyph unicode="&#xe955;" glyph-name="message" d="M512 21.333c-235.641 0-426.667 191.025-426.667 426.667s191.025 426.667 426.667 426.667c235.641 0 426.667-191.025 426.667-426.667 0-64.347-14.244-125.367-39.752-180.078l37.433-179.192c9.647-46.181-19.793-75.706-65.913-65.913l-178.944 37.995c-54.561-25.336-115.374-39.478-179.49-39.478zM681.369 150.196l162.208-34.68-33.996 162.739 11.993 25.724c20.826 44.671 31.759 93.488 31.759 144.021 0 188.513-152.82 341.333-341.333 341.333s-341.333-152.82-341.333-341.333c0-188.513 152.82-341.333 341.333-341.333 50.354 0 99.006 10.856 143.551 31.541l25.818 11.989zM682.667 405.333c-23.564 0-42.667 19.103-42.667 42.667s19.103 42.667 42.667 42.667c23.564 0 42.667-19.103 42.667-42.667s-19.103-42.667-42.667-42.667zM512 405.333c-23.564 0-42.667 19.103-42.667 42.667s19.103 42.667 42.667 42.667c23.564 0 42.667-19.103 42.667-42.667s-19.103-42.667-42.667-42.667zM341.333 405.333c-23.564 0-42.667 19.103-42.667 42.667s19.103 42.667 42.667 42.667c23.564 0 42.667-19.103 42.667-42.667s-19.103-42.667-42.667-42.667z" />
<glyph unicode="&#xe956;" glyph-name="minus" d="M280 392c-13.2 0-24 10.8-24 24v64c0 13.2 10.8 24 24 24h464c13.2 0 24-10.8 24-24v-64c0-13.2-10.8-24-24-24h-464zM960 800v-704c0-53-43-96-96-96h-704c-53 0-96 43-96 96v704c0 53 43 96 96 96h704c53 0 96-43 96-96zM864 108v680c0 6.6-5.4 12-12 12h-680c-6.6 0-12-5.4-12-12v-680c0-6.6 5.4-12 12-12h680c6.6 0 12 5.4 12 12z" />
<glyph unicode="&#xe957;" glyph-name="mobile" d="M256 960c-22.333 0-45.167-7.833-61.333-24s-24-39-24-61.333v-853.333c0-22.333 7.833-45.167 24-61.333s39-24 61.333-24h512c22.333 0 45.167 7.833 61.333 24s24 39 24 61.333v853.333c0 22.333-7.833 45.167-24 61.333s-39 24-61.333 24h-512zM256 874.667h512v-853.333h-512v853.333zM512 832c23.5 0 42.667-19.167 42.667-42.667s-19.167-42.667-42.667-42.667c-23.5 0-42.667 19.167-42.667 42.667s19.167 42.667 42.667 42.667zM469.333 149.333h85.333c23.564 0 42.667-19.103 42.667-42.667s-19.103-42.667-42.667-42.667h-85.333c-23.564 0-42.667 19.103-42.667 42.667s19.103 42.667 42.667 42.667z" />
<glyph unicode="&#xe958;" glyph-name="money" d="M170.667 704h682.667c47.128 0 85.333-38.205 85.333-85.333v-341.333c0-47.128-38.205-85.333-85.333-85.333h-682.667c-47.128 0-85.333 38.205-85.333 85.333v341.333c0 47.128 38.205 85.333 85.333 85.333zM256 618.667c0-47.128-38.205-85.333-85.333-85.333v-170.667c47.128 0 85.333-38.205 85.333-85.333h512c0 47.128 38.205 85.333 85.333 85.333v170.667c-47.128 0-85.333 38.205-85.333 85.333h-512zM512 576c-70.692 0-128-57.308-128-128s57.308-128 128-128c70.692 0 128 57.308 128 128s-57.308 128-128 128zM298.667 490.667c-23.552 0-42.667-19.072-42.667-42.667s19.115-42.667 42.667-42.667c23.552 0 42.667 19.072 42.667 42.667s-19.115 42.667-42.667 42.667zM725.333 490.667c-23.552 0-42.667-19.072-42.667-42.667s19.115-42.667 42.667-42.667c23.552 0 42.667 19.072 42.667 42.667s-19.115 42.667-42.667 42.667z" />
<glyph unicode="&#xe95a;" glyph-name="next" d="M230.801 490.667h476.715l-208.299 208.299c-16.683 16.64-16.64 43.691 0.085 60.288l0.213 0.213c16.597 16.512 43.477 16.469 60.075-0.128l281.259-281.259c16.64-16.64 16.64-43.52 0-60.16l-281.173-281.173c-16.597-16.64-43.563-16.64-60.16 0-16.64 16.64-16.64 43.563-0.043 60.16l208.043 208.427h-476.715c-23.509 0-42.539 19.029-42.539 42.539v0.213c0 23.509 19.029 42.581 42.539 42.581z" />
<glyph unicode="&#xe95b;" glyph-name="note" d="M512 789.333h-298.86l0.193-682.666 597.243-0.001c0 0 0.095 248.674 0.093 384h-256.002c-23.564 0-42.667 19.103-42.667 42.667v256zM597.333 576h213.333l-213.333 213.333v-213.333zM213.14 874.667h397.112c11.772 0 28.118-6.805 36.29-14.98l234.483-234.571c8.27-8.273 14.975-24.709 14.975-36.284v-482.196c0-47.111-38.166-85.302-85.424-85.302h-597.152c-47.178 0-85.424 38.324-85.424 85.334v682.666c0 47.129 38.224 85.334 85.14 85.334zM298.667 234.667c0 23.564 19.162 42.667 42.47 42.667h341.726c23.456 0 42.47-18.938 42.47-42.667 0-23.564-19.162-42.667-42.47-42.667h-341.726c-23.456 0-42.47 18.938-42.47 42.667zM298.667 362.667c0 23.564 19.242 42.667 42.849 42.667h170.303c23.665 0 42.849-18.938 42.849-42.667 0-23.564-19.242-42.667-42.849-42.667h-170.303c-23.665 0-42.849 18.938-42.849 42.667z" />
<glyph unicode="&#xe95c;" glyph-name="notification" d="M512 908.8c253.44 0 460.8-207.36 460.8-460.8s-207.36-460.8-460.8-460.8c-253.44 0-460.8 207.36-460.8 460.8s207.36 460.8 460.8 460.8zM358.4 243.2h76.8c0-43.52 33.28-76.8 76.8-76.8s76.8 33.28 76.8 76.8h76.8c43.52 0 76.8 33.28 76.8 76.8 0 28.16-15.36 53.76-38.4 66.56v99.84c0 87.040-58.88 161.28-140.8 184.32v7.68c0 28.16-23.040 51.2-51.2 51.2s-51.2-23.040-51.2-51.2v-7.68c-81.92-20.48-140.8-94.72-140.8-184.32 0 0 0-92.16 0-99.84-23.040-12.8-38.4-38.4-38.4-66.56 0-43.52 33.28-76.8 76.8-76.8zM486.4 243.2h51.2c0-15.36-12.8-25.6-25.6-25.6-15.36 0-25.6 10.24-25.6 25.6zM652.8 363.52c0-7.68 5.12-15.36 12.8-17.92h5.12c12.8-2.56 20.48-12.8 20.48-25.6 0-15.36-10.24-25.6-25.6-25.6h-307.2c-15.36 0-25.6 10.24-25.6 25.6 0 12.8 7.68 23.040 17.92 25.6l7.68 2.56c7.68 0 12.8 7.68 12.8 15.36v122.88c0 76.8 64 140.8 140.8 140.8s140.8-64 140.8-140.8v-122.88z" />
<glyph unicode="&#xe95d;" glyph-name="order-gtgt" d="M768 832l85.333-42.667v-725.333h-682.667v725.333l85.291 42.667 85.333-42.667 85.376 42.667 85.333-42.667 85.291 42.667 85.333-42.667 85.376 42.667zM768 754.005l-85.376-42.709-85.333 42.709-85.291-42.709-85.333 42.709-85.376-42.709-85.333 42.709v-604.672h512.043v604.672zM426.667 448c23.595 0 42.667 19.072 42.667 42.667s-19.072 42.667-42.667 42.667c-23.595 0-42.667-19.072-42.667-42.667s19.072-42.667 42.667-42.667zM426.667 277.333c11.776 0 22.443 4.779 30.165 12.501l170.667 170.667c7.723 7.723 12.501 18.389 12.501 30.165 0 23.595-19.072 42.667-42.667 42.667-11.776 0-22.443-4.779-30.165-12.501l-170.667-170.667c-7.723-7.723-12.501-18.389-12.501-30.165 0-23.595 19.072-42.667 42.667-42.667zM597.333 362.667c-23.595 0-42.667-19.072-42.667-42.667s19.072-42.667 42.667-42.667c23.595 0 42.667 19.072 42.667 42.667s-19.072 42.667-42.667 42.667z" />
<glyph unicode="&#xe95e;" glyph-name="order-history" d="M896 382.814c-24.601 22.018-53.484 39.349-85.247 50.588l0.127 377.096-23.799-11.902c-12.012-6.006-26.15-6.006-38.162 0l-65.612 33.409-66.893-33.409c-12.012-6.006-26.15-6.006-38.162 0l-66.252 33.21-66.252-33.21c-12.015-6.008-26.158-6.006-38.172 0.005l-65.816 33.272-66.689-33.282c-12.010-6.001-26.144-6-38.153 0.005l-23.586 11.733v-741.577l287.565 0.003c19.994-36.333 48.554-67.288 82.959-90.144h-370.486c-47.259 0-85.371 38.164-85.371 85.327v810.673c0 31.718 33.379 52.347 61.748 38.162l66.373-33.071 66.192 33.076c12.013 6.003 26.152 6 38.162-0.009l66.323-33.055 66.12 33.060c12.012 6.006 26.15 6.006 38.162 0l66.365-33.070 66.14 33.070c12.012 6.006 26.15 6.006 38.162 0l66.736-32.884 65.769 32.884c28.369 14.185 61.748-6.445 61.748-38.162v-491.797zM298.667 490.667c0 23.564 19.162 42.667 42.47 42.667h341.726c23.456 0 42.47-18.938 42.47-42.667 0-23.564-19.162-42.667-42.47-42.667h-341.726c-23.456 0-42.47 18.938-42.47 42.667zM298.667 661.333c0 23.564 19.162 42.667 42.47 42.667h341.726c23.456 0 42.47-18.938 42.47-42.667 0-23.564-19.162-42.667-42.47-42.667h-341.726c-23.456 0-42.47 18.938-42.47 42.667zM725.333 362.667c93.833 0 170.667-76.833 170.667-170.667s-76.833-170.667-170.667-170.667c-93.833 0-170.667 76.833-170.667 170.667s76.833 170.667 170.667 170.667zM757.333 298.667l-64-92-10.667-18.667 14.667-16 77.333-76 38.667 38.667-60 61.333 45.205 74.38-41.205 28.287z" />
<glyph unicode="&#xe95f;" glyph-name="password" d="M256 576h512c70.692 0 128-57.308 128-128v-341.333c0-70.692-57.308-128-128-128h-512c-70.692 0-128 57.308-128 128v341.333c0 70.692 57.308 128 128 128zM256 490.667c-23.564 0-42.667-19.103-42.667-42.667v-341.333c0-23.564 19.103-42.667 42.667-42.667h512c23.564 0 42.667 19.103 42.667 42.667v341.333c0 23.564-19.103 42.667-42.667 42.667h-512zM512 917.333c-164.5 0-256-91.5-256-256v-85.333h512v85.333c0 164.5-91.5 256-256 256zM512 832c118.333 0 170.667-52.333 170.667-170.667v-85.333h-341.333v85.333c0 118.333 52.333 170.667 170.667 170.667zM341.333 320c-23.5 0-42.667-19.167-42.667-42.667s19.167-42.667 42.667-42.667c23.5 0 42.667 19.167 42.667 42.667s-19.167 42.667-42.667 42.667zM512 320c-23.5 0-42.667-19.167-42.667-42.667s19.167-42.667 42.667-42.667c23.5 0 42.667 19.167 42.667 42.667s-19.167 42.667-42.667 42.667zM682.667 320c-23.5 0-42.667-19.167-42.667-42.667s19.167-42.667 42.667-42.667c23.5 0 42.667 19.167 42.667 42.667s-19.167 42.667-42.667 42.667z" />
<glyph unicode="&#xe960;" glyph-name="payment1" d="M0 704.003v42.666c0 47.103 38.229 85.331 85.333 85.331h767.994c47.104 0 85.333-38.228 85.333-85.331v-331.128c62.634-41.898 97.279-118.696 81.578-197.201-20.779-103.934-121.898-171.388-225.918-150.567-51.925 10.368-94.719 40.788-121.94 81.577h-587.046c-47.104 0-85.333 38.228-85.333 85.331v469.322zM895.994 149.35v42.666h-42.666v170.663h-85.333v-42.666h42.666v-127.997h-42.666v-42.666h127.999zM643.75 293.687c19.669 98.472 111.573 163.196 209.577 152.188v44.799h-767.994v-213.328c0-23.594 19.115-42.666 42.666-42.666h514.087c-2.176 19.242-2.389 38.954 1.664 59.007zM85.333 704.003v-42.666h767.994v42.666c0 23.551-19.072 42.666-42.666 42.666h-682.662c-23.552 0-42.666-19.114-42.666-42.666zM213.331 405.343h256c23.564 0 42.666-19.102 42.666-42.666s-19.102-42.666-42.666-42.666h-256c-23.564 0-42.666 19.102-42.666 42.666s19.102 42.666 42.666 42.666z" />
<glyph unicode="&#xe961;" glyph-name="pen" d="M792.779 849.643l120.878-120.925c33.316-33.329 33.356-87.326 0.057-120.638l-571.485-571.705c-8.304-8.307-24.517-15.042-36.499-15.042h-177.714c-23.573 0-42.683 18.983-42.683 42.694v177.761c0 11.857 6.83 28.295 15.043 36.504l571.779 571.436c33.302 33.282 87.302 33.249 120.623-0.085zM170.667 228.14l0.063-40.021c22.386 7.678 48.181 2.582 66.043-15.287 17.939-17.946 22.999-43.898 15.18-66.361l39.594-0.101 66.156 66.181-121.247 121.293c-39.817-39.766-65.79-65.705-65.79-65.705zM647.142 703.95c0 0-209.153-208.838-350.309-349.808l121.195-121.242 350.048 350.183-120.935 120.867z" />
<glyph unicode="&#xe962;" glyph-name="phone" d="M1001.384 174.542c28.091-21.935 30.271-60.312 5.092-85.49l-111.744-111.746c-111.849-111.849-453.724 18.679-644.229 209.187-190.508 190.505-321.060 532.358-209.185 644.233l111.744 111.746c25.278 25.28 63.634 22.896 85.49-5.092l134.393-172.108c21.937-28.093 19.154-71.431-6.027-96.615l-73.523-73.521c-25.268-25.265-31.563-70.797-12.953-101.571 0 0 36.26-73.237 120.078-157.056 83.814-83.819 157.054-120.081 157.054-120.081 30.83-18.109 76.388-12.224 101.569 12.955l73.523 73.523c25.265 25.265 68.621 27.884 96.611 6.029l172.108-134.395z" />
<glyph unicode="&#xe963;" glyph-name="phone-item" d="M427.772 595.956l43.422 43.383c16.107 16.094 16.068 42.026 0.043 58.042l-159.387 159.245c-24.19 24.169-63.057 23.974-87.151-0.099l-86.919-86.841c-55.846-55.797-69.287-156.893-29.677-225.466 0 0 47.5-110.819 219.232-282.395 171.73-171.58 280.62-217.357 280.62-217.357 67.981-40.644 169.643-25.929 225.638 30.020l86.916 86.839c24.252 24.226 24.137 63.057 0.102 87.074l-159.386 159.245c-16.077 16.064-42.039 16-58.095-0.038l-43.422-43.388c-24.013-23.991-62.857-24.081-87.108 0.149l-144.683 144.559c-24.094 24.073-24.138 63.057-0.145 87.028zM268.323 779.487l111.206-111.107-12.070-12.057c-57.401-57.352-57.26-150.407 0.146-207.764l144.686-144.555c57.502-57.455 150.336-57.498 207.731-0.149l12.177 12.164 111.202-111.104-70.123-70.063c-29.133-29.103-88.055-37.158-121.532-17.143l-5.171 3.089-5.551 2.334c-8.469 3.563-29.333 14.844-61.214 36.382-56.32 38.050-120.845 91.418-192.164 162.675-71.331 71.266-125.081 136.132-163.709 193.075-21.943 32.348-33.601 53.702-37.406 62.575l-1.998 4.667-2.539 4.393c-20.239 35.042-12.471 93.875 16.096 122.419l70.232 70.169z" />
<glyph unicode="&#xe964;" glyph-name="picture" d="M170.667 789.333h682.667c47 0 85.333-38.333 85.333-85.333v-512c0-47-38.333-85.333-85.333-85.333h-682.667c-47 0-85.333 38.333-85.333 85.333v512c0 47 38.333 85.333 85.333 85.333zM213.333 704c-23.564 0-42.667-19.103-42.667-42.667v-426.667c0-23.564 19.103-42.667 42.667-42.667h597.333c23.564 0 42.667 19.103 42.667 42.667v426.667c0 23.564-19.103 42.667-42.667 42.667h-597.333zM704 618.667c-35.333 0-64-28.667-64-64s28.667-64 64-64c35.333 0 64 28.667 64 64s-28.667 64-64 64zM341.333 533.333l-85.333-85.333v-170.667h512v68l-170.667 102.667-85.333-42.667-170.667 128z" />
<glyph unicode="&#xe965;" glyph-name="play" d="M512 960c-282.325 0-512-229.675-512-512s229.675-512 512-512 512 229.675 512 512-229.675 512-512 512zM777.6 433.92l-375.424-256c-2.703-1.898-6.062-3.033-9.686-3.033-9.379 0-16.981 7.603-16.981 16.981 0 0.046 0 0.093 0.001 0.139v-0.007 512c0.017 9.412 7.652 17.036 17.067 17.036 3.585 0 6.911-1.105 9.658-2.994l-0.058 0.038 375.467-256c4.519-3.097 7.446-8.233 7.446-14.051 0-5.855-2.963-11.018-7.471-14.071l-0.060-0.038z" />
<glyph unicode="&#xe966;" glyph-name="plus" d="M768 480v-64c0-13.2-10.8-24-24-24h-176v-176c0-13.2-10.8-24-24-24h-64c-13.2 0-24 10.8-24 24v176h-176c-13.2 0-24 10.8-24 24v64c0 13.2 10.8 24 24 24h176v176c0 13.2 10.8 24 24 24h64c13.2 0 24-10.8 24-24v-176h176c13.2 0 24-10.8 24-24zM960 800v-704c0-53-43-96-96-96h-704c-53 0-96 43-96 96v704c0 53 43 96 96 96h704c53 0 96-43 96-96zM864 108v680c0 6.6-5.4 12-12 12h-680c-6.6 0-12-5.4-12-12v-680c0-6.6 5.4-12 12-12h680c6.6 0 12 5.4 12 12z" />
<glyph unicode="&#xe967;" glyph-name="price" d="M682.667 917.333c23.564 0 42.667-18.916 42.667-42.626l85.296-0.041c47.161 0 85.371-38.099 85.371-85.327v-725.346c0-47.163-38.111-85.327-85.371-85.327h-597.259c-47.161 0-85.371 38.099-85.371 85.327v725.346c0 47.163 38.111 85.327 85.371 85.327h85.296c0 23.582 18.938 42.667 42.667 42.667 23.564 0 42.667-18.916 42.667-42.626l85.333-0.041c0 23.582 18.938 42.667 42.667 42.667 23.564 0 42.667-18.916 42.667-42.626l85.333-0.041c0 23.582 18.938 42.667 42.667 42.667zM554.667 789.357c0-23.605-18.938-42.69-42.667-42.69-23.564 0-42.667 18.916-42.667 42.626-29.398 0.070-58.233 0.072-85.333 0.072 0-23.614-18.938-42.698-42.667-42.698-23.564 0-42.667 18.916-42.667 42.626-51.527 0.069-85.333 0.047-85.333 0.047l0.037-725.34 597.296-0.006-0.037 725.34c0 0-33.79 0.004-85.296 0.009 0-23.591-18.938-42.675-42.667-42.675-23.564 0-42.667 18.916-42.667 42.626-27.1 0.059-55.935 0.062-85.333 0.064zM494.667 661.333h36v-38.667c61.833-9 109.333-61 109.333-125.333h-72c0 30.333-25.667 54.667-56 54.667s-54.667-24.333-54.667-54.667c0-11.5 0.667-39.333 65.333-57.333 74.833-19 117.333-65.167 117.333-126.667 0-64.333-47.5-116.333-109.333-125.333v-38.667h-36v38.667c-61.833 9-110.667 61-110.667 125.333h73.333c0-30.333 24.333-54.667 54.667-54.667s56 24.333 56 54.667c0 26.333-21.667 45.333-64 56-98.5 27.333-120 85.167-120 128 0 64.333 48.833 116.333 110.667 125.333v38.667z" />
<glyph unicode="&#xe968;" glyph-name="qr-code" d="M810.667 618.676v127.991h-127.991c-23.564 0-42.667 19.103-42.667 42.667s19.103 42.667 42.667 42.667h149.315c35.346 0 64.009-28.807 64.009-64.009v-149.315c0-23.564-19.103-42.667-42.667-42.667s-42.667 19.103-42.667 42.667zM341.333 746.667h-127.991v-127.991c0-23.564-19.103-42.667-42.667-42.667s-42.667 19.103-42.667 42.667v149.315c0 35.202 28.663 64.009 64.009 64.009h149.315c23.564 0 42.667-19.103 42.667-42.667s-19.103-42.667-42.667-42.667zM213.342 277.333v-127.991h127.991c23.564 0 42.667-19.103 42.667-42.667s-19.103-42.667-42.667-42.667h-149.315c-35.346 0-64.009 28.807-64.009 64.009v149.315c0 23.564 19.103 42.667 42.667 42.667s42.667-19.103 42.667-42.667zM682.676 149.342h127.991v127.991c0 23.564 19.103 42.667 42.667 42.667s42.667-19.103 42.667-42.667v-149.315c0-35.202-28.663-64.009-64.009-64.009h-149.315c-23.564 0-42.667 19.103-42.667 42.667s19.103 42.667 42.667 42.667zM938.667 448c0-23.564-18.932-42.667-42.658-42.667h-768.016c-23.56 0-42.658 18.938-42.658 42.667 0 23.564 18.932 42.667 42.658 42.667h768.016c23.56 0 42.658-18.938 42.658-42.667z" />
<glyph unicode="&#xe969;" glyph-name="ratio" d="M512-64c-281.6 0-512 230.4-512 512s230.4 512 512 512 512-230.4 512-512-230.4-512-512-512zM512-12.8c256 0 460.8 204.8 460.8 460.8s-204.8 460.8-460.8 460.8-460.8-204.8-460.8-460.8 204.8-460.8 460.8-460.8z" />
<glyph unicode="&#xe96a;" glyph-name="ratio-active" d="M512-64c-281.6 0-512 230.4-512 512s230.4 512 512 512 512-230.4 512-512-230.4-512-512-512zM512 243.2c112.64 0 204.8 92.16 204.8 204.8s-92.16 204.8-204.8 204.8-204.8-92.16-204.8-204.8 92.16-204.8 204.8-204.8z" />
<glyph unicode="&#xe96b;" glyph-name="ratio-checked" d="M512-64c-281.6 0-512 230.4-512 512s230.4 512 512 512 512-230.4 512-512-230.4-512-512-512zM424.96 227.84l378.88 389.12c20.48 20.48 20.48 51.2 0 71.68s-51.2 20.48-71.68 0l-307.2-317.44c-20.48-20.48-51.2-20.48-71.68 0l-61.44 61.44c-20.48 20.48-51.2 20.48-71.68 0s-20.48-51.2 0-71.68l133.12-133.12c20.48-20.48 51.2-20.48 71.68 0z" />
<glyph unicode="&#xe96c;" glyph-name="ratio-checked-24px" d="M938.667 448c0-235.639-191.027-426.667-426.667-426.667s-426.667 191.027-426.667 426.667c0 235.642 191.025 426.667 426.667 426.667 235.639 0 426.667-191.025 426.667-426.667zM378.872 264.653c16.682-16.683 43.648-16.683 60.33 0l316.89 323.498c16.597 16.596 16.597 43.433-0.043 60.245-16.64 16.768-43.691 16.811-60.331 0.128l-256.559-263.167c-16.64-16.683-43.605-16.683-60.288-0.043l-50.219 50.005c-16.64 16.555-43.562 16.555-60.16-0.043-16.64-16.64-16.64-43.563 0-60.203l110.379-110.421z" />
<glyph unicode="&#xe96d;" glyph-name="recent" d="M512 874.667c-117.667 0-224.167-48-301.333-125.333l-82.667 82.667v-213.333h213.333l-70.667 70.667c61.833 61.833 147.167 100 241.333 100 188.167 0 341.333-153.167 341.333-341.333s-153.167-341.333-341.333-341.333c-188.167 0-341.333 153.167-341.333 341.333 0 14.5 0.833 28.667 2.667 42.667h-85.333c-1.333-14-2.667-28.167-2.667-42.667 0-235.333 191.333-426.667 426.667-426.667s426.667 191.333 426.667 426.667c0 235.333-191.333 426.667-426.667 426.667zM469.333 661.333v-230.667l140-140 60 60-114.667 114.667v196h-85.333z" />
<glyph unicode="&#xe96e;" glyph-name="refund" d="M384 192v85.333h85.333v-85.333h-85.333zM256 192v85.333h85.333v-85.333h-85.333zM661.333 576c105.6 0 192-86.4 192-192s-86.4-192-192-192h-149.333v85.333h149.333c58.837 0 106.667 47.829 106.667 106.667s-47.829 106.667-106.667 106.667h-322.645l97.323-97.323-61.355-61.355-170.667 170.667-29.312 30.677 29.312 30.677 170.667 170.667 61.355-61.355-97.323-97.323h322.645z" />
<glyph unicode="&#xe96f;" glyph-name="reload" d="M512 832c117.757 0 226.664-52.835 298.667-138.533v53.2c0 23.564 19.103 42.667 42.667 42.667s42.667-19.103 42.667-42.667v-170.667c0-23.564-19.103-42.667-42.667-42.667h-19.074c-1.453-0.075-2.901-0.074-4.341 0h-147.251c-23.564 0-42.667 19.103-42.667 42.667s19.103 42.667 42.667 42.667h77.985c-55.094 78.305-147.676 128-248.652 128-151.091 0-277.909-112.834-296.37-261.41-2.906-23.384-24.218-39.986-47.602-37.080s-39.986 24.218-37.080 47.602c23.754 191.18 186.772 336.222 381.052 336.222zM341.333 277.333h-77.939c54.996-78.362 147.486-128 248.606-128 150.867 0 277.563 112.507 296.295 260.809 2.953 23.378 24.299 39.937 47.677 36.984s39.937-24.299 36.984-47.677c-24.103-190.828-186.963-335.449-380.955-335.449-117.893 0-226.747 52.794-298.667 138.544v-53.211c0-23.564-19.103-42.667-42.667-42.667s-42.667 19.103-42.667 42.667v170.667c0 23.564 19.103 42.667 42.667 42.667h170.667c23.564 0 42.667-19.103 42.667-42.667s-19.103-42.667-42.667-42.667z" />
<glyph unicode="&#xe970;" glyph-name="remove-text" d="M572.34 448l90.51 90.51c16.662 16.662 16.662 43.677 0 60.34s-43.677 16.662-60.34 0l-90.51-90.51-90.51 90.51c-16.662 16.662-43.677 16.662-60.34 0s-16.662-43.677 0-60.34l90.51-90.51-90.51-90.51c-16.662-16.662-16.662-43.677 0-60.34s43.677-16.662 60.34 0l90.51 90.51 90.51-90.51c16.662-16.662 43.677-16.662 60.34 0s16.662 43.677 0 60.34l-90.51 90.51zM512 106.667c-188.513 0-341.333 152.82-341.333 341.333s152.82 341.333 341.333 341.333c188.513 0 341.333-152.82 341.333-341.333s-152.82-341.333-341.333-341.333z" />
<glyph unicode="&#xe971;" glyph-name="reply" d="M426.667 661.333l-170.667-170.667 170.667-170.667v128h128c71.333 0 128-56.667 128-128h85.333c0 117.333-96 213.333-213.333 213.333h-128v128z" />
<glyph unicode="&#xe972;" glyph-name="sale" d="M375.467 405.333h59.733l-29.867 85.333zM981.333 661.333h-938.667c-25.6 0-42.667-17.067-42.667-42.667v-384c0-25.6 17.067-42.667 42.667-42.667h938.667c25.6 0 42.667 17.067 42.667 42.667v384c0 25.6-17.067 42.667-42.667 42.667zM170.667 277.333c-46.933 0-81.067 34.133-85.333 81.067 0 12.8 8.533 21.333 21.333 21.333s21.333-8.533 21.333-21.333c0-21.333 21.333-38.4 42.667-38.4 25.6 0 42.667 17.067 42.667 42.667 0 21.333-12.8 34.133-42.667 42.667h-4.267c-68.267 17.067-81.067 55.467-81.067 85.333 0 46.933 38.4 85.333 85.333 85.333s81.067-34.133 85.333-81.067c0-12.8-8.533-21.333-21.333-21.333s-21.333 8.533-21.333 21.333c0 21.333-21.333 38.4-42.667 38.4-25.6 0-42.667-17.067-42.667-42.667 0-21.333 12.8-34.133 42.667-42.667h4.267c68.267-17.067 81.067-55.467 81.067-85.333 0-46.933-38.4-85.333-85.333-85.333zM499.2 281.6c-4.267 0-4.267 0-8.533 0-8.533 0-17.067 4.267-21.333 12.8l-21.333 68.267h-85.333l-21.333-68.267c-4.267-12.8-17.067-17.067-25.6-12.8-12.8 4.267-17.067 17.067-12.8 25.6l85.333 256c4.267 17.067 34.133 17.067 38.4 0l85.333-256c4.267-12.8-4.267-25.6-12.8-25.6zM704 277.333h-128c-12.8 0-21.333 8.533-21.333 21.333v256c0 12.8 8.533 21.333 21.333 21.333s21.333-8.533 21.333-21.333v-234.667h106.667c12.8 0 21.333-8.533 21.333-21.333s-8.533-21.333-21.333-21.333zM874.667 448c12.8 0 21.333-8.533 21.333-21.333s-8.533-21.333-21.333-21.333h-64v-85.333h106.667c12.8 0 21.333-8.533 21.333-21.333s-8.533-21.333-21.333-21.333h-128c-12.8 0-21.333 8.533-21.333 21.333v256c0 12.8 8.533 21.333 21.333 21.333h128c12.8 0 21.333-8.533 21.333-21.333s-8.533-21.333-21.333-21.333h-106.667v-85.333h64z" />
<glyph unicode="&#xe973;" glyph-name="search" d="M666.459 233.202c-65.702-52.557-149.045-83.982-239.735-83.982-212.127 0-384.057 171.929-384.057 384.057s171.929 384.057 384.057 384.057c212.127 0 384.057-171.929 384.057-384.057 0-90.69-31.425-174.033-83.982-239.735l96.667-96.667c17.453 0.896 35.248-5.078 48.605-18.435l90.509-90.509c25.006-25.006 25.006-65.546 0-90.509-24.964-25.006-65.503-25.006-90.509 0l-90.509 90.509c-13.357 13.357-19.331 31.151-18.435 48.605l-96.667 96.667zM725.434 533.277c0 164.974-133.737 298.711-298.711 298.711s-298.711-133.737-298.711-298.711c0-164.974 133.737-298.711 298.711-298.711s298.711 133.737 298.711 298.711z" />
<glyph unicode="&#xe974;" glyph-name="search-tiny" d="M633.813 356.352c30.080 36.779 48.853 83.115 48.853 134.315 0 117.845-95.531 213.333-213.333 213.333s-213.333-95.488-213.333-213.333c0-117.803 95.531-213.333 213.333-213.333 51.2 0 97.536 18.773 134.315 48.853l134.187-134.187h30.165v30.165l-134.187 134.187zM469.333 320c-94.251 0-170.667 76.416-170.667 170.667s76.416 170.667 170.667 170.667c94.251 0 170.667-76.416 170.667-170.667s-76.416-170.667-170.667-170.667v0z" />
<glyph unicode="&#xe975;" glyph-name="send" d="M161.331 405.333h602.667l-662.656-270.677 59.989 270.677zM101.342 761.344l662.656-270.677h-602.667l-59.989 270.677zM998.067 487.509l-939.861 384.256c-31.915 13.056-65.28-15.147-57.771-48.768l83.584-374.997-83.584-374.997c-7.509-33.621 25.856-61.824 57.771-48.811l939.861 384.299c35.328 14.464 35.328 64.555 0 79.019z" />
<glyph unicode="&#xe976;" glyph-name="share-icon" d="M832 576c106.042 0 192 85.961 192 192s-85.958 192-192 192c-106.042 0-192-85.961-192-192 0-8.031 0.493-15.948 1.453-23.721l-316.166-158.082c-34.531 33.313-81.516 53.803-133.287 53.803-106.039 0-192-85.961-192-192s85.961-192 192-192c51.772 0 98.756 20.493 133.287 53.805l316.166-158.086c-0.96-7.77-1.453-15.686-1.453-23.718 0-106.042 85.958-192 192-192s192 85.958 192 192c0 106.042-85.958 192-192 192-51.77 0-98.758-20.493-133.286-53.805l-316.164 158.084c0.654 5.313 1.091 10.696 1.304 16.135 0.098 2.516 0.147 5.045 0.147 7.586 0 8.031-0.494 15.949-1.451 23.721l316.164 158.082c34.528-33.313 81.517-53.803 133.286-53.803z" />
<glyph unicode="&#xe977;" glyph-name="account-info1" d="M512 944c-274 0-496-222-496-496s222-496 496-496 496 222 496 496-222 496-496 496zM512 752c97.2 0 176-78.8 176-176s-78.8-176-176-176-176 78.8-176 176 78.8 176 176 176zM512 64c-117.4 0-222.6 53.2-293 136.4 37.6 70.8 111.2 119.6 197 119.6 4.8 0 9.6-0.8 14.2-2.2 26-8.4 53.2-13.8 81.8-13.8s56 5.4 81.8 13.8c4.6 1.4 9.4 2.2 14.2 2.2 85.8 0 159.4-48.8 197-119.6-70.4-83.2-175.6-136.4-293-136.4z" />
<glyph unicode="&#xe978;" glyph-name="account-web1" d="M85.333 448c0 235.167 191.5 426.667 426.667 426.667s426.667-191.5 426.667-426.667c0-235.166-191.501-426.667-426.667-426.667s-426.667 191.501-426.667 426.667zM853.333 448c0 189-152.333 341.333-341.333 341.333s-341.333-152.333-341.333-341.333c0-189.001 152.333-341.333 341.333-341.333s341.333 152.333 341.333 341.333zM512 730.667c-77.833 0-128-62.333-128-138.667v-59.998l13.333-10.667c20.5-42.667 63.334-73.335 114.667-73.335 51.831 0 96 31.002 116.002 74.667l11.998 10.667v58.667c0 50.667-19.166 101-82.667 113.333l-13.333 25.333h-32zM277.333 258.667c33.167 42.167 104.167 104 232 104s197.5-61.833 230.669-104c-54.835-66.999-137.502-109.333-230.669-109.333s-177.167 42.334-232 109.333z" />
<glyph unicode="&#xe979;" glyph-name="adayroi1" d="M630.451 350.865l-119.902-116.199-119.902 112.567c-65.753 61.73-65.753 163.404 0 225.135s174.051 61.73 239.804 0c69.62-61.73 69.62-159.773 0-221.504zM769.896 789.333h-83.437v-45.511c-56.889 30.341-113.778 45.511-174.459 45.511-185.837 0-341.333-155.496-341.333-341.333s155.496-341.333 341.333-341.333c64.474 0 125.156 18.963 178.252 53.096 15.17-26.548 26.548-53.096 60.681-53.096h102.4v599.23c0 45.511-37.926 83.437-83.437 83.437zM512 533.333c-47.127 0-85.333-38.206-85.333-85.333s38.206-85.333 85.333-85.333c47.127 0 85.333 38.206 85.333 85.333s-38.206 85.333-85.333 85.333z" />
<glyph unicode="&#xe97a;" glyph-name="add1" d="M554.667 490.667h298.667c23.564 0 42.667-19.103 42.667-42.667s-19.103-42.667-42.667-42.667h-298.667v-298.667c0-23.564-19.103-42.667-42.667-42.667s-42.667 19.103-42.667 42.667v298.667h-298.667c-23.564 0-42.667 19.103-42.667 42.667s19.103 42.667 42.667 42.667h298.667v298.667c0 23.564 19.103 42.667 42.667 42.667s42.667-19.103 42.667-42.667v-298.667z" />
<glyph unicode="&#xe97b;" glyph-name="airplane1" d="M337.067 405.333h82.775c11.772 0 19.413-9.466 17.112-20.921l-52.957-263.592 146.215 265.845c5.67 10.31 19.719 18.668 31.484 18.668h248.972c23.56 0 42.667 19.109 42.667 42.667 0 23.484-19.164 42.667-42.667 42.667h-248.972c-11.718 0-25.727 8.223-31.474 18.703l-146.073 266.343 52.817-264.085c2.315-11.576-5.363-20.96-16.955-20.96h-208.004l-41.339 23.065 0.050-131.992 41.288 23.593h125.061zM337.067 320h-102.4l-75.104-42.917c-40.996-23.426-74.229-4.177-74.229 42.9v256.033c0 47.119 33.142 66.379 74.229 42.9l75.104-42.917h102.4l-51.396 256.979c-4.605 23.023 10.576 41.687 34.455 41.687h63.747c23.634 0 51.992-16.726 63.412-37.49l143.647-261.177h219.733c70.695 0 128-57.451 128-128 0-70.692-57.318-128-128-128h-219.733l-143.647-261.177c-11.42-20.764-39.778-37.49-63.412-37.49h-63.747c-23.88 0-39.060 18.664-34.455 41.687l51.396 256.979z" />
</font>
</defs>
</svg>
